<svg width="175" height="175" viewBox="0 0 175 175" fill="none" xmlns="http://www.w3.org/2000/svg">
<rect x="0.165039" y="0.165039" width="174" height="174" fill="#18171D"/>
<rect x="0.165039" y="0.165039" width="174" height="174" stroke="white" stroke-opacity="0.16" stroke-width="0.33"/>
<path d="M119.815 81.3685C118.49 78.3778 114.582 77.6642 112.305 79.9751L96.5701 95.6419C93.7834 98.4286 89.2634 98.4286 86.4767 95.6419C83.69 92.8552 83.69 88.3353 86.4767 85.5485L100.852 71.1732C110.47 61.5556 107.003 41.5388 92.0841 30.9017C89.1955 28.8286 85.1513 30.6638 84.7775 34.1982C84.0298 40.9271 79.9177 52.3798 61.838 70.4595C61.4642 70.8333 61.1244 71.2411 60.7845 71.7169C60.7166 71.8189 60.6146 71.9208 60.5466 72.0228C48.0064 86.0243 48.4822 107.536 61.94 120.994C72.3732 131.427 79.34 138.394 83.8939 142.948C85.6951 144.749 88.6517 144.749 90.4529 142.948C93.9533 139.448 100.682 132.719 112.407 120.994C123.112 110.255 125.593 94.4185 119.815 81.3685Z" fill="url(#paint0_linear_11108_21660)" fill-opacity="0.66"/>
<path d="M119.815 81.3685C118.49 78.3778 114.582 77.6642 112.305 79.9751L96.5701 95.6419C93.7834 98.4286 89.2634 98.4286 86.4767 95.6419C83.69 92.8552 83.69 88.3353 86.4767 85.5485L100.852 71.1732C110.47 61.5556 107.003 41.5388 92.0841 30.9017C89.1955 28.8286 85.1513 30.6638 84.7775 34.1982C84.0298 40.9271 79.9177 52.3798 61.838 70.4595C61.4642 70.8333 61.1244 71.2411 60.7845 71.7169C60.7166 71.8189 60.6146 71.9208 60.5466 72.0228C48.0064 86.0243 48.4822 107.536 61.94 120.994C72.3732 131.427 79.34 138.394 83.8939 142.948C85.6951 144.749 88.6517 144.749 90.4529 142.948C93.9533 139.448 100.682 132.719 112.407 120.994C123.112 110.255 125.593 94.4185 119.815 81.3685Z" fill="white" fill-opacity="0.33"/>
<defs>
<linearGradient id="paint0_linear_11108_21660" x1="37.6572" y1="41.1455" x2="135.657" y2="149.145" gradientUnits="userSpaceOnUse">
<stop stop-color="#6AA1D8"/>
<stop offset="0.514423" stop-color="#584BE5"/>
<stop offset="1" stop-color="#C53DD4"/>
</linearGradient>
</defs>
</svg>
