<svg width="236" height="236" viewBox="0 0 236 236" fill="none" xmlns="http://www.w3.org/2000/svg">
<rect width="236" height="236" fill="url(#paint0_radial_11108_21574)"/>
<path d="M167.903 76.8215C168.25 77.0958 168.453 77.5134 168.453 77.9553V100.709C168.453 101.508 167.804 102.156 167.003 102.156H149.812C149.011 102.156 148.362 101.508 148.362 100.709V87.645C148.362 87.2031 148.16 86.7854 147.812 86.5111L119.126 63.8633C118.598 63.4469 117.853 63.4469 117.326 63.8633L88.6406 86.5111C88.2932 86.7854 88.0906 87.2031 88.0906 87.645V148.352C88.0906 148.794 88.2932 149.212 88.6406 149.486L117.326 172.134C117.853 172.55 118.598 172.55 119.126 172.134L140.922 154.925C141.632 154.364 141.659 153.299 140.978 152.704L128.311 141.619C127.352 140.78 127.869 139.203 129.14 139.091L148.392 137.404C148.929 137.357 149.396 137.016 149.604 136.52L157.069 118.692C157.565 117.507 159.249 117.507 159.745 118.692L167.21 136.52C167.418 137.016 167.884 137.357 168.421 137.404L187.675 139.091C188.946 139.203 189.464 140.78 188.504 141.619L173.912 154.389C173.511 154.74 173.336 155.281 173.455 155.799L177.8 174.764C178.086 176.012 176.726 176.987 175.631 176.32L159.872 166.724C159.353 166.408 158.692 166.448 158.216 166.824L119.126 197.688C118.598 198.104 117.853 198.104 117.326 197.688L68.55 159.179C68.2026 158.904 68 158.487 68 158.045V77.9553C68 77.5134 68.2026 77.0957 68.55 76.8215L117.326 38.3123C117.853 37.8959 118.598 37.8959 119.126 38.3123L167.903 76.8215Z" fill="url(#paint1_radial_11108_21574)"/>
<path d="M167.903 76.8215C168.25 77.0958 168.453 77.5134 168.453 77.9553V100.709C168.453 101.508 167.804 102.156 167.003 102.156H149.812C149.011 102.156 148.362 101.508 148.362 100.709V87.645C148.362 87.2031 148.16 86.7854 147.812 86.5111L119.126 63.8633C118.598 63.4469 117.853 63.4469 117.326 63.8633L88.6406 86.5111C88.2932 86.7854 88.0906 87.2031 88.0906 87.645V148.352C88.0906 148.794 88.2932 149.212 88.6406 149.486L117.326 172.134C117.853 172.55 118.598 172.55 119.126 172.134L140.922 154.925C141.632 154.364 141.659 153.299 140.978 152.704L128.311 141.619C127.352 140.78 127.869 139.203 129.14 139.091L148.392 137.404C148.929 137.357 149.396 137.016 149.604 136.52L157.069 118.692C157.565 117.507 159.249 117.507 159.745 118.692L167.21 136.52C167.418 137.016 167.884 137.357 168.421 137.404L187.675 139.091C188.946 139.203 189.464 140.78 188.504 141.619L173.912 154.389C173.511 154.74 173.336 155.281 173.455 155.799L177.8 174.764C178.086 176.012 176.726 176.987 175.631 176.32L159.872 166.724C159.353 166.408 158.692 166.448 158.216 166.824L119.126 197.688C118.598 198.104 117.853 198.104 117.326 197.688L68.55 159.179C68.2026 158.904 68 158.487 68 158.045V77.9553C68 77.5134 68.2026 77.0957 68.55 76.8215L117.326 38.3123C117.853 37.8959 118.598 37.8959 119.126 38.3123L167.903 76.8215Z" fill="white" fill-opacity="0.04"/>
<defs>
<radialGradient id="paint0_radial_11108_21574" cx="0" cy="0" r="1" gradientUnits="userSpaceOnUse" gradientTransform="translate(118 236) rotate(-90) scale(236 342.776)">
<stop stop-color="#101930"/>
<stop offset="1" stop-color="#37204A"/>
</radialGradient>
<radialGradient id="paint1_radial_11108_21574" cx="0" cy="0" r="1" gradientUnits="userSpaceOnUse" gradientTransform="translate(57.5 52.5) rotate(46.7475) scale(208.694 760.491)">
<stop stop-color="#FB7E47"/>
<stop offset="0.480769" stop-color="#AD2EDA"/>
<stop offset="1" stop-color="#636AFF"/>
</radialGradient>
</defs>
</svg>
