<svg width="175" height="175" viewBox="0 0 175 175" fill="none" xmlns="http://www.w3.org/2000/svg">
<rect x="0.165039" y="0.165039" width="174" height="174" fill="#161616"/>
<rect x="0.165039" y="0.165039" width="174" height="174" stroke="white" stroke-opacity="0.16" stroke-width="0.33"/>
<path d="M75.5127 34.584C80.1595 32.8854 84.4948 36.8493 83.9893 41.3838L81.4658 64.0137H106.799L108.777 42.7607C109.169 38.5572 113.672 35.4126 117.902 37.6738L118.002 37.7285L118.322 37.9082C125.1 41.7382 135.13 49.4837 140.64 61.7354C142.648 66.2023 139.076 70.5838 134.752 70.584H112.785L110.493 95.2109H135.703C139.803 95.2109 143.438 99.2427 141.611 103.706C137.746 113.15 127.704 127.273 109.253 133.383C104.656 134.905 100.561 131.019 100.968 126.65L103.283 101.78H77.2559L73.9648 131.299C73.6228 134.367 71.1911 136.783 68.1211 137.105L39.4932 140.111C35.1244 140.57 31.5447 136.695 32.3477 132.376L38.2598 100.579C38.8386 97.4673 41.5545 95.2109 44.7197 95.2109H71.377L74.123 70.584H51.9678C47.5079 70.5838 43.9993 66.0085 46.0908 61.5488L46.2822 61.1445C50.3681 52.6101 58.5312 41.1115 75.4023 34.625L75.5127 34.584ZM38.8066 133.577L67.4355 130.571L70.6445 101.78H44.7197L38.8066 133.577ZM107.531 127.03C123.14 121.731 131.818 109.863 135.294 101.78H109.882L107.531 127.03ZM77.9883 95.2109H103.895L106.187 70.584H80.7334L77.9883 95.2109ZM77.4336 40.8848C62.7442 46.6386 55.7382 56.594 52.1934 64.0137H74.8555L77.4336 40.8848ZM113.397 64.0137H134.457C129.728 53.8217 121.247 47.1473 115.284 43.7383L113.397 64.0137Z" fill="white"/>
</svg>
