<svg width="175" height="175" viewBox="0 0 175 175" fill="none" xmlns="http://www.w3.org/2000/svg">
<rect x="0.165039" y="0.165039" width="174" height="174" fill="url(#paint0_linear_11108_21635)"/>
<rect x="0.165039" y="0.165039" width="174" height="174" stroke="white" stroke-opacity="0.16" stroke-width="0.33"/>
<path d="M110.731 125.016C108.481 122.793 105.545 121.653 102.594 121.566L100.636 108.461C104.172 107.826 107.985 105.704 112.251 101.489C137.862 76.1877 152.53 43.8856 141.397 32.8874C130.265 21.8891 97.568 36.3803 71.957 61.6821C68.2315 65.3626 66.1277 68.7111 65.2219 71.8288L53.0812 69.9091C53.0374 66.9503 51.8686 64.0058 49.5895 61.7542C44.9144 57.1355 37.3465 57.1355 32.6714 61.7542C27.9963 66.3729 27.9963 73.8494 32.6714 78.4681C37.3465 83.0868 44.9144 83.0868 49.5895 78.4681C50.919 77.1547 51.854 75.5959 52.4384 73.9505L64.696 75.8701C64.9444 82.293 70.16 87.9653 76.3984 94.1862L70.3061 100.205C64.4184 95.8027 56.0032 96.2357 50.6414 101.533C44.7829 107.321 44.7683 116.717 50.6414 122.519C56.5145 128.321 66.0109 128.321 71.884 122.519C77.2458 117.222 77.6841 108.908 73.2281 103.092L79.3204 97.0728C85.1497 102.803 90.5114 107.638 96.443 108.504L98.4738 122.144C96.7644 122.707 95.1427 123.645 93.784 124.987C89.1089 129.606 89.1089 137.082 93.784 141.701C98.4591 146.32 106.027 146.32 110.702 141.701C115.377 137.082 115.377 129.606 110.702 124.987L110.731 125.016ZM88.13 85.5405C83.4549 80.9218 83.4549 73.4453 88.13 68.8266C92.8052 64.2079 100.373 64.2079 105.048 68.8266C109.723 73.4453 109.723 80.9218 105.048 85.5405C100.373 90.1592 92.8052 90.1592 88.13 85.5405Z" fill="#6841D2"/>
<defs>
<linearGradient id="paint0_linear_11108_21635" x1="174.165" y1="174.165" x2="0.165039" y2="0.165039" gradientUnits="userSpaceOnUse">
<stop/>
<stop offset="1" stop-color="#111111"/>
</linearGradient>
</defs>
</svg>
