<svg width="175" height="175" viewBox="0 0 175 175" fill="none" xmlns="http://www.w3.org/2000/svg">
<rect x="0.165039" y="0.165039" width="174" height="174" fill="black"/>
<rect x="0.165039" y="0.165039" width="174" height="174" stroke="white" stroke-opacity="0.16" stroke-width="0.33"/>
<path d="M141.932 42.165C146.492 42.165 150.565 44.8492 152.298 49.0391L152.299 49.0381C154.058 53.2298 153.079 58.0047 149.874 61.1914L130.431 80.5469C136.676 86.0716 140.342 94.0313 140.342 102.589C140.342 118.899 126.99 132.165 110.575 132.165H32.3716C27.8365 132.165 23.7632 129.48 22.0308 125.292C20.2713 121.099 21.252 116.326 24.4526 113.116L24.4556 113.113L43.8979 93.7842C37.6533 88.2594 33.9869 80.299 33.9868 71.7412C33.9868 55.6861 46.9249 42.5804 62.9634 42.1748L63.729 42.165H141.932ZM32.2388 120.868C32.191 120.916 32.1727 120.948 32.1665 120.961C32.1606 120.973 32.159 120.979 32.1587 120.981C32.1578 120.99 32.1601 121.011 32.1714 121.043C32.2054 121.112 32.2327 121.143 32.2466 121.154C32.2516 121.158 32.2577 121.161 32.2681 121.165C32.279 121.169 32.3105 121.179 32.3716 121.179H110.422C110.897 121.179 111.262 120.862 111.346 120.593L111.348 120.594C111.35 120.584 111.351 120.575 111.352 120.567V120.401L111.377 120.352V120.335C111.377 120.175 111.296 119.978 111.124 119.82L111.063 119.78C110.962 119.713 110.893 119.68 110.855 119.665C110.738 119.641 110.637 119.606 110.562 119.574L53.7993 99.5947L53.7417 99.5742L53.686 99.5469H53.6841L32.2388 120.868ZM52.3325 56.9658C47.8836 60.3842 45.0038 65.7409 45.0259 71.7373V71.7412C45.0259 78.6601 48.8521 84.9825 55.02 88.2197L55.5571 88.4883C56.0944 88.7491 56.6338 88.9848 57.1655 89.1787L57.3716 89.2539L57.3921 89.2744L57.4351 89.291L57.4702 89.2998L57.5161 89.3105L57.561 89.3271L114.208 109.27L114.215 109.272C114.363 109.326 114.504 109.379 114.636 109.429C114.77 109.479 114.897 109.528 115.028 109.575V109.577C115.081 109.596 115.127 109.614 115.16 109.629C115.196 109.646 115.231 109.663 115.248 109.671C115.254 109.674 115.259 109.677 115.263 109.679L115.27 109.681L115.308 109.696C115.426 109.746 115.726 109.862 115.969 110L115.999 110.017L116.015 110.027C116.002 110.02 116 110.02 116.035 110.037C116.06 110.05 116.124 110.082 116.198 110.127L116.76 110.445L116.79 110.465C116.806 110.475 116.82 110.484 116.851 110.503C116.883 110.522 116.933 110.551 116.993 110.591C117.215 110.73 117.409 110.867 117.578 110.987L117.645 111.035L117.685 111.075L117.712 111.095C118.722 111.828 119.559 112.733 120.252 113.696C120.32 113.768 120.372 113.841 120.409 113.908C120.533 114.094 120.672 114.305 120.798 114.523L120.825 114.55L120.893 114.673C120.994 114.854 121.111 115.069 121.219 115.293C121.258 115.346 121.331 115.454 121.378 115.606C121.421 115.712 121.464 115.817 121.506 115.923C121.538 116.003 121.571 116.082 121.603 116.162C121.619 116.188 121.635 116.214 121.647 116.238C121.68 116.304 121.701 116.366 121.716 116.42C121.813 116.71 121.915 117.025 122.006 117.358C126.45 113.94 129.329 108.584 129.329 102.589C129.329 95.8828 125.735 89.7396 119.901 86.4434L119.33 86.1338L119.321 86.1289L119.313 86.124C118.755 85.8199 118.2 85.5581 117.648 85.3369L117.097 85.1289L116.885 85.0547L116.878 85.0488L60.0347 65.0664C60.016 65.0605 59.9984 65.0562 59.9839 65.0508C59.978 65.0486 59.9718 65.0461 59.9663 65.0439C59.7153 64.9686 59.4598 64.8838 59.1958 64.7695C59.1143 64.7417 59.0492 64.7157 59.0112 64.6982C58.998 64.6922 58.9831 64.6849 58.9761 64.6816L58.9731 64.6807L58.9575 64.6748L58.9194 64.6592C58.7488 64.5865 58.5415 64.4985 58.3579 64.4072C58.3072 64.382 58.2562 64.3562 58.2056 64.3311L58.0532 64.2559L58.019 64.2383L57.9858 64.2188C57.9434 64.1934 57.8921 64.1657 57.8188 64.126L57.5796 63.9922L57.5356 63.9658L57.4946 63.9346C57.483 63.9259 57.4674 63.9149 57.4126 63.8809L57.1899 63.7324L57.1772 63.7236L57.1655 63.7139C57.1091 63.669 57.0651 63.6349 57.0269 63.6074L56.9194 63.5371L56.8755 63.5107L56.8345 63.4805C56.7838 63.4427 56.7328 63.404 56.6821 63.3662C56.6354 63.3314 56.5882 63.2966 56.5415 63.2617C56.4487 63.2006 56.3722 63.1415 56.3198 63.0986C56.2337 63.0281 56.2264 63.0209 56.1997 63.001C56.1134 62.9366 56.0335 62.8661 55.9888 62.8271C55.9322 62.7779 55.9101 62.7593 55.895 62.748C55.7498 62.6397 55.637 62.5303 55.5474 62.4414C55.4057 62.327 55.2799 62.2009 55.2036 62.125C55.1133 62.0352 54.9953 61.9191 54.8765 61.7656C54.8135 61.6873 54.7739 61.6382 54.7446 61.6025L54.6704 61.5195L54.5552 61.4053L54.4976 61.291C54.4867 61.2774 54.4773 61.2654 54.4536 61.2363C54.4373 61.2163 54.4161 61.19 54.3931 61.1602L54.2563 60.998C54.1935 60.9208 54.1215 60.825 54.064 60.7363H54.062C54.0529 60.7227 54.0446 60.709 54.0366 60.6963C54.0168 60.6647 54.0013 60.6366 53.9888 60.6143L53.9829 60.6094L53.9243 60.5166C53.8373 60.3806 53.7442 60.2356 53.6519 60.0859L53.3813 59.625L53.3726 59.6094L53.3647 59.5938L53.2124 59.291L53.1938 59.2539L53.1782 59.2148C53.1712 59.1973 53.1588 59.1717 53.1235 59.1016C53.1023 59.0593 53.0702 58.9898 53.0356 58.9121C52.9854 58.8121 52.9163 58.6771 52.8481 58.5078L52.6616 58.0439L52.6431 57.9531C52.6429 57.9524 52.6424 57.9503 52.6421 57.9492C52.6415 57.9469 52.6404 57.9437 52.6392 57.9395C52.6364 57.9299 52.6327 57.9161 52.6265 57.8984C52.6128 57.8598 52.5956 57.8174 52.5688 57.751C52.5241 57.6398 52.4932 57.5335 52.4761 57.4766C52.4553 57.4077 52.4479 57.387 52.4419 57.3721L52.4009 57.2715L52.3833 57.1641C52.3806 57.1481 52.3755 57.1246 52.3579 57.0635C52.352 57.043 52.3441 57.0078 52.3325 56.9658ZM139.182 99.5742C139.177 99.5287 139.173 99.483 139.168 99.4375C139.173 99.483 139.177 99.5287 139.182 99.5742ZM138.979 98.041C138.972 97.9965 138.966 97.9517 138.958 97.9072C138.966 97.9517 138.972 97.9965 138.979 98.041ZM138.853 97.3203C138.843 97.264 138.833 97.2076 138.822 97.1514C138.833 97.2076 138.843 97.264 138.853 97.3203ZM138.717 96.6396C138.698 96.5484 138.679 96.4572 138.659 96.3662C138.679 96.4572 138.698 96.5484 138.717 96.6396ZM138.545 95.8848C138.525 95.8018 138.507 95.7185 138.486 95.6357C138.507 95.7185 138.525 95.8018 138.545 95.8848ZM138.368 95.1836C138.338 95.0715 138.308 94.9593 138.277 94.8477C138.308 94.9593 138.338 95.0715 138.368 95.1836ZM138.168 94.4756C138.133 94.3562 138.098 94.2369 138.061 94.1182C138.098 94.2369 138.133 94.3562 138.168 94.4756ZM137.933 93.7197C137.898 93.6124 137.863 93.5052 137.827 93.3984C137.863 93.5052 137.898 93.6124 137.933 93.7197ZM137.683 92.9893C137.646 92.884 137.609 92.7786 137.57 92.6738C137.609 92.7786 137.646 92.884 137.683 92.9893ZM137.412 92.2607C137.371 92.1566 137.33 92.0528 137.289 91.9492C137.33 92.0528 137.371 92.1566 137.412 92.2607ZM137.143 91.5938C137.092 91.4706 137.039 91.348 136.986 91.2256C137.039 91.348 137.092 91.4706 137.143 91.5938ZM136.833 90.8799C136.783 90.769 136.733 90.6581 136.681 90.5479C136.733 90.6581 136.783 90.769 136.833 90.8799ZM136.489 90.1436C136.438 90.038 136.385 89.933 136.333 89.8281C136.385 89.933 136.437 90.038 136.489 90.1436ZM136.177 89.5225C136.116 89.4032 136.053 89.2844 135.99 89.166C136.053 89.2844 136.116 89.4032 136.177 89.5225ZM135.781 88.7803C135.727 88.6825 135.671 88.5854 135.616 88.4883C135.671 88.5854 135.727 88.6825 135.781 88.7803ZM135.432 88.1709C135.361 88.0495 135.288 87.9289 135.215 87.8086C135.288 87.9289 135.361 88.0495 135.432 88.1709ZM135.035 87.5137C134.965 87.4023 134.894 87.292 134.823 87.1816C134.894 87.292 134.965 87.4023 135.035 87.5137ZM134.615 86.8613C134.548 86.7611 134.48 86.6619 134.413 86.5625C134.48 86.6619 134.548 86.7611 134.615 86.8613ZM134.175 86.2178C134.101 86.1125 134.025 86.0086 133.95 85.9043C134.025 86.0086 134.101 86.1125 134.175 86.2178ZM133.736 85.6104C133.655 85.5021 133.573 85.3952 133.491 85.2881C133.573 85.3952 133.655 85.5021 133.736 85.6104ZM133.26 84.9893C133.196 84.9073 133.13 84.8264 133.064 84.7451C133.13 84.8264 133.196 84.9073 133.26 84.9893ZM132.778 84.3936C132.699 84.2983 132.617 84.2046 132.537 84.1104C132.617 84.2046 132.699 84.2983 132.778 84.3936ZM132.279 83.8105C132.193 83.7126 132.105 83.6163 132.017 83.5195C132.105 83.6163 132.193 83.7126 132.279 83.8105ZM131.78 83.2578C131.695 83.1663 131.608 83.0768 131.522 82.9863C131.608 83.0768 131.695 83.1663 131.78 83.2578ZM128.958 80.6016C129.36 80.9314 129.752 81.2716 130.133 81.6211C129.752 81.2716 129.36 80.9314 128.958 80.6016ZM142.072 53.1709L142.015 53.1768H63.9321C63.3305 53.1769 62.9834 53.5929 62.9546 53.915C62.9554 53.9191 62.9558 53.9234 62.9565 53.9277C62.957 53.9301 62.9571 53.933 62.9575 53.9355C62.9793 54.0186 62.9902 54.0938 62.9956 54.1543C62.9963 54.1574 62.9968 54.1609 62.9976 54.1641C62.999 54.1701 63.0001 54.1764 63.0015 54.1826C63.0043 54.1926 63.0071 54.2018 63.0093 54.21C63.0111 54.2168 63.0125 54.2238 63.0142 54.2305C63.0202 54.2443 63.0278 54.2582 63.0337 54.2734C63.1443 54.4905 63.3388 54.6466 63.5356 54.7119L63.603 54.7334C63.6121 54.736 63.6225 54.7382 63.6323 54.7412C63.6594 54.7496 63.6915 54.7612 63.7271 54.7754L120.636 74.793L142.078 53.4756C142.12 53.43 142.139 53.3968 142.147 53.3799C142.155 53.3627 142.156 53.3519 142.157 53.3467C142.157 53.3404 142.158 53.3314 142.156 53.3203L142.142 53.2793L142.124 53.2393L142.108 53.1963C142.104 53.1862 142.1 53.1776 142.096 53.1699C142.089 53.1703 142.081 53.1699 142.072 53.1709ZM59.9106 63.9756L60.2759 64.0918C60.0221 64.0161 59.7933 63.9408 59.5649 63.8398C59.679 63.8902 59.7934 63.9346 59.9106 63.9756ZM61.9878 53.6318C61.9794 53.6713 61.9707 53.7107 61.9653 53.751C61.9707 53.7107 61.9794 53.6713 61.9878 53.6318Z" fill="#A8A8A8"/>
</svg>
