<svg width="342" height="68" viewBox="0 0 342 68" fill="none" xmlns="http://www.w3.org/2000/svg">
<rect width="342" height="68" rx="12" fill="#E1E1E1"/>
<g opacity="0.4">
<path d="M60.8551 33V31.9759L66.2095 24.1406H60.8104V22.8182H68.0888V23.8423L62.7344 31.6776H68.1335V33H60.8551ZM72.163 33.169C71.6791 33.169 71.2416 33.0795 70.8505 32.9006C70.4594 32.7183 70.1495 32.4548 69.9208 32.1101C69.6954 31.7654 69.5827 31.3428 69.5827 30.8423C69.5827 30.4115 69.6656 30.0568 69.8313 29.7784C69.997 29.5 70.2208 29.2796 70.5025 29.1172C70.7842 28.9548 71.0991 28.8321 71.4471 28.7493C71.7951 28.6664 72.1497 28.6035 72.511 28.5604C72.9684 28.5073 73.3396 28.4643 73.6246 28.4311C73.9097 28.3946 74.1168 28.3366 74.2461 28.2571C74.3754 28.1776 74.44 28.0483 74.44 27.8693V27.8345C74.44 27.4003 74.3174 27.0639 74.0721 26.8253C73.8301 26.5866 73.4689 26.4673 72.9883 26.4673C72.4878 26.4673 72.0934 26.5784 71.805 26.8004C71.52 27.0192 71.3228 27.2628 71.2134 27.5312L69.8164 27.2131C69.9821 26.7491 70.2241 26.3745 70.5423 26.0895C70.8638 25.8011 71.2333 25.5923 71.6509 25.4631C72.0685 25.3305 72.5077 25.2642 72.9684 25.2642C73.2733 25.2642 73.5965 25.3007 73.9379 25.3736C74.2826 25.4432 74.604 25.5724 74.9023 25.7614C75.204 25.9503 75.4509 26.2204 75.6431 26.5717C75.8353 26.9197 75.9315 27.3722 75.9315 27.929V33H74.4798V31.956H74.4201C74.324 32.1482 74.1798 32.3371 73.9876 32.5227C73.7953 32.7083 73.5484 32.8625 73.2468 32.9851C72.9452 33.1077 72.5839 33.169 72.163 33.169ZM72.4862 31.9759C72.8971 31.9759 73.2485 31.8946 73.5401 31.7322C73.8351 31.5698 74.0588 31.3577 74.2113 31.0959C74.3671 30.8307 74.445 30.5473 74.445 30.2457V29.2614C74.3919 29.3144 74.2892 29.3641 74.1367 29.4105C73.9876 29.4536 73.8169 29.4917 73.6246 29.5249C73.4324 29.5547 73.2451 29.5829 73.0629 29.6094C72.8806 29.6326 72.7281 29.6525 72.6055 29.669C72.3171 29.7055 72.0536 29.7668 71.815 29.853C71.5797 29.9392 71.3907 30.0634 71.2482 30.2259C71.109 30.3849 71.0394 30.5971 71.0394 30.8622C71.0394 31.2301 71.1753 31.5085 71.4471 31.6974C71.7189 31.883 72.0652 31.9759 72.4862 31.9759ZM77.9114 35.8636V25.3636H79.3631V26.6016H79.4874C79.5736 26.4425 79.6979 26.2585 79.8603 26.0497C80.0227 25.8409 80.248 25.6586 80.5364 25.5028C80.8248 25.3438 81.2059 25.2642 81.6799 25.2642C82.2963 25.2642 82.8465 25.42 83.3304 25.7315C83.8143 26.0431 84.1938 26.4922 84.4689 27.0788C84.7473 27.6655 84.8865 28.3714 84.8865 29.1967C84.8865 30.022 84.749 30.7296 84.4739 31.3196C84.1988 31.9062 83.821 32.3587 83.3404 32.6768C82.8598 32.9917 82.3113 33.1491 81.6948 33.1491C81.2308 33.1491 80.8513 33.0713 80.5563 32.9155C80.2646 32.7597 80.0359 32.5774 79.8702 32.3686C79.7045 32.1598 79.5769 31.9742 79.4874 31.8118H79.3979V35.8636H77.9114ZM79.3681 29.1818C79.3681 29.7187 79.446 30.1894 79.6017 30.5938C79.7575 30.9981 79.9829 31.3146 80.2779 31.5433C80.5729 31.7687 80.9341 31.8814 81.3617 31.8814C81.8058 31.8814 82.177 31.7637 82.4753 31.5284C82.7736 31.2898 82.999 30.9666 83.1515 30.5589C83.3072 30.1513 83.3851 29.6922 83.3851 29.1818C83.3851 28.678 83.3089 28.2256 83.1564 27.8246C83.0073 27.4235 82.7819 27.107 82.4803 26.875C82.182 26.643 81.8091 26.527 81.3617 26.527C80.9308 26.527 80.5662 26.638 80.2679 26.8601C79.973 27.0821 79.7492 27.392 79.5968 27.7898C79.4443 28.1875 79.3681 28.6515 79.3681 29.1818ZM92.2743 27.228L90.927 27.4666C90.8707 27.2943 90.7812 27.1302 90.6586 26.9744C90.5392 26.8187 90.3768 26.6911 90.1713 26.5916C89.9659 26.4922 89.709 26.4425 89.4007 26.4425C88.9798 26.4425 88.6285 26.5369 88.3468 26.7259C88.065 26.9115 87.9242 27.1518 87.9242 27.4467C87.9242 27.7019 88.0186 27.9074 88.2076 28.0632C88.3965 28.219 88.7014 28.3466 89.1223 28.446L90.3354 28.7244C91.0381 28.8868 91.5617 29.1371 91.9064 29.4751C92.2511 29.8132 92.4235 30.2524 92.4235 30.7926C92.4235 31.25 92.2909 31.6577 92.0257 32.0156C91.7639 32.3703 91.3977 32.6487 90.927 32.8509C90.4597 33.053 89.9178 33.1541 89.3013 33.1541C88.4462 33.1541 87.7485 32.9718 87.2083 32.6072C86.668 32.2393 86.3366 31.7173 86.214 31.0412L87.6507 30.8224C87.7402 31.197 87.9242 31.4804 88.2026 31.6726C88.481 31.8615 88.8439 31.956 89.2914 31.956C89.7786 31.956 90.168 31.8549 90.4597 31.6527C90.7514 31.4472 90.8972 31.197 90.8972 30.902C90.8972 30.6634 90.8077 30.4628 90.6287 30.3004C90.4531 30.138 90.1829 30.0154 89.8184 29.9325L88.5257 29.6491C87.8132 29.4867 87.2862 29.2282 86.9448 28.8736C86.6067 28.5189 86.4377 28.0698 86.4377 27.5263C86.4377 27.0755 86.5636 26.6811 86.8155 26.343C87.0674 26.005 87.4154 25.7415 87.8596 25.5526C88.3037 25.3603 88.8124 25.2642 89.3858 25.2642C90.2111 25.2642 90.8607 25.4432 91.3347 25.8011C91.8087 26.1558 92.1219 26.6314 92.2743 27.228ZM97.6225 25.3636V26.5568H93.4513V25.3636H97.6225ZM94.57 23.5341H96.0565V30.7578C96.0565 31.0462 96.0996 31.2633 96.1857 31.4091C96.2719 31.5516 96.3829 31.6494 96.5188 31.7024C96.658 31.7521 96.8088 31.777 96.9712 31.777C97.0906 31.777 97.195 31.7687 97.2844 31.7521C97.3739 31.7356 97.4435 31.7223 97.4933 31.7124L97.7617 32.9403C97.6755 32.9735 97.5529 33.0066 97.3938 33.0398C97.2347 33.0762 97.0359 33.0961 96.7972 33.0994C96.4061 33.1061 96.0415 33.0365 95.7035 32.8906C95.3654 32.7448 95.092 32.5194 94.8832 32.2145C94.6744 31.9096 94.57 31.5268 94.57 31.0661V23.5341ZM102.401 33.1541C101.686 33.1541 101.061 32.9901 100.527 32.6619C99.9935 32.3338 99.5792 31.8748 99.2843 31.2848C98.9893 30.6948 98.8418 30.0054 98.8418 29.2166C98.8418 28.4245 98.9893 27.7318 99.2843 27.1385C99.5792 26.5452 99.9935 26.0845 100.527 25.7564C101.061 25.4283 101.686 25.2642 102.401 25.2642C103.117 25.2642 103.742 25.4283 104.276 25.7564C104.809 26.0845 105.224 26.5452 105.519 27.1385C105.814 27.7318 105.961 28.4245 105.961 29.2166C105.961 30.0054 105.814 30.6948 105.519 31.2848C105.224 31.8748 104.809 32.3338 104.276 32.6619C103.742 32.9901 103.117 33.1541 102.401 33.1541ZM102.406 31.9062C102.87 31.9062 103.255 31.7836 103.56 31.5384C103.865 31.2931 104.09 30.9666 104.236 30.5589C104.385 30.1513 104.46 29.7022 104.46 29.2116C104.46 28.7244 104.385 28.277 104.236 27.8693C104.09 27.4583 103.865 27.1286 103.56 26.88C103.255 26.6314 102.87 26.5071 102.406 26.5071C101.939 26.5071 101.551 26.6314 101.243 26.88C100.938 27.1286 100.711 27.4583 100.562 27.8693C100.416 28.277 100.343 28.7244 100.343 29.2116C100.343 29.7022 100.416 30.1513 100.562 30.5589C100.711 30.9666 100.938 31.2931 101.243 31.5384C101.551 31.7836 101.939 31.9062 102.406 31.9062ZM107.62 33V25.3636H109.057V26.5767H109.137C109.276 26.1657 109.521 25.8426 109.873 25.6072C110.227 25.3686 110.628 25.2493 111.076 25.2493C111.168 25.2493 111.278 25.2526 111.404 25.2592C111.533 25.2659 111.634 25.2741 111.707 25.2841V26.706C111.647 26.6894 111.541 26.6712 111.389 26.6513C111.236 26.6281 111.084 26.6165 110.931 26.6165C110.58 26.6165 110.267 26.6911 109.992 26.8402C109.72 26.986 109.505 27.1899 109.346 27.4517C109.186 27.7102 109.107 28.0052 109.107 28.3366V33H107.62ZM116.011 33.1541C115.259 33.1541 114.611 32.9934 114.067 32.6719C113.527 32.3471 113.109 31.8913 112.814 31.3047C112.523 30.7147 112.377 30.0237 112.377 29.2315C112.377 28.4493 112.523 27.7599 112.814 27.1634C113.109 26.5668 113.52 26.1011 114.047 25.7663C114.578 25.4316 115.198 25.2642 115.907 25.2642C116.338 25.2642 116.755 25.3355 117.16 25.478C117.564 25.6205 117.927 25.8442 118.248 26.1491C118.57 26.4541 118.823 26.8501 119.009 27.3374C119.195 27.8213 119.287 28.4096 119.287 29.1023V29.6293H113.217V28.5156H117.831C117.831 28.1245 117.751 27.7782 117.592 27.4766C117.433 27.1716 117.209 26.9313 116.921 26.7557C116.636 26.58 116.301 26.4922 115.917 26.4922C115.499 26.4922 115.135 26.5949 114.823 26.8004C114.515 27.0026 114.276 27.2678 114.107 27.5959C113.941 27.9207 113.858 28.2737 113.858 28.6548V29.5249C113.858 30.0353 113.948 30.4695 114.127 30.8274C114.309 31.1854 114.563 31.4588 114.888 31.6477C115.212 31.8333 115.592 31.9261 116.026 31.9261C116.308 31.9261 116.565 31.8864 116.797 31.8068C117.029 31.724 117.229 31.6013 117.398 31.4389C117.567 31.2765 117.697 31.076 117.786 30.8374L119.193 31.0909C119.08 31.5052 118.878 31.8681 118.586 32.1797C118.298 32.4879 117.935 32.7282 117.498 32.9006C117.064 33.0696 116.568 33.1541 116.011 33.1541Z" fill="#202428"/>
</g>
<path opacity="0.4" d="M61.4134 48H60.2486L62.8658 40.7273H64.1335L66.7507 48H65.5859L63.5298 42.0483H63.473L61.4134 48ZM61.6087 45.152H65.3871V46.0753H61.6087V45.152ZM68.7775 40.7273V48H67.7157V40.7273H68.7775ZM71.2678 40.7273V48H70.206V40.7273H71.2678ZM74.9938 48.1101C74.4824 48.1101 74.0362 47.9929 73.655 47.7585C73.2739 47.5241 72.9779 47.1963 72.7672 46.7749C72.5565 46.3535 72.4512 45.861 72.4512 45.2976C72.4512 44.7318 72.5565 44.237 72.7672 43.8132C72.9779 43.3894 73.2739 43.0604 73.655 42.826C74.0362 42.5916 74.4824 42.4744 74.9938 42.4744C75.5051 42.4744 75.9514 42.5916 76.3326 42.826C76.7137 43.0604 77.0096 43.3894 77.2203 43.8132C77.431 44.237 77.5364 44.7318 77.5364 45.2976C77.5364 45.861 77.431 46.3535 77.2203 46.7749C77.0096 47.1963 76.7137 47.5241 76.3326 47.7585C75.9514 47.9929 75.5051 48.1101 74.9938 48.1101ZM74.9973 47.2188C75.3288 47.2188 75.6034 47.1312 75.8212 46.956C76.039 46.7808 76.2 46.5476 76.3042 46.2564C76.4107 45.9652 76.464 45.6444 76.464 45.294C76.464 44.946 76.4107 44.6264 76.3042 44.3352C76.2 44.0417 76.039 43.8061 75.8212 43.6286C75.6034 43.451 75.3288 43.3622 74.9973 43.3622C74.6635 43.3622 74.3865 43.451 74.1664 43.6286C73.9486 43.8061 73.7864 44.0417 73.6799 44.3352C73.5757 44.6264 73.5236 44.946 73.5236 45.294C73.5236 45.6444 73.5757 45.9652 73.6799 46.2564C73.7864 46.5476 73.9486 46.7808 74.1664 46.956C74.3865 47.1312 74.6635 47.2188 74.9973 47.2188ZM79.7381 48L78.133 42.5455H79.2303L80.2992 46.5511H80.3525L81.4249 42.5455H82.5222L83.5875 46.5334H83.6408L84.7026 42.5455H85.7999L84.1983 48H83.1152L82.0073 44.0618H81.9256L80.8176 48H79.7381ZM92.0499 42.5455V43.3977H88.9675V42.5455H92.0499ZM89.8127 48V41.9134C89.8127 41.5724 89.8873 41.2895 90.0364 41.0646C90.1855 40.8374 90.3832 40.6681 90.6294 40.5568C90.8757 40.4432 91.1432 40.3864 91.432 40.3864C91.6451 40.3864 91.8274 40.4041 91.9789 40.4396C92.1304 40.4728 92.2428 40.5036 92.3162 40.532L92.0676 41.3913C92.0179 41.3771 91.954 41.3606 91.8759 41.3416C91.7978 41.3203 91.7031 41.3097 91.5918 41.3097C91.3337 41.3097 91.1491 41.3736 91.0378 41.5014C90.9289 41.6293 90.8745 41.8139 90.8745 42.0554V48H89.8127ZM93.1454 48V42.5455H94.1717V43.4119H94.2285C94.3279 43.1184 94.5031 42.8875 94.7541 42.7195C95.0074 42.549 95.2939 42.4638 95.6135 42.4638C95.6797 42.4638 95.7579 42.4661 95.8478 42.4709C95.9402 42.4756 96.0124 42.4815 96.0645 42.4886V43.5043C96.0218 43.4924 95.9461 43.4794 95.8372 43.4652C95.7283 43.4486 95.6194 43.4403 95.5105 43.4403C95.2595 43.4403 95.0358 43.4936 94.8393 43.6001C94.6452 43.7043 94.4913 43.8499 94.3777 44.0369C94.264 44.2216 94.2072 44.4323 94.2072 44.669V48H93.1454ZM99.0856 48.1101C98.5742 48.1101 98.128 47.9929 97.7468 47.7585C97.3656 47.5241 97.0697 47.1963 96.859 46.7749C96.6483 46.3535 96.543 45.861 96.543 45.2976C96.543 44.7318 96.6483 44.237 96.859 43.8132C97.0697 43.3894 97.3656 43.0604 97.7468 42.826C98.128 42.5916 98.5742 42.4744 99.0856 42.4744C99.5969 42.4744 100.043 42.5916 100.424 42.826C100.806 43.0604 101.101 43.3894 101.312 43.8132C101.523 44.237 101.628 44.7318 101.628 45.2976C101.628 45.861 101.523 46.3535 101.312 46.7749C101.101 47.1963 100.806 47.5241 100.424 47.7585C100.043 47.9929 99.5969 48.1101 99.0856 48.1101ZM99.0891 47.2188C99.4206 47.2188 99.6952 47.1312 99.913 46.956C100.131 46.7808 100.292 46.5476 100.396 46.2564C100.502 45.9652 100.556 45.6444 100.556 45.294C100.556 44.946 100.502 44.6264 100.396 44.3352C100.292 44.0417 100.131 43.8061 99.913 43.6286C99.6952 43.451 99.4206 43.3622 99.0891 43.3622C98.7553 43.3622 98.4783 43.451 98.2582 43.6286C98.0404 43.8061 97.8782 44.0417 97.7717 44.3352C97.6675 44.6264 97.6154 44.946 97.6154 45.294C97.6154 45.6444 97.6675 45.9652 97.7717 46.2564C97.8782 46.5476 98.0404 46.7808 98.2582 46.956C98.4783 47.1312 98.7553 47.2188 99.0891 47.2188ZM102.813 48V42.5455H103.833V43.4332H103.9C104.014 43.1326 104.2 42.8982 104.458 42.7301C104.716 42.5597 105.025 42.4744 105.384 42.4744C105.749 42.4744 106.054 42.5597 106.301 42.7301C106.549 42.9006 106.733 43.1349 106.851 43.4332H106.908C107.038 43.142 107.245 42.91 107.529 42.7372C107.813 42.562 108.152 42.4744 108.545 42.4744C109.04 42.4744 109.443 42.6295 109.756 42.9396C110.071 43.2498 110.228 43.7173 110.228 44.3423V48H109.166V44.4418C109.166 44.0724 109.066 43.8049 108.865 43.6392C108.663 43.4735 108.423 43.3906 108.144 43.3906C107.798 43.3906 107.529 43.4972 107.338 43.7102C107.146 43.9209 107.05 44.192 107.05 44.5234V48H105.992V44.3743C105.992 44.0784 105.899 43.8404 105.715 43.6605C105.53 43.4806 105.29 43.3906 104.994 43.3906C104.793 43.3906 104.607 43.4439 104.436 43.5504C104.268 43.6546 104.132 43.8002 104.028 43.9872C103.926 44.1742 103.875 44.3909 103.875 44.6371V48H102.813ZM116.844 42.5455V43.3977H113.865V42.5455H116.844ZM114.664 41.2386H115.725V46.3984C115.725 46.6044 115.756 46.7595 115.818 46.8636C115.879 46.9654 115.959 47.0353 116.056 47.0732C116.155 47.1087 116.263 47.1264 116.379 47.1264C116.464 47.1264 116.539 47.1205 116.602 47.1087C116.666 47.0968 116.716 47.0874 116.752 47.0803L116.943 47.9574C116.882 47.9811 116.794 48.0047 116.681 48.0284C116.567 48.0545 116.425 48.0687 116.254 48.071C115.975 48.0758 115.715 48.026 115.473 47.9219C115.232 47.8177 115.036 47.6567 114.887 47.4389C114.738 47.2211 114.664 46.9477 114.664 46.6186V41.2386ZM119.197 44.7614V48H118.136V40.7273H119.183V43.4332H119.251C119.379 43.1397 119.574 42.9065 119.837 42.7337C120.099 42.5608 120.443 42.4744 120.866 42.4744C121.241 42.4744 121.567 42.5514 121.847 42.7053C122.128 42.8591 122.346 43.0888 122.5 43.3942C122.656 43.6972 122.734 44.076 122.734 44.5305V48H121.673V44.6584C121.673 44.2583 121.57 43.9482 121.364 43.728C121.158 43.5054 120.871 43.3942 120.504 43.3942C120.253 43.3942 120.028 43.4474 119.83 43.554C119.633 43.6605 119.478 43.8168 119.364 44.0227C119.253 44.2263 119.197 44.4725 119.197 44.7614ZM124.151 48V42.5455H125.213V48H124.151ZM124.688 41.7038C124.503 41.7038 124.344 41.6423 124.212 41.5192C124.081 41.3937 124.016 41.2446 124.016 41.0717C124.016 40.8965 124.081 40.7474 124.212 40.6243C124.344 40.4988 124.503 40.4361 124.688 40.4361C124.872 40.4361 125.03 40.4988 125.16 40.6243C125.292 40.7474 125.359 40.8965 125.359 41.0717C125.359 41.2446 125.292 41.3937 125.16 41.5192C125.03 41.6423 124.872 41.7038 124.688 41.7038ZM130.729 43.8771L129.767 44.0476C129.726 43.9245 129.662 43.8073 129.575 43.696C129.49 43.5848 129.374 43.4936 129.227 43.4226C129.08 43.3516 128.896 43.3161 128.676 43.3161C128.376 43.3161 128.125 43.3835 127.923 43.5185C127.722 43.651 127.622 43.8227 127.622 44.0334C127.622 44.2157 127.689 44.3625 127.824 44.4737C127.959 44.585 128.177 44.6761 128.477 44.7472L129.344 44.946C129.846 45.062 130.22 45.2408 130.466 45.4822C130.712 45.7237 130.835 46.0374 130.835 46.4233C130.835 46.75 130.741 47.0412 130.551 47.2969C130.364 47.5502 130.103 47.7491 129.767 47.8935C129.433 48.0379 129.046 48.1101 128.605 48.1101C127.994 48.1101 127.496 47.9799 127.11 47.7195C126.724 47.4567 126.488 47.0838 126.4 46.6009L127.426 46.4446C127.49 46.7121 127.622 46.9145 127.82 47.0518C128.019 47.1868 128.279 47.2543 128.598 47.2543C128.946 47.2543 129.224 47.1821 129.433 47.0376C129.641 46.8909 129.745 46.7121 129.745 46.5014C129.745 46.331 129.681 46.1877 129.553 46.0717C129.428 45.9557 129.235 45.8681 128.975 45.8089L128.051 45.6065C127.542 45.4905 127.166 45.3059 126.922 45.0526C126.681 44.7992 126.56 44.4785 126.56 44.0902C126.56 43.7682 126.65 43.4865 126.83 43.245C127.01 43.0036 127.258 42.8153 127.575 42.6804C127.893 42.5431 128.256 42.4744 128.666 42.4744C129.255 42.4744 129.719 42.6023 130.058 42.858C130.396 43.1113 130.62 43.451 130.729 43.8771ZM138.737 43.8771L137.774 44.0476C137.734 43.9245 137.67 43.8073 137.583 43.696C137.497 43.5848 137.381 43.4936 137.235 43.4226C137.088 43.3516 136.904 43.3161 136.684 43.3161C136.383 43.3161 136.133 43.3835 135.931 43.5185C135.73 43.651 135.629 43.8227 135.629 44.0334C135.629 44.2157 135.697 44.3625 135.832 44.4737C135.967 44.585 136.185 44.6761 136.485 44.7472L137.352 44.946C137.854 45.062 138.228 45.2408 138.474 45.4822C138.72 45.7237 138.843 46.0374 138.843 46.4233C138.843 46.75 138.749 47.0412 138.559 47.2969C138.372 47.5502 138.11 47.7491 137.774 47.8935C137.441 48.0379 137.053 48.1101 136.613 48.1101C136.002 48.1101 135.504 47.9799 135.118 47.7195C134.732 47.4567 134.495 47.0838 134.408 46.6009L135.434 46.4446C135.498 46.7121 135.629 46.9145 135.828 47.0518C136.027 47.1868 136.286 47.2543 136.606 47.2543C136.954 47.2543 137.232 47.1821 137.441 47.0376C137.649 46.8909 137.753 46.7121 137.753 46.5014C137.753 46.331 137.689 46.1877 137.561 46.0717C137.436 45.9557 137.243 45.8681 136.982 45.8089L136.059 45.6065C135.55 45.4905 135.174 45.3059 134.93 45.0526C134.688 44.7992 134.568 44.4785 134.568 44.0902C134.568 43.7682 134.658 43.4865 134.838 43.245C135.017 43.0036 135.266 42.8153 135.583 42.6804C135.901 42.5431 136.264 42.4744 136.673 42.4744C137.263 42.4744 137.727 42.6023 138.066 42.858C138.404 43.1113 138.628 43.451 138.737 43.8771ZM142.308 48.1101C141.797 48.1101 141.351 47.9929 140.969 47.7585C140.588 47.5241 140.292 47.1963 140.082 46.7749C139.871 46.3535 139.766 45.861 139.766 45.2976C139.766 44.7318 139.871 44.237 140.082 43.8132C140.292 43.3894 140.588 43.0604 140.969 42.826C141.351 42.5916 141.797 42.4744 142.308 42.4744C142.82 42.4744 143.266 42.5916 143.647 42.826C144.028 43.0604 144.324 43.3894 144.535 43.8132C144.746 44.237 144.851 44.7318 144.851 45.2976C144.851 45.861 144.746 46.3535 144.535 46.7749C144.324 47.1963 144.028 47.5241 143.647 47.7585C143.266 47.9929 142.82 48.1101 142.308 48.1101ZM142.312 47.2188C142.643 47.2188 142.918 47.1312 143.136 46.956C143.353 46.7808 143.514 46.5476 143.619 46.2564C143.725 45.9652 143.778 45.6444 143.778 45.294C143.778 44.946 143.725 44.6264 143.619 44.3352C143.514 44.0417 143.353 43.8061 143.136 43.6286C142.918 43.451 142.643 43.3622 142.312 43.3622C141.978 43.3622 141.701 43.451 141.481 43.6286C141.263 43.8061 141.101 44.0417 140.994 44.3352C140.89 44.6264 140.838 44.946 140.838 45.294C140.838 45.6444 140.89 45.9652 140.994 46.2564C141.101 46.5476 141.263 46.7808 141.481 46.956C141.701 47.1312 141.978 47.2188 142.312 47.2188ZM149.491 45.7379V42.5455H150.557V48H149.513V47.0554H149.456C149.33 47.3466 149.129 47.5893 148.852 47.7834C148.577 47.9751 148.235 48.071 147.826 48.071C147.475 48.071 147.165 47.9941 146.895 47.8402C146.628 47.6839 146.417 47.4531 146.263 47.1477C146.112 46.8423 146.036 46.4647 146.036 46.0149V42.5455H147.098V45.8871C147.098 46.2588 147.201 46.5547 147.407 46.7749C147.613 46.995 147.88 47.1051 148.209 47.1051C148.408 47.1051 148.606 47.0554 148.802 46.956C149.001 46.8565 149.166 46.7062 149.296 46.505C149.429 46.3037 149.494 46.0481 149.491 45.7379ZM151.983 48V42.5455H153.01V43.4119H153.066C153.166 43.1184 153.341 42.8875 153.592 42.7195C153.845 42.549 154.132 42.4638 154.451 42.4638C154.518 42.4638 154.596 42.4661 154.686 42.4709C154.778 42.4756 154.85 42.4815 154.902 42.4886V43.5043C154.86 43.4924 154.784 43.4794 154.675 43.4652C154.566 43.4486 154.457 43.4403 154.348 43.4403C154.097 43.4403 153.874 43.4936 153.677 43.6001C153.483 43.7043 153.329 43.8499 153.216 44.0369C153.102 44.2216 153.045 44.4323 153.045 44.669V48H151.983ZM157.923 48.1101C157.396 48.1101 156.941 47.9905 156.56 47.7514C156.181 47.5099 155.89 47.1773 155.686 46.7536C155.483 46.3298 155.381 45.8445 155.381 45.2976C155.381 44.7436 155.485 44.2547 155.693 43.831C155.902 43.4048 156.195 43.0722 156.574 42.8331C156.953 42.594 157.399 42.4744 157.913 42.4744C158.327 42.4744 158.696 42.5514 159.021 42.7053C159.345 42.8568 159.607 43.0698 159.806 43.3445C160.007 43.6191 160.126 43.9399 160.164 44.3068H159.131C159.074 44.0511 158.944 43.831 158.74 43.6463C158.539 43.4616 158.269 43.3693 157.931 43.3693C157.635 43.3693 157.375 43.4474 157.153 43.6037C156.933 43.7576 156.761 43.9777 156.638 44.2642C156.515 44.5483 156.453 44.8845 156.453 45.2727C156.453 45.6705 156.514 46.0137 156.634 46.3026C156.755 46.5914 156.926 46.8151 157.146 46.9737C157.368 47.1323 157.63 47.2116 157.931 47.2116C158.132 47.2116 158.314 47.175 158.477 47.1016C158.643 47.0258 158.782 46.9181 158.893 46.7784C159.007 46.6387 159.086 46.4706 159.131 46.2741H160.164C160.126 46.6269 160.012 46.9418 159.82 47.2188C159.628 47.4957 159.371 47.7135 159.049 47.8722C158.73 48.0308 158.354 48.1101 157.923 48.1101ZM163.651 48.1101C163.113 48.1101 162.65 47.9953 162.262 47.7656C161.876 47.5336 161.578 47.2081 161.367 46.7891C161.159 46.3677 161.055 45.8741 161.055 45.3082C161.055 44.7495 161.159 44.2571 161.367 43.831C161.578 43.4048 161.871 43.0722 162.248 42.8331C162.627 42.594 163.069 42.4744 163.576 42.4744C163.884 42.4744 164.182 42.5253 164.471 42.6271C164.76 42.7289 165.019 42.8887 165.249 43.1065C165.478 43.3243 165.659 43.6072 165.792 43.9553C165.924 44.3009 165.991 44.7211 165.991 45.2159V45.5923H161.655V44.7969H164.95C164.95 44.5175 164.893 44.2701 164.78 44.0547C164.666 43.8369 164.506 43.6652 164.3 43.5398C164.097 43.4143 163.858 43.3516 163.583 43.3516C163.285 43.3516 163.024 43.425 162.802 43.5717C162.582 43.7161 162.411 43.9055 162.29 44.1399C162.172 44.3719 162.113 44.6241 162.113 44.8963V45.5178C162.113 45.8823 162.177 46.1925 162.305 46.4482C162.435 46.7038 162.616 46.8991 162.848 47.0341C163.08 47.1667 163.351 47.233 163.661 47.233C163.862 47.233 164.046 47.2045 164.212 47.1477C164.377 47.0885 164.521 47.0009 164.641 46.8849C164.762 46.7689 164.854 46.6257 164.918 46.4553L165.923 46.6364C165.843 46.9323 165.698 47.1915 165.49 47.4141C165.284 47.6342 165.025 47.8059 164.712 47.929C164.402 48.0497 164.048 48.1101 163.651 48.1101Z" fill="#202428"/>
<g opacity="0.4">
<rect x="18" y="20" width="29" height="29" rx="14.5" fill="#202428"/>
<g clip-path="url(#clip0_16_146)">
<path d="M36.783 32.7223L31.3462 25.3115C31.0496 24.9072 30.3963 25.1876 30.5033 25.6733L31.4536 29.9851C31.5166 30.2711 31.2914 30.5405 30.9907 30.5386L27.0034 30.5144C26.6354 30.5122 26.4074 30.9033 26.5983 31.2094L30.7191 37.8163C30.8836 38.08 30.7383 38.4232 30.4306 38.4977L29.4738 38.7296C29.0886 38.8229 28.9881 39.3097 29.3063 39.5405L33.3099 42.4445C33.5811 42.6412 33.9706 42.5036 34.0488 42.1834L35.1569 37.6451C35.2457 37.2811 34.8726 36.9728 34.5177 37.1171L33.6413 37.4736C33.3669 37.5852 33.0561 37.4241 32.9984 37.1403L32.3818 34.111C32.3254 33.8343 32.5374 33.5744 32.8272 33.5647L36.4161 33.4455C36.7911 33.4331 37.0009 33.0194 36.783 32.7223Z" fill="white"/>
</g>
</g>
<g clip-path="url(#clip1_16_146)">
<path d="M291 33C291 27.4772 295.477 23 301 23H317C322.523 23 327 27.4772 327 33V33C327 38.5228 322.523 43 317 43H301C295.477 43 291 38.5228 291 33V33Z" fill="#1D89E5"/>
<g filter="url(#filter0_dd_16_146)">
<path d="M309 33C309 28.5817 312.582 25 317 25V25C321.418 25 325 28.5817 325 33V33C325 37.4183 321.418 41 317 41V41C312.582 41 309 37.4183 309 33V33Z" fill="white"/>
</g>
</g>
<defs>
<filter id="filter0_dd_16_146" x="306" y="23" width="22" height="22" filterUnits="userSpaceOnUse" color-interpolation-filters="sRGB">
<feFlood flood-opacity="0" result="BackgroundImageFix"/>
<feColorMatrix in="SourceAlpha" type="matrix" values="0 0 0 0 0 0 0 0 0 0 0 0 0 0 0 0 0 0 127 0" result="hardAlpha"/>
<feMorphology radius="1" operator="erode" in="SourceAlpha" result="effect1_dropShadow_16_146"/>
<feOffset dy="1"/>
<feGaussianBlur stdDeviation="1"/>
<feColorMatrix type="matrix" values="0 0 0 0 0 0 0 0 0 0 0 0 0 0 0 0 0 0 0.1 0"/>
<feBlend mode="normal" in2="BackgroundImageFix" result="effect1_dropShadow_16_146"/>
<feColorMatrix in="SourceAlpha" type="matrix" values="0 0 0 0 0 0 0 0 0 0 0 0 0 0 0 0 0 0 127 0" result="hardAlpha"/>
<feOffset dy="1"/>
<feGaussianBlur stdDeviation="1.5"/>
<feColorMatrix type="matrix" values="0 0 0 0 0 0 0 0 0 0 0 0 0 0 0 0 0 0 0.1 0"/>
<feBlend mode="normal" in2="effect1_dropShadow_16_146" result="effect2_dropShadow_16_146"/>
<feBlend mode="normal" in="SourceGraphic" in2="effect2_dropShadow_16_146" result="shape"/>
</filter>
<clipPath id="clip0_16_146">
<rect width="10.3419" height="17.418" fill="white" transform="translate(26.5293 25.1177)"/>
</clipPath>
<clipPath id="clip1_16_146">
<path d="M291 33C291 27.4772 295.477 23 301 23H317C322.523 23 327 27.4772 327 33V33C327 38.5228 322.523 43 317 43H301C295.477 43 291 38.5228 291 33V33Z" fill="white"/>
</clipPath>
</defs>
</svg>
