<svg width="342" height="104" viewBox="0 0 342 104" fill="none" xmlns="http://www.w3.org/2000/svg">
<g clip-path="url(#clip0_13_944)">
<rect width="342" height="104" rx="12" fill="#E1E1E1"/>
<g opacity="0.4">
<rect x="18" y="13" width="17" height="17" rx="8.5" fill="#202428"/>
<g clip-path="url(#clip1_13_944)">
<path d="M29.0108 20.4579L25.8237 16.1136C25.6498 15.8766 25.2669 16.041 25.3296 16.3257L25.8867 18.8533C25.9236 19.021 25.7916 19.1789 25.6153 19.1778L23.2779 19.1636C23.0622 19.1623 22.9285 19.3916 23.0404 19.571L25.4561 23.444C25.5525 23.5986 25.4673 23.7998 25.287 23.8435L24.7261 23.9794C24.5003 24.0341 24.4414 24.3195 24.6279 24.4548L26.9748 26.1571C27.1338 26.2724 27.3622 26.1917 27.408 26.004L28.0576 23.3437C28.1096 23.1303 27.8909 22.9496 27.6829 23.0342L27.1691 23.2431C27.0082 23.3086 26.8261 23.2141 26.7922 23.0477L26.4308 21.2719C26.3977 21.1097 26.522 20.9574 26.6919 20.9517L28.7957 20.8818C29.0156 20.8745 29.1385 20.6321 29.0108 20.4579Z" fill="white"/>
</g>
<path d="M45.8551 27V25.9759L51.2095 18.1406H45.8104V16.8182H53.0888V17.8423L47.7344 25.6776H53.1335V27H45.8551ZM57.163 27.169C56.6791 27.169 56.2416 27.0795 55.8505 26.9006C55.4594 26.7183 55.1495 26.4548 54.9208 26.1101C54.6954 25.7654 54.5827 25.3428 54.5827 24.8423C54.5827 24.4115 54.6656 24.0568 54.8313 23.7784C54.997 23.5 55.2208 23.2796 55.5025 23.1172C55.7842 22.9548 56.0991 22.8321 56.4471 22.7493C56.7951 22.6664 57.1497 22.6035 57.511 22.5604C57.9684 22.5073 58.3396 22.4643 58.6246 22.4311C58.9097 22.3946 59.1168 22.3366 59.2461 22.2571C59.3754 22.1776 59.44 22.0483 59.44 21.8693V21.8345C59.44 21.4003 59.3174 21.0639 59.0721 20.8253C58.8301 20.5866 58.4689 20.4673 57.9883 20.4673C57.4878 20.4673 57.0934 20.5784 56.805 20.8004C56.52 21.0192 56.3228 21.2628 56.2134 21.5312L54.8164 21.2131C54.9821 20.7491 55.2241 20.3745 55.5423 20.0895C55.8638 19.8011 56.2333 19.5923 56.6509 19.4631C57.0685 19.3305 57.5077 19.2642 57.9684 19.2642C58.2733 19.2642 58.5965 19.3007 58.9379 19.3736C59.2826 19.4432 59.604 19.5724 59.9023 19.7614C60.204 19.9503 60.4509 20.2204 60.6431 20.5717C60.8353 20.9197 60.9315 21.3722 60.9315 21.929V27H59.4798V25.956H59.4201C59.324 26.1482 59.1798 26.3371 58.9876 26.5227C58.7953 26.7083 58.5484 26.8625 58.2468 26.9851C57.9452 27.1077 57.5839 27.169 57.163 27.169ZM57.4862 25.9759C57.8971 25.9759 58.2485 25.8946 58.5401 25.7322C58.8351 25.5698 59.0588 25.3577 59.2113 25.0959C59.3671 24.8307 59.445 24.5473 59.445 24.2457V23.2614C59.3919 23.3144 59.2892 23.3641 59.1367 23.4105C58.9876 23.4536 58.8169 23.4917 58.6246 23.5249C58.4324 23.5547 58.2451 23.5829 58.0629 23.6094C57.8806 23.6326 57.7281 23.6525 57.6055 23.669C57.3171 23.7055 57.0536 23.7668 56.815 23.853C56.5797 23.9392 56.3907 24.0634 56.2482 24.2259C56.109 24.3849 56.0394 24.5971 56.0394 24.8622C56.0394 25.2301 56.1753 25.5085 56.4471 25.6974C56.7189 25.883 57.0652 25.9759 57.4862 25.9759ZM62.9114 29.8636V19.3636H64.3631V20.6016H64.4874C64.5736 20.4425 64.6979 20.2585 64.8603 20.0497C65.0227 19.8409 65.248 19.6586 65.5364 19.5028C65.8248 19.3438 66.2059 19.2642 66.6799 19.2642C67.2963 19.2642 67.8465 19.42 68.3304 19.7315C68.8143 20.0431 69.1938 20.4922 69.4689 21.0788C69.7473 21.6655 69.8865 22.3714 69.8865 23.1967C69.8865 24.022 69.749 24.7296 69.4739 25.3196C69.1988 25.9062 68.821 26.3587 68.3404 26.6768C67.8598 26.9917 67.3113 27.1491 66.6948 27.1491C66.2308 27.1491 65.8513 27.0713 65.5563 26.9155C65.2646 26.7597 65.0359 26.5774 64.8702 26.3686C64.7045 26.1598 64.5769 25.9742 64.4874 25.8118H64.3979V29.8636H62.9114ZM64.3681 23.1818C64.3681 23.7187 64.446 24.1894 64.6017 24.5938C64.7575 24.9981 64.9829 25.3146 65.2779 25.5433C65.5729 25.7687 65.9341 25.8814 66.3617 25.8814C66.8058 25.8814 67.177 25.7637 67.4753 25.5284C67.7736 25.2898 67.999 24.9666 68.1515 24.5589C68.3072 24.1513 68.3851 23.6922 68.3851 23.1818C68.3851 22.678 68.3089 22.2256 68.1564 21.8246C68.0073 21.4235 67.7819 21.107 67.4803 20.875C67.182 20.643 66.8091 20.527 66.3617 20.527C65.9308 20.527 65.5662 20.638 65.2679 20.8601C64.973 21.0821 64.7492 21.392 64.5968 21.7898C64.4443 22.1875 64.3681 22.6515 64.3681 23.1818ZM77.2743 21.228L75.927 21.4666C75.8707 21.2943 75.7812 21.1302 75.6586 20.9744C75.5392 20.8187 75.3768 20.6911 75.1713 20.5916C74.9659 20.4922 74.709 20.4425 74.4007 20.4425C73.9798 20.4425 73.6285 20.5369 73.3468 20.7259C73.065 20.9115 72.9242 21.1518 72.9242 21.4467C72.9242 21.7019 73.0186 21.9074 73.2076 22.0632C73.3965 22.219 73.7014 22.3466 74.1223 22.446L75.3354 22.7244C76.0381 22.8868 76.5617 23.1371 76.9064 23.4751C77.2511 23.8132 77.4235 24.2524 77.4235 24.7926C77.4235 25.25 77.2909 25.6577 77.0257 26.0156C76.7639 26.3703 76.3977 26.6487 75.927 26.8509C75.4597 27.053 74.9178 27.1541 74.3013 27.1541C73.4462 27.1541 72.7485 26.9718 72.2083 26.6072C71.668 26.2393 71.3366 25.7173 71.214 25.0412L72.6507 24.8224C72.7402 25.197 72.9242 25.4804 73.2026 25.6726C73.481 25.8615 73.8439 25.956 74.2914 25.956C74.7786 25.956 75.168 25.8549 75.4597 25.6527C75.7514 25.4472 75.8972 25.197 75.8972 24.902C75.8972 24.6634 75.8077 24.4628 75.6287 24.3004C75.4531 24.138 75.1829 24.0154 74.8184 23.9325L73.5257 23.6491C72.8132 23.4867 72.2862 23.2282 71.9448 22.8736C71.6067 22.5189 71.4377 22.0698 71.4377 21.5263C71.4377 21.0755 71.5636 20.6811 71.8155 20.343C72.0674 20.005 72.4154 19.7415 72.8596 19.5526C73.3037 19.3603 73.8124 19.2642 74.3858 19.2642C75.2111 19.2642 75.8607 19.4432 76.3347 19.8011C76.8087 20.1558 77.1219 20.6314 77.2743 21.228ZM82.6225 19.3636V20.5568H78.4513V19.3636H82.6225ZM79.57 17.5341H81.0565V24.7578C81.0565 25.0462 81.0996 25.2633 81.1857 25.4091C81.2719 25.5516 81.3829 25.6494 81.5188 25.7024C81.658 25.7521 81.8088 25.777 81.9712 25.777C82.0906 25.777 82.195 25.7687 82.2844 25.7521C82.3739 25.7356 82.4435 25.7223 82.4933 25.7124L82.7617 26.9403C82.6755 26.9735 82.5529 27.0066 82.3938 27.0398C82.2347 27.0762 82.0359 27.0961 81.7972 27.0994C81.4061 27.1061 81.0415 27.0365 80.7035 26.8906C80.3654 26.7448 80.092 26.5194 79.8832 26.2145C79.6744 25.9096 79.57 25.5268 79.57 25.0661V17.5341ZM87.4015 27.1541C86.6855 27.1541 86.0608 26.9901 85.5272 26.6619C84.9935 26.3338 84.5792 25.8748 84.2843 25.2848C83.9893 24.6948 83.8418 24.0054 83.8418 23.2166C83.8418 22.4245 83.9893 21.7318 84.2843 21.1385C84.5792 20.5452 84.9935 20.0845 85.5272 19.7564C86.0608 19.4283 86.6855 19.2642 87.4015 19.2642C88.1174 19.2642 88.7421 19.4283 89.2757 19.7564C89.8094 20.0845 90.2237 20.5452 90.5186 21.1385C90.8136 21.7318 90.9611 22.4245 90.9611 23.2166C90.9611 24.0054 90.8136 24.6948 90.5186 25.2848C90.2237 25.8748 89.8094 26.3338 89.2757 26.6619C88.7421 26.9901 88.1174 27.1541 87.4015 27.1541ZM87.4064 25.9062C87.8704 25.9062 88.2549 25.7836 88.5598 25.5384C88.8648 25.2931 89.0901 24.9666 89.236 24.5589C89.3851 24.1513 89.4597 23.7022 89.4597 23.2116C89.4597 22.7244 89.3851 22.277 89.236 21.8693C89.0901 21.4583 88.8648 21.1286 88.5598 20.88C88.2549 20.6314 87.8704 20.5071 87.4064 20.5071C86.9391 20.5071 86.5513 20.6314 86.2431 20.88C85.9382 21.1286 85.7111 21.4583 85.562 21.8693C85.4161 22.277 85.3432 22.7244 85.3432 23.2116C85.3432 23.7022 85.4161 24.1513 85.562 24.5589C85.7111 24.9666 85.9382 25.2931 86.2431 25.5384C86.5513 25.7836 86.9391 25.9062 87.4064 25.9062ZM92.6204 27V19.3636H94.0572V20.5767H94.1367C94.2759 20.1657 94.5212 19.8426 94.8725 19.6072C95.2272 19.3686 95.6282 19.2493 96.0756 19.2493C96.1684 19.2493 96.2778 19.2526 96.4038 19.2592C96.533 19.2659 96.6341 19.2741 96.707 19.2841V20.706C96.6474 20.6894 96.5413 20.6712 96.3888 20.6513C96.2364 20.6281 96.0839 20.6165 95.9315 20.6165C95.5801 20.6165 95.2669 20.6911 94.9918 20.8402C94.7201 20.986 94.5046 21.1899 94.3455 21.4517C94.1864 21.7102 94.1069 22.0052 94.1069 22.3366V27H92.6204ZM101.011 27.1541C100.259 27.1541 99.6109 26.9934 99.0673 26.6719C98.527 26.3471 98.1094 25.8913 97.8145 25.3047C97.5228 24.7147 97.377 24.0237 97.377 23.2315C97.377 22.4493 97.5228 21.7599 97.8145 21.1634C98.1094 20.5668 98.5204 20.1011 99.0474 19.7663C99.5777 19.4316 100.198 19.2642 100.907 19.2642C101.338 19.2642 101.755 19.3355 102.16 19.478C102.564 19.6205 102.927 19.8442 103.248 20.1491C103.57 20.4541 103.823 20.8501 104.009 21.3374C104.195 21.8213 104.287 22.4096 104.287 23.1023V23.6293H98.2172V22.5156H102.831C102.831 22.1245 102.751 21.7782 102.592 21.4766C102.433 21.1716 102.209 20.9313 101.921 20.7557C101.636 20.58 101.301 20.4922 100.917 20.4922C100.499 20.4922 100.135 20.5949 99.823 20.8004C99.5147 21.0026 99.2761 21.2678 99.1071 21.5959C98.9413 21.9207 98.8585 22.2737 98.8585 22.6548V23.5249C98.8585 24.0353 98.948 24.4695 99.127 24.8274C99.3092 25.1854 99.5628 25.4588 99.8876 25.6477C100.212 25.8333 100.592 25.9261 101.026 25.9261C101.308 25.9261 101.565 25.8864 101.797 25.8068C102.029 25.724 102.229 25.6013 102.398 25.4389C102.567 25.2765 102.697 25.076 102.786 24.8374L104.193 25.0909C104.08 25.5052 103.878 25.8681 103.586 26.1797C103.298 26.4879 102.935 26.7282 102.498 26.9006C102.064 27.0696 101.568 27.1541 101.011 27.1541Z" fill="#202428"/>
</g>
<path opacity="0.4" d="M21.1534 54H18.799V46.7273H21.228C21.9406 46.7273 22.5526 46.8729 23.0639 47.1641C23.5753 47.4529 23.9671 47.8684 24.2393 48.4105C24.514 48.9503 24.6513 49.5978 24.6513 50.353C24.6513 51.1106 24.5128 51.7616 24.2358 52.3061C23.9612 52.8506 23.5634 53.2696 23.0426 53.5632C22.5218 53.8544 21.892 54 21.1534 54ZM19.8963 53.0412H21.093C21.647 53.0412 22.1075 52.937 22.4744 52.7287C22.8414 52.518 23.116 52.2138 23.2983 51.8161C23.4806 51.416 23.5717 50.9283 23.5717 50.353C23.5717 49.7824 23.4806 49.2983 23.2983 48.9006C23.1184 48.5028 22.8497 48.201 22.4922 47.995C22.1347 47.7891 21.6908 47.6861 21.1605 47.6861H19.8963V53.0412ZM28.2282 54.1101C27.7168 54.1101 27.2705 53.9929 26.8894 53.7585C26.5082 53.5241 26.2123 53.1963 26.0016 52.7749C25.7909 52.3535 25.6855 51.861 25.6855 51.2976C25.6855 50.7318 25.7909 50.237 26.0016 49.8132C26.2123 49.3894 26.5082 49.0604 26.8894 48.826C27.2705 48.5916 27.7168 48.4744 28.2282 48.4744C28.7395 48.4744 29.1858 48.5916 29.5669 48.826C29.9481 49.0604 30.244 49.3894 30.4547 49.8132C30.6654 50.237 30.7708 50.7318 30.7708 51.2976C30.7708 51.861 30.6654 52.3535 30.4547 52.7749C30.244 53.1963 29.9481 53.5241 29.5669 53.7585C29.1858 53.9929 28.7395 54.1101 28.2282 54.1101ZM28.2317 53.2188C28.5632 53.2188 28.8378 53.1312 29.0556 52.956C29.2734 52.7808 29.4344 52.5476 29.5385 52.2564C29.6451 51.9652 29.6983 51.6444 29.6983 51.294C29.6983 50.946 29.6451 50.6264 29.5385 50.3352C29.4344 50.0417 29.2734 49.8061 29.0556 49.6286C28.8378 49.451 28.5632 49.3622 28.2317 49.3622C27.8979 49.3622 27.6209 49.451 27.4007 49.6286C27.1829 49.8061 27.0208 50.0417 26.9142 50.3352C26.8101 50.6264 26.758 50.946 26.758 51.294C26.758 51.6444 26.8101 51.9652 26.9142 52.2564C27.0208 52.5476 27.1829 52.7808 27.4007 52.956C27.6209 53.1312 27.8979 53.2188 28.2317 53.2188ZM35.2736 56.0455C35.115 56.0455 34.9706 56.0324 34.8404 56.0064C34.7102 55.9827 34.6131 55.9567 34.5492 55.9283L34.8049 55.0582C34.999 55.1103 35.1718 55.1328 35.3233 55.1257C35.4748 55.1186 35.6086 55.0618 35.7246 54.9553C35.843 54.8487 35.9471 54.6747 36.0371 54.4332L36.1685 54.071L34.1728 48.5455H35.3091L36.6905 52.7784H36.7473L38.1287 48.5455H39.2686L37.0208 54.728C36.9166 55.0121 36.784 55.2524 36.623 55.4489C36.4621 55.6477 36.2703 55.7969 36.0478 55.8963C35.8252 55.9957 35.5672 56.0455 35.2736 56.0455ZM42.3786 54.1101C41.8672 54.1101 41.4209 53.9929 41.0398 53.7585C40.6586 53.5241 40.3627 53.1963 40.152 52.7749C39.9413 52.3535 39.8359 51.861 39.8359 51.2976C39.8359 50.7318 39.9413 50.237 40.152 49.8132C40.3627 49.3894 40.6586 49.0604 41.0398 48.826C41.4209 48.5916 41.8672 48.4744 42.3786 48.4744C42.8899 48.4744 43.3362 48.5916 43.7173 48.826C44.0985 49.0604 44.3944 49.3894 44.6051 49.8132C44.8158 50.237 44.9212 50.7318 44.9212 51.2976C44.9212 51.861 44.8158 52.3535 44.6051 52.7749C44.3944 53.1963 44.0985 53.5241 43.7173 53.7585C43.3362 53.9929 42.8899 54.1101 42.3786 54.1101ZM42.3821 53.2188C42.7135 53.2188 42.9882 53.1312 43.206 52.956C43.4238 52.7808 43.5848 52.5476 43.6889 52.2564C43.7955 51.9652 43.8487 51.6444 43.8487 51.294C43.8487 50.946 43.7955 50.6264 43.6889 50.3352C43.5848 50.0417 43.4238 49.8061 43.206 49.6286C42.9882 49.451 42.7135 49.3622 42.3821 49.3622C42.0483 49.3622 41.7713 49.451 41.5511 49.6286C41.3333 49.8061 41.1712 50.0417 41.0646 50.3352C40.9605 50.6264 40.9084 50.946 40.9084 51.294C40.9084 51.6444 40.9605 51.9652 41.0646 52.2564C41.1712 52.5476 41.3333 52.7808 41.5511 52.956C41.7713 53.1312 42.0483 53.2188 42.3821 53.2188ZM49.5616 51.7379V48.5455H50.627V54H49.5829V53.0554H49.5261C49.4006 53.3466 49.1994 53.5893 48.9224 53.7834C48.6478 53.9751 48.3057 54.071 47.8961 54.071C47.5458 54.071 47.2356 53.9941 46.9657 53.8402C46.6982 53.6839 46.4875 53.4531 46.3336 53.1477C46.1821 52.8423 46.1064 52.4647 46.1064 52.0149V48.5455H47.1681V51.8871C47.1681 52.2588 47.2711 52.5547 47.4771 52.7749C47.6831 52.995 47.9506 53.1051 48.2797 53.1051C48.4785 53.1051 48.6762 53.0554 48.8727 52.956C49.0716 52.8565 49.2361 52.7062 49.3663 52.505C49.4989 52.3037 49.564 52.0481 49.5616 51.7379ZM55.8826 54L54.2775 48.5455H55.3748L56.4437 52.5511H56.497L57.5694 48.5455H58.6667L59.7321 52.5334H59.7853L60.8471 48.5455H61.9444L60.3429 54H59.2598L58.1518 50.0618H58.0701L56.9622 54H55.8826ZM64.5394 54.1207C64.1938 54.1207 63.8813 54.0568 63.6019 53.929C63.3226 53.7988 63.1012 53.6106 62.9379 53.3643C62.7769 53.1181 62.6964 52.8163 62.6964 52.4588C62.6964 52.151 62.7556 51.8977 62.8739 51.6989C62.9923 51.5 63.1521 51.3426 63.3533 51.2266C63.5546 51.1106 63.7795 51.023 64.0281 50.9638C64.2766 50.9046 64.5299 50.8596 64.788 50.8288C65.1147 50.791 65.3799 50.7602 65.5835 50.7365C65.7871 50.7105 65.935 50.669 66.0273 50.6122C66.1197 50.5554 66.1658 50.4631 66.1658 50.3352V50.3104C66.1658 50.0002 66.0782 49.7599 65.9031 49.5895C65.7302 49.419 65.4722 49.3338 65.1289 49.3338C64.7714 49.3338 64.4897 49.4131 64.2837 49.5717C64.0801 49.728 63.9393 49.902 63.8612 50.0938L62.8633 49.8665C62.9817 49.535 63.1545 49.2675 63.3817 49.0639C63.6114 48.858 63.8754 48.7088 64.1737 48.6165C64.4719 48.5218 64.7856 48.4744 65.1147 48.4744C65.3325 48.4744 65.5633 48.5005 65.8072 48.5526C66.0534 48.6023 66.283 48.6946 66.4961 48.8295C66.7115 48.9645 66.8879 49.1574 67.0252 49.4084C67.1625 49.657 67.2312 49.9801 67.2312 50.3778V54H66.1942V53.2543H66.1516C66.083 53.3916 65.98 53.5265 65.8427 53.6591C65.7054 53.7917 65.529 53.9018 65.3136 53.9893C65.0981 54.0769 64.8401 54.1207 64.5394 54.1207ZM64.7702 53.2685C65.0638 53.2685 65.3147 53.2105 65.5231 53.0945C65.7338 52.9785 65.8936 52.8269 66.0025 52.6399C66.1138 52.4505 66.1694 52.2481 66.1694 52.0327V51.3295C66.1315 51.3674 66.0581 51.4029 65.9492 51.4361C65.8427 51.4669 65.7208 51.4941 65.5835 51.5178C65.4461 51.5391 65.3124 51.5592 65.1822 51.5781C65.052 51.5947 64.9431 51.6089 64.8555 51.6207C64.6495 51.6468 64.4613 51.6906 64.2908 51.7521C64.1228 51.8137 63.9878 51.9025 63.886 52.0185C63.7866 52.1321 63.7369 52.2836 63.7369 52.473C63.7369 52.7358 63.8339 52.9347 64.0281 53.0696C64.2222 53.2022 64.4696 53.2685 64.7702 53.2685ZM69.7072 50.7614V54H68.6454V48.5455H69.6646V49.4332H69.7321C69.8575 49.1444 70.054 48.9124 70.3216 48.7372C70.5914 48.562 70.9312 48.4744 71.3407 48.4744C71.7124 48.4744 72.0379 48.5526 72.3173 48.7088C72.5967 48.8627 72.8133 49.0923 72.9672 49.3977C73.121 49.7031 73.198 50.0807 73.198 50.5305V54H72.1362V50.6584C72.1362 50.263 72.0332 49.9541 71.8272 49.7315C71.6213 49.5066 71.3384 49.3942 70.9785 49.3942C70.7323 49.3942 70.5133 49.4474 70.3216 49.554C70.1322 49.6605 69.9818 49.8168 69.8706 50.0227C69.7617 50.2263 69.7072 50.4725 69.7072 50.7614ZM77.1681 48.5455V49.3977H74.1887V48.5455H77.1681ZM74.9877 47.2386H76.0495V52.3984C76.0495 52.6044 76.0803 52.7595 76.1419 52.8636C76.2034 52.9654 76.2827 53.0353 76.3798 53.0732C76.4792 53.1087 76.5869 53.1264 76.7029 53.1264C76.7882 53.1264 76.8627 53.1205 76.9267 53.1087C76.9906 53.0968 77.0403 53.0874 77.0758 53.0803L77.2676 53.9574C77.206 53.9811 77.1184 54.0047 77.0048 54.0284C76.8912 54.0545 76.7491 54.0687 76.5787 54.071C76.2993 54.0758 76.0389 54.026 75.7974 53.9219C75.5559 53.8177 75.3606 53.6567 75.2115 53.4389C75.0623 53.2211 74.9877 52.9477 74.9877 52.6186V47.2386ZM83.5353 48.5455V49.3977H80.5559V48.5455H83.5353ZM81.3549 47.2386H82.4167V52.3984C82.4167 52.6044 82.4475 52.7595 82.5091 52.8636C82.5706 52.9654 82.6499 53.0353 82.747 53.0732C82.8464 53.1087 82.9541 53.1264 83.0701 53.1264C83.1554 53.1264 83.2299 53.1205 83.2939 53.1087C83.3578 53.0968 83.4075 53.0874 83.443 53.0803L83.6348 53.9574C83.5732 53.9811 83.4856 54.0047 83.372 54.0284C83.2583 54.0545 83.1163 54.0687 82.9458 54.071C82.6665 54.0758 82.4061 54.026 82.1646 53.9219C81.9231 53.8177 81.7278 53.6567 81.5787 53.4389C81.4295 53.2211 81.3549 52.9477 81.3549 52.6186V47.2386ZM86.9489 54.1101C86.4375 54.1101 85.9912 53.9929 85.6101 53.7585C85.2289 53.5241 84.933 53.1963 84.7223 52.7749C84.5116 52.3535 84.4062 51.861 84.4062 51.2976C84.4062 50.7318 84.5116 50.237 84.7223 49.8132C84.933 49.3894 85.2289 49.0604 85.6101 48.826C85.9912 48.5916 86.4375 48.4744 86.9489 48.4744C87.4602 48.4744 87.9065 48.5916 88.2876 48.826C88.6688 49.0604 88.9647 49.3894 89.1754 49.8132C89.3861 50.237 89.4915 50.7318 89.4915 51.2976C89.4915 51.861 89.3861 52.3535 89.1754 52.7749C88.9647 53.1963 88.6688 53.5241 88.2876 53.7585C87.9065 53.9929 87.4602 54.1101 86.9489 54.1101ZM86.9524 53.2188C87.2839 53.2188 87.5585 53.1312 87.7763 52.956C87.9941 52.7808 88.1551 52.5476 88.2592 52.2564C88.3658 51.9652 88.419 51.6444 88.419 51.294C88.419 50.946 88.3658 50.6264 88.2592 50.3352C88.1551 50.0417 87.9941 49.8061 87.7763 49.6286C87.5585 49.451 87.2839 49.3622 86.9524 49.3622C86.6186 49.3622 86.3416 49.451 86.1214 49.6286C85.9036 49.8061 85.7415 50.0417 85.6349 50.3352C85.5308 50.6264 85.4787 50.946 85.4787 51.294C85.4787 51.6444 85.5308 51.9652 85.6349 52.2564C85.7415 52.5476 85.9036 52.7808 86.1214 52.956C86.3416 53.1312 86.6186 53.2188 86.9524 53.2188ZM93.3232 54V48.5455H94.3849V54H93.3232ZM93.8594 47.7038C93.6747 47.7038 93.5161 47.6423 93.3835 47.5192C93.2533 47.3937 93.1882 47.2446 93.1882 47.0717C93.1882 46.8965 93.2533 46.7474 93.3835 46.6243C93.5161 46.4988 93.6747 46.4361 93.8594 46.4361C94.044 46.4361 94.2015 46.4988 94.3317 46.6243C94.4643 46.7474 94.5305 46.8965 94.5305 47.0717C94.5305 47.2446 94.4643 47.3937 94.3317 47.5192C94.2015 47.6423 94.044 47.7038 93.8594 47.7038ZM96.8752 50.7614V54H95.8134V48.5455H96.8326V49.4332H96.9C97.0255 49.1444 97.222 48.9124 97.4895 48.7372C97.7594 48.562 98.0991 48.4744 98.5087 48.4744C98.8804 48.4744 99.2059 48.5526 99.4853 48.7088C99.7646 48.8627 99.9812 49.0923 100.135 49.3977C100.289 49.7031 100.366 50.0807 100.366 50.5305V54H99.3042V50.6584C99.3042 50.263 99.2012 49.9541 98.9952 49.7315C98.7892 49.5066 98.5063 49.3942 98.1465 49.3942C97.9003 49.3942 97.6813 49.4474 97.4895 49.554C97.3001 49.6605 97.1498 49.8168 97.0385 50.0227C96.9296 50.2263 96.8752 50.4725 96.8752 50.7614ZM105.877 49.8771L104.915 50.0476C104.875 49.9245 104.811 49.8073 104.723 49.696C104.638 49.5848 104.522 49.4936 104.375 49.4226C104.228 49.3516 104.045 49.3161 103.825 49.3161C103.524 49.3161 103.273 49.3835 103.072 49.5185C102.871 49.651 102.77 49.8227 102.77 50.0334C102.77 50.2157 102.838 50.3625 102.972 50.4737C103.107 50.585 103.325 50.6761 103.626 50.7472L104.492 50.946C104.994 51.062 105.368 51.2408 105.615 51.4822C105.861 51.7237 105.984 52.0374 105.984 52.4233C105.984 52.75 105.889 53.0412 105.7 53.2969C105.513 53.5502 105.251 53.7491 104.915 53.8935C104.581 54.0379 104.194 54.1101 103.754 54.1101C103.143 54.1101 102.645 53.9799 102.259 53.7195C101.873 53.4567 101.636 53.0838 101.548 52.6009L102.575 52.4446C102.639 52.7121 102.77 52.9145 102.969 53.0518C103.168 53.1868 103.427 53.2543 103.747 53.2543C104.095 53.2543 104.373 53.1821 104.581 53.0376C104.789 52.8909 104.894 52.7121 104.894 52.5014C104.894 52.331 104.83 52.1877 104.702 52.0717C104.576 51.9557 104.383 51.8681 104.123 51.8089L103.2 51.6065C102.691 51.4905 102.314 51.3059 102.07 51.0526C101.829 50.7992 101.708 50.4785 101.708 50.0902C101.708 49.7682 101.798 49.4865 101.978 49.245C102.158 49.0036 102.407 48.8153 102.724 48.6804C103.041 48.5431 103.405 48.4744 103.814 48.4744C104.404 48.4744 104.868 48.6023 105.206 48.858C105.545 49.1113 105.768 49.451 105.877 49.8771ZM109.697 48.5455V49.3977H106.718V48.5455H109.697ZM107.517 47.2386H108.579V52.3984C108.579 52.6044 108.61 52.7595 108.671 52.8636C108.733 52.9654 108.812 53.0353 108.909 53.0732C109.009 53.1087 109.116 53.1264 109.232 53.1264C109.317 53.1264 109.392 53.1205 109.456 53.1087C109.52 53.0968 109.57 53.0874 109.605 53.0803L109.797 53.9574C109.735 53.9811 109.648 54.0047 109.534 54.0284C109.42 54.0545 109.278 54.0687 109.108 54.071C108.829 54.0758 108.568 54.026 108.327 53.9219C108.085 53.8177 107.89 53.6567 107.741 53.4389C107.592 53.2211 107.517 52.9477 107.517 52.6186V47.2386ZM112.459 54.1207C112.114 54.1207 111.801 54.0568 111.522 53.929C111.242 53.7988 111.021 53.6106 110.858 53.3643C110.697 53.1181 110.616 52.8163 110.616 52.4588C110.616 52.151 110.675 51.8977 110.794 51.6989C110.912 51.5 111.072 51.3426 111.273 51.2266C111.474 51.1106 111.699 51.023 111.948 50.9638C112.197 50.9046 112.45 50.8596 112.708 50.8288C113.035 50.791 113.3 50.7602 113.503 50.7365C113.707 50.7105 113.855 50.669 113.947 50.6122C114.04 50.5554 114.086 50.4631 114.086 50.3352V50.3104C114.086 50.0002 113.998 49.7599 113.823 49.5895C113.65 49.419 113.392 49.3338 113.049 49.3338C112.691 49.3338 112.41 49.4131 112.204 49.5717C112 49.728 111.859 49.902 111.781 50.0938L110.783 49.8665C110.902 49.535 111.074 49.2675 111.302 49.0639C111.531 48.858 111.795 48.7088 112.094 48.6165C112.392 48.5218 112.706 48.4744 113.035 48.4744C113.252 48.4744 113.483 48.5005 113.727 48.5526C113.973 48.6023 114.203 48.6946 114.416 48.8295C114.631 48.9645 114.808 49.1574 114.945 49.4084C115.082 49.657 115.151 49.9801 115.151 50.3778V54H114.114V53.2543H114.072C114.003 53.3916 113.9 53.5265 113.763 53.6591C113.625 53.7917 113.449 53.9018 113.233 53.9893C113.018 54.0769 112.76 54.1207 112.459 54.1207ZM112.69 53.2685C112.984 53.2685 113.235 53.2105 113.443 53.0945C113.654 52.9785 113.814 52.8269 113.922 52.6399C114.034 52.4505 114.089 52.2481 114.089 52.0327V51.3295C114.051 51.3674 113.978 51.4029 113.869 51.4361C113.763 51.4669 113.641 51.4941 113.503 51.5178C113.366 51.5391 113.232 51.5592 113.102 51.5781C112.972 51.5947 112.863 51.6089 112.775 51.6207C112.569 51.6468 112.381 51.6906 112.211 51.7521C112.043 51.8137 111.908 51.9025 111.806 52.0185C111.706 52.1321 111.657 52.2836 111.657 52.473C111.657 52.7358 111.754 52.9347 111.948 53.0696C112.142 53.2022 112.39 53.2685 112.69 53.2685ZM117.627 46.7273V54H116.565V46.7273H117.627ZM120.117 46.7273V54H119.056V46.7273H120.117ZM126.738 48.5455V49.3977H123.759V48.5455H126.738ZM124.558 47.2386H125.62V52.3984C125.62 52.6044 125.651 52.7595 125.712 52.8636C125.774 52.9654 125.853 53.0353 125.95 53.0732C126.05 53.1087 126.157 53.1264 126.273 53.1264C126.358 53.1264 126.433 53.1205 126.497 53.1087C126.561 53.0968 126.611 53.0874 126.646 53.0803L126.838 53.9574C126.776 53.9811 126.689 54.0047 126.575 54.0284C126.461 54.0545 126.319 54.0687 126.149 54.071C125.87 54.0758 125.609 54.026 125.368 53.9219C125.126 53.8177 124.931 53.6567 124.782 53.4389C124.633 53.2211 124.558 52.9477 124.558 52.6186V47.2386ZM129.092 50.7614V54H128.03V46.7273H129.078V49.4332H129.145C129.273 49.1397 129.468 48.9065 129.731 48.7337C129.994 48.5608 130.337 48.4744 130.761 48.4744C131.135 48.4744 131.462 48.5514 131.741 48.7053C132.023 48.8591 132.241 49.0888 132.395 49.3942C132.551 49.6972 132.629 50.076 132.629 50.5305V54H131.567V50.6584C131.567 50.2583 131.464 49.9482 131.258 49.728C131.052 49.5054 130.766 49.3942 130.399 49.3942C130.148 49.3942 129.923 49.4474 129.724 49.554C129.528 49.6605 129.373 49.8168 129.259 50.0227C129.148 50.2263 129.092 50.4725 129.092 50.7614ZM134.046 54V48.5455H135.108V54H134.046ZM134.582 47.7038C134.397 47.7038 134.239 47.6423 134.106 47.5192C133.976 47.3937 133.911 47.2446 133.911 47.0717C133.911 46.8965 133.976 46.7474 134.106 46.6243C134.239 46.4988 134.397 46.4361 134.582 46.4361C134.767 46.4361 134.924 46.4988 135.054 46.6243C135.187 46.7474 135.253 46.8965 135.253 47.0717C135.253 47.2446 135.187 47.3937 135.054 47.5192C134.924 47.6423 134.767 47.7038 134.582 47.7038ZM140.623 49.8771L139.661 50.0476C139.621 49.9245 139.557 49.8073 139.469 49.696C139.384 49.5848 139.268 49.4936 139.121 49.4226C138.974 49.3516 138.791 49.3161 138.571 49.3161C138.27 49.3161 138.019 49.3835 137.818 49.5185C137.617 49.651 137.516 49.8227 137.516 50.0334C137.516 50.2157 137.584 50.3625 137.719 50.4737C137.854 50.585 138.071 50.6761 138.372 50.7472L139.238 50.946C139.74 51.062 140.114 51.2408 140.361 51.4822C140.607 51.7237 140.73 52.0374 140.73 52.4233C140.73 52.75 140.635 53.0412 140.446 53.2969C140.259 53.5502 139.997 53.7491 139.661 53.8935C139.327 54.0379 138.94 54.1101 138.5 54.1101C137.889 54.1101 137.391 53.9799 137.005 53.7195C136.619 53.4567 136.382 53.0838 136.295 52.6009L137.321 52.4446C137.385 52.7121 137.516 52.9145 137.715 53.0518C137.914 53.1868 138.173 53.2543 138.493 53.2543C138.841 53.2543 139.119 53.1821 139.327 53.0376C139.536 52.8909 139.64 52.7121 139.64 52.5014C139.64 52.331 139.576 52.1877 139.448 52.0717C139.323 51.9557 139.13 51.8681 138.869 51.8089L137.946 51.6065C137.437 51.4905 137.06 51.3059 136.817 51.0526C136.575 50.7992 136.454 50.4785 136.454 50.0902C136.454 49.7682 136.544 49.4865 136.724 49.245C136.904 49.0036 137.153 48.8153 137.47 48.6804C137.787 48.5431 138.151 48.4744 138.56 48.4744C139.15 48.4744 139.614 48.6023 139.952 48.858C140.291 49.1113 140.515 49.451 140.623 49.8771ZM146.131 54.1207C145.786 54.1207 145.473 54.0568 145.194 53.929C144.914 53.7988 144.693 53.6106 144.53 53.3643C144.369 53.1181 144.288 52.8163 144.288 52.4588C144.288 52.151 144.347 51.8977 144.466 51.6989C144.584 51.5 144.744 51.3426 144.945 51.2266C145.146 51.1106 145.371 51.023 145.62 50.9638C145.868 50.9046 146.122 50.8596 146.38 50.8288C146.706 50.791 146.972 50.7602 147.175 50.7365C147.379 50.7105 147.527 50.669 147.619 50.6122C147.711 50.5554 147.758 50.4631 147.758 50.3352V50.3104C147.758 50.0002 147.67 49.7599 147.495 49.5895C147.322 49.419 147.064 49.3338 146.721 49.3338C146.363 49.3338 146.081 49.4131 145.876 49.5717C145.672 49.728 145.531 49.902 145.453 50.0938L144.455 49.8665C144.573 49.535 144.746 49.2675 144.974 49.0639C145.203 48.858 145.467 48.7088 145.765 48.6165C146.064 48.5218 146.377 48.4744 146.706 48.4744C146.924 48.4744 147.155 48.5005 147.399 48.5526C147.645 48.6023 147.875 48.6946 148.088 48.8295C148.303 48.9645 148.48 49.1574 148.617 49.4084C148.754 49.657 148.823 49.9801 148.823 50.3778V54H147.786V53.2543H147.743C147.675 53.3916 147.572 53.5265 147.434 53.6591C147.297 53.7917 147.121 53.9018 146.905 53.9893C146.69 54.0769 146.432 54.1207 146.131 54.1207ZM146.362 53.2685C146.656 53.2685 146.907 53.2105 147.115 53.0945C147.326 52.9785 147.485 52.8269 147.594 52.6399C147.706 52.4505 147.761 52.2481 147.761 52.0327V51.3295C147.723 51.3674 147.65 51.4029 147.541 51.4361C147.434 51.4669 147.313 51.4941 147.175 51.5178C147.038 51.5391 146.904 51.5592 146.774 51.5781C146.644 51.5947 146.535 51.6089 146.447 51.6207C146.241 51.6468 146.053 51.6906 145.883 51.7521C145.715 51.8137 145.58 51.9025 145.478 52.0185C145.378 52.1321 145.329 52.2836 145.329 52.473C145.329 52.7358 145.426 52.9347 145.62 53.0696C145.814 53.2022 146.061 53.2685 146.362 53.2685ZM150.237 56.0455V48.5455H151.274V49.4297H151.363C151.424 49.3161 151.513 49.1847 151.629 49.0355C151.745 48.8864 151.906 48.7562 152.112 48.6449C152.318 48.5312 152.59 48.4744 152.929 48.4744C153.369 48.4744 153.762 48.5857 154.108 48.8082C154.454 49.0308 154.725 49.3516 154.921 49.7706C155.12 50.1896 155.219 50.6939 155.219 51.2834C155.219 51.8729 155.121 52.3783 154.925 52.7997C154.728 53.2187 154.458 53.5419 154.115 53.7692C153.772 53.9941 153.38 54.1065 152.94 54.1065C152.608 54.1065 152.337 54.0509 152.126 53.9396C151.918 53.8284 151.755 53.6982 151.636 53.549C151.518 53.3999 151.427 53.2673 151.363 53.1513H151.299V56.0455H150.237ZM151.278 51.2727C151.278 51.6562 151.333 51.9924 151.445 52.2812C151.556 52.5701 151.717 52.7962 151.928 52.9595C152.138 53.1205 152.396 53.201 152.702 53.201C153.019 53.201 153.284 53.117 153.497 52.9489C153.71 52.7784 153.871 52.5476 153.98 52.2564C154.091 51.9652 154.147 51.6373 154.147 51.2727C154.147 50.9129 154.093 50.5897 153.984 50.3033C153.877 50.0168 153.716 49.7907 153.501 49.625C153.288 49.4593 153.021 49.3764 152.702 49.3764C152.394 49.3764 152.134 49.4557 151.92 49.6143C151.71 49.773 151.55 49.9943 151.441 50.2784C151.332 50.5625 151.278 50.8939 151.278 51.2727ZM156.409 56.0455V48.5455H157.446V49.4297H157.535C157.596 49.3161 157.685 49.1847 157.801 49.0355C157.917 48.8864 158.078 48.7562 158.284 48.6449C158.49 48.5312 158.762 48.4744 159.101 48.4744C159.541 48.4744 159.934 48.5857 160.28 48.8082C160.625 49.0308 160.897 49.3516 161.093 49.7706C161.292 50.1896 161.391 50.6939 161.391 51.2834C161.391 51.8729 161.293 52.3783 161.097 52.7997C160.9 53.2187 160.63 53.5419 160.287 53.7692C159.944 53.9941 159.552 54.1065 159.112 54.1065C158.78 54.1065 158.509 54.0509 158.298 53.9396C158.09 53.8284 157.927 53.6982 157.808 53.549C157.69 53.3999 157.599 53.2673 157.535 53.1513H157.471V56.0455H156.409ZM157.45 51.2727C157.45 51.6562 157.505 51.9924 157.616 52.2812C157.728 52.5701 157.889 52.7962 158.099 52.9595C158.31 53.1205 158.568 53.201 158.874 53.201C159.191 53.201 159.456 53.117 159.669 52.9489C159.882 52.7784 160.043 52.5476 160.152 52.2564C160.263 51.9652 160.319 51.6373 160.319 51.2727C160.319 50.9129 160.264 50.5897 160.156 50.3033C160.049 50.0168 159.888 49.7907 159.673 49.625C159.46 49.4593 159.193 49.3764 158.874 49.3764C158.566 49.3764 158.305 49.4557 158.092 49.6143C157.882 49.773 157.722 49.9943 157.613 50.2784C157.504 50.5625 157.45 50.8939 157.45 51.2727ZM163.742 51.9084V51.8409C163.747 51.4006 163.791 51.0502 163.874 50.7898C163.959 50.5294 164.08 50.3187 164.236 50.1577C164.392 49.9967 164.58 49.8499 164.8 49.7173C164.942 49.6274 165.07 49.5268 165.184 49.4155C165.298 49.3042 165.388 49.1764 165.454 49.032C165.52 48.8875 165.553 48.7277 165.553 48.5526C165.553 48.3419 165.504 48.1596 165.404 48.0057C165.305 47.8518 165.172 47.7334 165.006 47.6506C164.843 47.5653 164.661 47.5227 164.46 47.5227C164.277 47.5227 164.103 47.5606 163.938 47.6364C163.772 47.7121 163.634 47.8305 163.526 47.9915C163.417 48.1501 163.354 48.3549 163.337 48.6058H162.258C162.274 48.1797 162.382 47.8198 162.581 47.5263C162.78 47.2304 163.043 47.0066 163.369 46.8551C163.698 46.7036 164.062 46.6278 164.46 46.6278C164.895 46.6278 165.276 46.7095 165.603 46.8729C165.93 47.0339 166.183 47.2599 166.363 47.5511C166.545 47.84 166.636 48.1773 166.636 48.5632C166.636 48.8284 166.595 49.0675 166.512 49.2805C166.429 49.4912 166.311 49.6795 166.157 49.8452C166.005 50.0109 165.823 50.1577 165.61 50.2855C165.409 50.411 165.246 50.5412 165.12 50.6761C164.997 50.8111 164.907 50.9709 164.85 51.1555C164.793 51.3402 164.763 51.5687 164.758 51.8409V51.9084H163.742ZM164.278 54.0675C164.084 54.0675 163.917 53.9988 163.778 53.8615C163.638 53.7218 163.568 53.5537 163.568 53.3572C163.568 53.1631 163.638 52.9974 163.778 52.8601C163.917 52.7204 164.084 52.6506 164.278 52.6506C164.47 52.6506 164.636 52.7204 164.776 52.8601C164.918 52.9974 164.989 53.1631 164.989 53.3572C164.989 53.4875 164.955 53.607 164.889 53.7159C164.825 53.8224 164.74 53.9077 164.634 53.9716C164.527 54.0355 164.409 54.0675 164.278 54.0675Z" fill="#202428"/>
<path opacity="0.4" d="M236.207 84.1108H234.878C234.827 83.8267 234.732 83.5767 234.592 83.3608C234.453 83.1449 234.283 82.9616 234.081 82.8111C233.879 82.6605 233.653 82.5469 233.403 82.4702C233.156 82.3935 232.893 82.3551 232.615 82.3551C232.112 82.3551 231.662 82.4815 231.264 82.7344C230.869 82.9872 230.557 83.358 230.327 83.8466C230.099 84.3352 229.986 84.9318 229.986 85.6364C229.986 86.3466 230.099 86.946 230.327 87.4347C230.557 87.9233 230.871 88.2926 231.268 88.5426C231.666 88.7926 232.114 88.9176 232.611 88.9176C232.886 88.9176 233.148 88.8807 233.395 88.8068C233.645 88.7301 233.871 88.6179 234.072 88.4702C234.274 88.3224 234.445 88.142 234.584 87.929C234.726 87.7131 234.824 87.4659 234.878 87.1875L236.207 87.1918C236.136 87.6207 235.999 88.0156 235.794 88.3764C235.592 88.7344 235.332 89.044 235.014 89.3054C234.699 89.5639 234.338 89.7642 233.932 89.9062C233.526 90.0483 233.082 90.1193 232.602 90.1193C231.847 90.1193 231.173 89.9403 230.582 89.5824C229.991 89.2216 229.526 88.706 229.185 88.0355C228.847 87.3651 228.678 86.5653 228.678 85.6364C228.678 84.7045 228.848 83.9048 229.189 83.2372C229.53 82.5668 229.996 82.0526 230.587 81.6946C231.178 81.3338 231.849 81.1534 232.602 81.1534C233.065 81.1534 233.497 81.2202 233.898 81.3537C234.301 81.4844 234.663 81.6776 234.984 81.9332C235.305 82.1861 235.571 82.4957 235.781 82.8622C235.991 83.2259 236.134 83.642 236.207 84.1108ZM239.586 90.1449C239.171 90.1449 238.796 90.0682 238.461 89.9148C238.125 89.7585 237.86 89.5327 237.664 89.2372C237.471 88.9418 237.374 88.5795 237.374 88.1506C237.374 87.7812 237.445 87.4773 237.587 87.2386C237.729 87 237.921 86.8111 238.162 86.6719C238.404 86.5327 238.674 86.4276 238.972 86.3565C239.27 86.2855 239.574 86.2315 239.884 86.1946C240.276 86.1491 240.594 86.1122 240.838 86.0838C241.083 86.0526 241.26 86.0028 241.371 85.9347C241.482 85.8665 241.537 85.7557 241.537 85.6023V85.5724C241.537 85.2003 241.432 84.9119 241.222 84.7074C241.015 84.5028 240.705 84.4006 240.293 84.4006C239.864 84.4006 239.526 84.4957 239.279 84.6861C239.034 84.8736 238.865 85.0824 238.772 85.3125L237.574 85.0398C237.716 84.642 237.924 84.321 238.196 84.0767C238.472 83.8295 238.789 83.6506 239.147 83.5398C239.505 83.4261 239.881 83.3693 240.276 83.3693C240.537 83.3693 240.814 83.4006 241.107 83.4631C241.402 83.5227 241.678 83.6335 241.934 83.7955C242.192 83.9574 242.404 84.1889 242.569 84.4901C242.733 84.7884 242.816 85.1761 242.816 85.6534V90H241.571V89.1051H241.52C241.438 89.2699 241.314 89.4318 241.15 89.5909C240.985 89.75 240.773 89.8821 240.515 89.9872C240.256 90.0923 239.946 90.1449 239.586 90.1449ZM239.863 89.1222C240.215 89.1222 240.516 89.0526 240.766 88.9134C241.019 88.7741 241.211 88.5923 241.341 88.3679C241.475 88.1406 241.542 87.8977 241.542 87.6392V86.7955C241.496 86.8409 241.408 86.8835 241.277 86.9233C241.15 86.9602 241.003 86.9929 240.838 87.0213C240.674 87.0469 240.513 87.071 240.357 87.0938C240.201 87.1136 240.07 87.1307 239.965 87.1449C239.718 87.1761 239.492 87.2287 239.287 87.3026C239.086 87.3764 238.924 87.483 238.801 87.6222C238.682 87.7585 238.623 87.9403 238.623 88.1676C238.623 88.483 238.739 88.7216 238.972 88.8835C239.205 89.0426 239.502 89.1222 239.863 89.1222ZM245.787 86.1136V90H244.513V83.4545H245.736V84.5199H245.817C245.967 84.1733 246.203 83.8949 246.524 83.6847C246.848 83.4744 247.256 83.3693 247.747 83.3693C248.193 83.3693 248.584 83.4631 248.919 83.6506C249.254 83.8352 249.514 84.1108 249.699 84.4773C249.884 84.8437 249.976 85.2969 249.976 85.8366V90H248.702V85.9901C248.702 85.5156 248.578 85.1449 248.331 84.8778C248.084 84.608 247.744 84.473 247.312 84.473C247.017 84.473 246.754 84.5369 246.524 84.6648C246.297 84.7926 246.116 84.9801 245.983 85.2273C245.852 85.4716 245.787 85.767 245.787 86.1136ZM254.442 90.1321C253.808 90.1321 253.263 89.9886 252.805 89.7017C252.351 89.4119 252.001 89.0128 251.757 88.5043C251.513 87.9957 251.391 87.4134 251.391 86.7571C251.391 86.0923 251.516 85.5057 251.766 84.9972C252.016 84.4858 252.368 84.0866 252.822 83.7997C253.277 83.5128 253.813 83.3693 254.429 83.3693C254.926 83.3693 255.369 83.4616 255.759 83.6463C256.148 83.8281 256.462 84.0838 256.7 84.4134C256.942 84.7429 257.085 85.1278 257.131 85.5682H255.891C255.822 85.2614 255.666 84.9972 255.422 84.7756C255.18 84.554 254.857 84.4432 254.45 84.4432C254.095 84.4432 253.784 84.5369 253.517 84.7244C253.253 84.9091 253.047 85.1733 252.899 85.517C252.751 85.858 252.678 86.2614 252.678 86.7273C252.678 87.2045 252.75 87.6165 252.895 87.9631C253.04 88.3097 253.244 88.5781 253.509 88.7685C253.776 88.9588 254.089 89.054 254.45 89.054C254.692 89.054 254.911 89.0099 255.107 88.9219C255.305 88.831 255.472 88.7017 255.605 88.5341C255.741 88.3665 255.837 88.1648 255.891 87.929H257.131C257.085 88.3523 256.947 88.7301 256.717 89.0625C256.487 89.3949 256.179 89.6562 255.793 89.8466C255.409 90.0369 254.959 90.1321 254.442 90.1321ZM261.314 90.1321C260.669 90.1321 260.114 89.9943 259.648 89.7188C259.185 89.4403 258.827 89.0497 258.574 88.5469C258.324 88.0412 258.199 87.4489 258.199 86.7699C258.199 86.0994 258.324 85.5085 258.574 84.9972C258.827 84.4858 259.179 84.0866 259.631 83.7997C260.086 83.5128 260.617 83.3693 261.225 83.3693C261.594 83.3693 261.952 83.4304 262.299 83.5526C262.645 83.6747 262.956 83.8665 263.232 84.1278C263.507 84.3892 263.725 84.7287 263.884 85.1463C264.043 85.5611 264.123 86.0653 264.123 86.6591V87.1108H258.919V86.1562H262.874C262.874 85.821 262.806 85.5241 262.669 85.2656C262.533 85.0043 262.341 84.7983 262.094 84.6477C261.85 84.4972 261.563 84.4219 261.233 84.4219C260.875 84.4219 260.563 84.5099 260.296 84.6861C260.032 84.8594 259.827 85.0866 259.682 85.3679C259.54 85.6463 259.469 85.9489 259.469 86.2756V87.0213C259.469 87.4588 259.546 87.831 259.699 88.1378C259.855 88.4446 260.073 88.679 260.351 88.8409C260.63 89 260.955 89.0795 261.327 89.0795C261.569 89.0795 261.789 89.0455 261.988 88.9773C262.186 88.9062 262.358 88.8011 262.503 88.6619C262.648 88.5227 262.759 88.3509 262.836 88.1463L264.042 88.3636C263.945 88.7187 263.772 89.0298 263.522 89.2969C263.275 89.5611 262.963 89.767 262.588 89.9148C262.216 90.0597 261.792 90.1321 261.314 90.1321ZM266.81 81.2727V90H265.536V81.2727H266.81Z" fill="#202428"/>
<path d="M290.604 81.2727V90H288.759V81.2727H290.604ZM293.903 86.2159V90H292.088V83.4545H293.818V84.6094H293.895C294.039 84.2287 294.282 83.9276 294.623 83.706C294.964 83.4815 295.377 83.3693 295.863 83.3693C296.318 83.3693 296.714 83.4688 297.052 83.6676C297.39 83.8665 297.653 84.1506 297.841 84.5199C298.028 84.8864 298.122 85.3239 298.122 85.8324V90H296.306V86.1562C296.309 85.7557 296.207 85.4432 296 85.2188C295.792 84.9915 295.507 84.8778 295.143 84.8778C294.899 84.8778 294.683 84.9304 294.495 85.0355C294.311 85.1406 294.166 85.294 294.061 85.4957C293.958 85.6946 293.906 85.9347 293.903 86.2159ZM304.999 85.321L303.337 85.4233C303.308 85.2812 303.247 85.1534 303.153 85.0398C303.06 84.9233 302.936 84.831 302.783 84.7628C302.632 84.6918 302.452 84.6562 302.241 84.6562C301.96 84.6562 301.723 84.7159 301.53 84.8352C301.337 84.9517 301.24 85.108 301.24 85.304C301.24 85.4602 301.303 85.5923 301.428 85.7003C301.553 85.8082 301.767 85.8949 302.071 85.9602L303.256 86.1989C303.892 86.3295 304.366 86.5398 304.679 86.8295C304.991 87.1193 305.148 87.5 305.148 87.9716C305.148 88.4006 305.021 88.777 304.768 89.1009C304.518 89.4247 304.175 89.6776 303.737 89.8594C303.303 90.0384 302.801 90.1278 302.233 90.1278C301.366 90.1278 300.676 89.9474 300.162 89.5866C299.651 89.223 299.351 88.7287 299.263 88.1037L301.048 88.0099C301.102 88.2741 301.233 88.4759 301.44 88.6151C301.648 88.7514 301.913 88.8196 302.237 88.8196C302.555 88.8196 302.811 88.7585 303.004 88.6364C303.2 88.5114 303.3 88.3509 303.303 88.1548C303.3 87.9901 303.23 87.8551 303.094 87.75C302.957 87.642 302.747 87.5597 302.463 87.5028L301.33 87.277C300.69 87.1491 300.214 86.9276 299.902 86.6122C299.592 86.2969 299.438 85.8949 299.438 85.4062C299.438 84.9858 299.551 84.6236 299.778 84.3196C300.009 84.0156 300.331 83.7812 300.746 83.6165C301.163 83.4517 301.652 83.3693 302.212 83.3693C303.038 83.3693 303.689 83.544 304.163 83.8935C304.641 84.2429 304.919 84.7187 304.999 85.321ZM309.772 83.4545V84.8182H305.831V83.4545H309.772ZM306.725 81.8864H308.541V87.9886C308.541 88.1562 308.566 88.2869 308.618 88.3807C308.669 88.4716 308.74 88.5355 308.831 88.5724C308.924 88.6094 309.032 88.6278 309.154 88.6278C309.24 88.6278 309.325 88.6207 309.41 88.6065C309.495 88.5895 309.561 88.5767 309.606 88.5682L309.892 89.919C309.801 89.9474 309.673 89.9801 309.508 90.017C309.343 90.0568 309.143 90.081 308.907 90.0895C308.47 90.1065 308.086 90.0483 307.757 89.9148C307.43 89.7812 307.176 89.5739 306.994 89.2926C306.812 89.0114 306.723 88.6562 306.725 88.2273V81.8864ZM312.821 90.1236C312.404 90.1236 312.032 90.0511 311.705 89.9062C311.378 89.7585 311.12 89.5412 310.929 89.2543C310.742 88.9645 310.648 88.6037 310.648 88.1719C310.648 87.8082 310.715 87.5028 310.848 87.2557C310.982 87.0085 311.164 86.8097 311.394 86.6591C311.624 86.5085 311.885 86.3949 312.178 86.3182C312.473 86.2415 312.783 86.1875 313.107 86.1562C313.488 86.1165 313.794 86.0795 314.027 86.0455C314.26 86.0085 314.429 85.9545 314.534 85.8835C314.64 85.8125 314.692 85.7074 314.692 85.5682V85.5426C314.692 85.2727 314.607 85.0639 314.436 84.9162C314.269 84.7685 314.03 84.6946 313.721 84.6946C313.394 84.6946 313.134 84.767 312.941 84.9119C312.748 85.054 312.62 85.233 312.557 85.4489L310.878 85.3125C310.963 84.9148 311.131 84.571 311.381 84.2812C311.631 83.9886 311.953 83.7642 312.348 83.608C312.746 83.4489 313.206 83.3693 313.729 83.3693C314.093 83.3693 314.441 83.4119 314.773 83.4972C315.108 83.5824 315.405 83.7145 315.664 83.8935C315.925 84.0724 316.131 84.3026 316.282 84.5838C316.432 84.8622 316.507 85.196 316.507 85.5852V90H314.786V89.0923H314.735C314.63 89.2969 314.489 89.4773 314.313 89.6335C314.137 89.7869 313.925 89.9077 313.678 89.9957C313.431 90.081 313.145 90.1236 312.821 90.1236ZM313.341 88.8707C313.608 88.8707 313.844 88.8182 314.049 88.7131C314.253 88.6051 314.414 88.4602 314.53 88.2784C314.647 88.0966 314.705 87.8906 314.705 87.6605V86.9659C314.648 87.0028 314.57 87.0369 314.471 87.0682C314.374 87.0966 314.265 87.1236 314.142 87.1491C314.02 87.1719 313.898 87.1932 313.776 87.2131C313.654 87.2301 313.543 87.2457 313.444 87.2599C313.23 87.2912 313.044 87.3409 312.885 87.4091C312.726 87.4773 312.603 87.5696 312.515 87.6861C312.426 87.7997 312.382 87.9418 312.382 88.1122C312.382 88.3594 312.472 88.5483 312.651 88.679C312.833 88.8068 313.063 88.8707 313.341 88.8707ZM319.731 81.2727V90H317.916V81.2727H319.731ZM323.001 81.2727V90H321.185V81.2727H323.001Z" fill="#1D89E5"/>
</g>
<defs>
<clipPath id="clip0_13_944">
<rect width="342" height="104" rx="12" fill="white"/>
</clipPath>
<clipPath id="clip1_13_944">
<rect width="6.0625" height="10.2105" fill="white" transform="translate(23 16)"/>
</clipPath>
</defs>
</svg>
