<svg width="342" height="68" viewBox="0 0 342 68" fill="none" xmlns="http://www.w3.org/2000/svg">
<rect width="342" height="68" rx="12" fill="#E1E1E1"/>
<path d="M303.778 33.6364C303.778 34.5881 303.598 35.3977 303.237 36.0653C302.879 36.733 302.391 37.2429 301.771 37.5952C301.155 37.9446 300.462 38.1193 299.692 38.1193C298.916 38.1193 298.22 37.9432 297.604 37.5909C296.987 37.2386 296.5 36.7287 296.142 36.0611C295.784 35.3935 295.605 34.5852 295.605 33.6364C295.605 32.6847 295.784 31.875 296.142 31.2074C296.5 30.5398 296.987 30.0312 297.604 29.6818C298.22 29.3295 298.916 29.1534 299.692 29.1534C300.462 29.1534 301.155 29.3295 301.771 29.6818C302.391 30.0312 302.879 30.5398 303.237 31.2074C303.598 31.875 303.778 32.6847 303.778 33.6364ZM301.908 33.6364C301.908 33.0199 301.815 32.5 301.631 32.0767C301.449 31.6534 301.192 31.3324 300.859 31.1136C300.527 30.8949 300.138 30.7855 299.692 30.7855C299.246 30.7855 298.857 30.8949 298.524 31.1136C298.192 31.3324 297.933 31.6534 297.749 32.0767C297.567 32.5 297.476 33.0199 297.476 33.6364C297.476 34.2528 297.567 34.7727 297.749 35.196C297.933 35.6193 298.192 35.9403 298.524 36.1591C298.857 36.3778 299.246 36.4872 299.692 36.4872C300.138 36.4872 300.527 36.3778 300.859 36.1591C301.192 35.9403 301.449 35.6193 301.631 35.196C301.815 34.7727 301.908 34.2528 301.908 33.6364ZM305.111 40.4545V31.4545H306.901V32.554H306.982C307.061 32.3778 307.176 32.1989 307.327 32.017C307.48 31.8324 307.679 31.679 307.924 31.5568C308.171 31.4318 308.478 31.3693 308.844 31.3693C309.321 31.3693 309.762 31.4943 310.165 31.7443C310.569 31.9915 310.891 32.3651 311.132 32.8651C311.374 33.3622 311.495 33.9858 311.495 34.7358C311.495 35.4659 311.377 36.0824 311.141 36.5852C310.908 37.0852 310.59 37.4645 310.186 37.723C309.786 37.9787 309.337 38.1065 308.84 38.1065C308.488 38.1065 308.188 38.0483 307.941 37.9318C307.696 37.8153 307.496 37.669 307.34 37.4929C307.184 37.3139 307.064 37.1335 306.982 36.9517H306.926V40.4545H305.111ZM306.888 34.7273C306.888 35.1165 306.942 35.456 307.05 35.7457C307.158 36.0355 307.314 36.2614 307.519 36.4233C307.723 36.5824 307.972 36.6619 308.265 36.6619C308.56 36.6619 308.81 36.581 309.015 36.419C309.219 36.2543 309.374 36.027 309.479 35.7372C309.587 35.4446 309.641 35.108 309.641 34.7273C309.641 34.3494 309.588 34.017 309.483 33.7301C309.378 33.4432 309.223 33.2187 309.019 33.0568C308.814 32.8949 308.563 32.8139 308.265 32.8139C307.969 32.8139 307.719 32.892 307.515 33.0483C307.313 33.2045 307.158 33.4261 307.05 33.7131C306.942 34 306.888 34.3381 306.888 34.7273ZM315.688 38.1278C315.015 38.1278 314.435 37.9915 313.949 37.7188C313.466 37.4432 313.094 37.054 312.833 36.5511C312.571 36.0455 312.441 35.4474 312.441 34.7571C312.441 34.0838 312.571 33.4929 312.833 32.9844C313.094 32.4759 313.462 32.0795 313.936 31.7955C314.414 31.5114 314.973 31.3693 315.615 31.3693C316.047 31.3693 316.449 31.4389 316.821 31.5781C317.196 31.7145 317.523 31.9205 317.801 32.196C318.083 32.4716 318.301 32.8182 318.458 33.2358C318.614 33.6506 318.692 34.1364 318.692 34.6932V35.1918H313.165V34.0668H316.983C316.983 33.8054 316.926 33.5739 316.813 33.3722C316.699 33.1705 316.542 33.0128 316.34 32.8991C316.141 32.7827 315.909 32.7244 315.645 32.7244C315.37 32.7244 315.125 32.7884 314.912 32.9162C314.702 33.0412 314.537 33.2102 314.418 33.4233C314.299 33.6335 314.238 33.8679 314.235 34.1264V35.196C314.235 35.5199 314.294 35.7997 314.414 36.0355C314.536 36.2713 314.708 36.4531 314.929 36.581C315.151 36.7088 315.414 36.7727 315.718 36.7727C315.919 36.7727 316.104 36.7443 316.272 36.6875C316.439 36.6307 316.583 36.5455 316.702 36.4318C316.821 36.3182 316.912 36.179 316.975 36.0142L318.654 36.125C318.569 36.5284 318.394 36.8807 318.13 37.1818C317.868 37.4801 317.53 37.7131 317.115 37.8807C316.703 38.0455 316.228 38.1278 315.688 38.1278ZM321.692 34.2159V38H319.877V31.4545H321.607V32.6094H321.684C321.828 32.2287 322.071 31.9276 322.412 31.706C322.753 31.4815 323.167 31.3693 323.652 31.3693C324.107 31.3693 324.503 31.4688 324.841 31.6676C325.179 31.8665 325.442 32.1506 325.63 32.5199C325.817 32.8864 325.911 33.3239 325.911 33.8324V38H324.096V34.1562C324.098 33.7557 323.996 33.4432 323.789 33.2188C323.581 32.9915 323.296 32.8778 322.932 32.8778C322.688 32.8778 322.472 32.9304 322.284 33.0355C322.1 33.1406 321.955 33.294 321.85 33.4957C321.748 33.6946 321.695 33.9347 321.692 34.2159Z" fill="#1D89E5"/>
<g opacity="0.4">
<path d="M60.1186 33V22.8182H66.4325V24.1406H61.6548V27.2429H65.9801V28.5604H61.6548V33H60.1186ZM68.2024 33V25.3636H69.6889V33H68.2024ZM68.9531 24.1854C68.6946 24.1854 68.4725 24.0992 68.2869 23.9268C68.1046 23.7512 68.0135 23.5424 68.0135 23.3004C68.0135 23.0552 68.1046 22.8464 68.2869 22.674C68.4725 22.4983 68.6946 22.4105 68.9531 22.4105C69.2116 22.4105 69.4321 22.4983 69.6143 22.674C69.8 22.8464 69.8928 23.0552 69.8928 23.3004C69.8928 23.5424 69.8 23.7512 69.6143 23.9268C69.4321 24.0992 69.2116 24.1854 68.9531 24.1854ZM73.1752 22.8182V33H71.6887V22.8182H73.1752ZM78.4663 33.1541C77.7139 33.1541 77.0659 32.9934 76.5224 32.6719C75.9821 32.3471 75.5645 31.8913 75.2695 31.3047C74.9779 30.7147 74.832 30.0237 74.832 29.2315C74.832 28.4493 74.9779 27.7599 75.2695 27.1634C75.5645 26.5668 75.9755 26.1011 76.5025 25.7663C77.0328 25.4316 77.6526 25.2642 78.3619 25.2642C78.7927 25.2642 79.2103 25.3355 79.6147 25.478C80.0191 25.6205 80.382 25.8442 80.7035 26.1491C81.025 26.4541 81.2785 26.8501 81.4641 27.3374C81.6497 27.8213 81.7425 28.4096 81.7425 29.1023V29.6293H75.6722V28.5156H80.2859C80.2859 28.1245 80.2063 27.7782 80.0472 27.4766C79.8881 27.1716 79.6644 26.9313 79.3761 26.7557C79.091 26.58 78.7563 26.4922 78.3718 26.4922C77.9542 26.4922 77.5896 26.5949 77.2781 26.8004C76.9698 27.0026 76.7312 27.2678 76.5621 27.5959C76.3964 27.9207 76.3136 28.2737 76.3136 28.6548V29.5249C76.3136 30.0353 76.4031 30.4695 76.582 30.8274C76.7643 31.1854 77.0179 31.4588 77.3427 31.6477C77.6675 31.8333 78.047 31.9261 78.4812 31.9261C78.7629 31.9261 79.0198 31.8864 79.2518 31.8068C79.4838 31.724 79.6843 31.6013 79.8533 31.4389C80.0224 31.2765 80.1516 31.076 80.2411 30.8374L81.6481 31.0909C81.5354 31.5052 81.3332 31.8681 81.0415 32.1797C80.7532 32.4879 80.3903 32.7282 79.9528 32.9006C79.5186 33.0696 79.0231 33.1541 78.4663 33.1541ZM89.9556 33.1491C89.3391 33.1491 88.7889 32.9917 88.305 32.6768C87.8245 32.3587 87.4466 31.9062 87.1715 31.3196C86.8997 30.7296 86.7638 30.022 86.7638 29.1967C86.7638 28.3714 86.9014 27.6655 87.1765 27.0788C87.4549 26.4922 87.8361 26.0431 88.32 25.7315C88.8039 25.42 89.3524 25.2642 89.9656 25.2642C90.4395 25.2642 90.8207 25.3438 91.109 25.5028C91.4007 25.6586 91.6261 25.8409 91.7852 26.0497C91.9476 26.2585 92.0735 26.4425 92.163 26.6016H92.2525V22.8182H93.739V33H92.2873V31.8118H92.163C92.0735 31.9742 91.9442 32.1598 91.7752 32.3686C91.6095 32.5774 91.3808 32.7597 91.0891 32.9155C90.7975 33.0713 90.4196 33.1491 89.9556 33.1491ZM90.2837 31.8814C90.7113 31.8814 91.0726 31.7687 91.3675 31.5433C91.6658 31.3146 91.8912 30.9981 92.0437 30.5938C92.1995 30.1894 92.2773 29.7187 92.2773 29.1818C92.2773 28.6515 92.2011 28.1875 92.0487 27.7898C91.8962 27.392 91.6725 27.0821 91.3775 26.8601C91.0825 26.638 90.7179 26.527 90.2837 26.527C89.8363 26.527 89.4634 26.643 89.1651 26.875C88.8668 27.107 88.6415 27.4235 88.489 27.8246C88.3398 28.2256 88.2653 28.678 88.2653 29.1818C88.2653 29.6922 88.3415 30.1513 88.494 30.5589C88.6464 30.9666 88.8718 31.2898 89.1701 31.5284C89.4717 31.7637 89.8429 31.8814 90.2837 31.8814ZM99.0772 33.1541C98.3613 33.1541 97.7366 32.9901 97.2029 32.6619C96.6693 32.3338 96.255 31.8748 95.96 31.2848C95.6651 30.6948 95.5176 30.0054 95.5176 29.2166C95.5176 28.4245 95.6651 27.7318 95.96 27.1385C96.255 26.5452 96.6693 26.0845 97.2029 25.7564C97.7366 25.4283 98.3613 25.2642 99.0772 25.2642C99.7931 25.2642 100.418 25.4283 100.952 25.7564C101.485 26.0845 101.899 26.5452 102.194 27.1385C102.489 27.7318 102.637 28.4245 102.637 29.2166C102.637 30.0054 102.489 30.6948 102.194 31.2848C101.899 31.8748 101.485 32.3338 100.952 32.6619C100.418 32.9901 99.7931 33.1541 99.0772 33.1541ZM99.0822 31.9062C99.5462 31.9062 99.9307 31.7836 100.236 31.5384C100.541 31.2931 100.766 30.9666 100.912 30.5589C101.061 30.1513 101.135 29.7022 101.135 29.2116C101.135 28.7244 101.061 28.277 100.912 27.8693C100.766 27.4583 100.541 27.1286 100.236 26.88C99.9307 26.6314 99.5462 26.5071 99.0822 26.5071C98.6149 26.5071 98.2271 26.6314 97.9189 26.88C97.6139 27.1286 97.3869 27.4583 97.2377 27.8693C97.0919 28.277 97.019 28.7244 97.019 29.2116C97.019 29.7022 97.0919 30.1513 97.2377 30.5589C97.3869 30.9666 97.6139 31.2931 97.9189 31.5384C98.2271 31.7836 98.6149 31.9062 99.0822 31.9062ZM105.719 33L103.472 25.3636H105.008L106.505 30.9716H106.579L108.081 25.3636H109.617L111.108 30.9467H111.183L112.67 25.3636H114.206L111.964 33H110.447L108.896 27.4865H108.782L107.231 33H105.719ZM117.103 28.4659V33H115.616V25.3636H117.043V26.6065H117.138C117.313 26.2022 117.589 25.8774 117.963 25.6321C118.341 25.3868 118.817 25.2642 119.39 25.2642C119.91 25.2642 120.366 25.3736 120.757 25.5923C121.148 25.8078 121.451 26.1293 121.667 26.5568C121.882 26.9844 121.99 27.513 121.99 28.1428V33H120.504V28.3217C120.504 27.7682 120.359 27.3357 120.071 27.0241C119.783 26.7093 119.387 26.5518 118.883 26.5518C118.538 26.5518 118.232 26.6264 117.963 26.7756C117.698 26.9247 117.487 27.1435 117.332 27.4318C117.179 27.7169 117.103 28.0616 117.103 28.4659ZM125.47 22.8182V33H123.984V22.8182H125.47ZM130.687 33.1541C129.971 33.1541 129.346 32.9901 128.812 32.6619C128.279 32.3338 127.864 31.8748 127.569 31.2848C127.274 30.6948 127.127 30.0054 127.127 29.2166C127.127 28.4245 127.274 27.7318 127.569 27.1385C127.864 26.5452 128.279 26.0845 128.812 25.7564C129.346 25.4283 129.971 25.2642 130.687 25.2642C131.403 25.2642 132.027 25.4283 132.561 25.7564C133.095 26.0845 133.509 26.5452 133.804 27.1385C134.099 27.7318 134.246 28.4245 134.246 29.2166C134.246 30.0054 134.099 30.6948 133.804 31.2848C133.509 31.8748 133.095 32.3338 132.561 32.6619C132.027 32.9901 131.403 33.1541 130.687 33.1541ZM130.692 31.9062C131.156 31.9062 131.54 31.7836 131.845 31.5384C132.15 31.2931 132.375 30.9666 132.521 30.5589C132.67 30.1513 132.745 29.7022 132.745 29.2116C132.745 28.7244 132.67 28.277 132.521 27.8693C132.375 27.4583 132.15 27.1286 131.845 26.88C131.54 26.6314 131.156 26.5071 130.692 26.5071C130.224 26.5071 129.836 26.6314 129.528 26.88C129.223 27.1286 128.996 27.4583 128.847 27.8693C128.701 28.277 128.628 28.7244 128.628 29.2116C128.628 29.7022 128.701 30.1513 128.847 30.5589C128.996 30.9666 129.223 31.2931 129.528 31.5384C129.836 31.7836 130.224 31.9062 130.692 31.9062ZM138.128 33.169C137.644 33.169 137.206 33.0795 136.815 32.9006C136.424 32.7183 136.114 32.4548 135.886 32.1101C135.66 31.7654 135.548 31.3428 135.548 30.8423C135.548 30.4115 135.63 30.0568 135.796 29.7784C135.962 29.5 136.186 29.2796 136.467 29.1172C136.749 28.9548 137.064 28.8321 137.412 28.7493C137.76 28.6664 138.115 28.6035 138.476 28.5604C138.933 28.5073 139.304 28.4643 139.589 28.4311C139.875 28.3946 140.082 28.3366 140.211 28.2571C140.34 28.1776 140.405 28.0483 140.405 27.8693V27.8345C140.405 27.4003 140.282 27.0639 140.037 26.8253C139.795 26.5866 139.434 26.4673 138.953 26.4673C138.453 26.4673 138.058 26.5784 137.77 26.8004C137.485 27.0192 137.288 27.2628 137.178 27.5312L135.781 27.2131C135.947 26.7491 136.189 26.3745 136.507 26.0895C136.829 25.8011 137.198 25.5923 137.616 25.4631C138.033 25.3305 138.473 25.2642 138.933 25.2642C139.238 25.2642 139.561 25.3007 139.903 25.3736C140.247 25.4432 140.569 25.5724 140.867 25.7614C141.169 25.9503 141.416 26.2204 141.608 26.5717C141.8 26.9197 141.896 27.3722 141.896 27.929V33H140.445V31.956H140.385C140.289 32.1482 140.145 32.3371 139.952 32.5227C139.76 32.7083 139.513 32.8625 139.212 32.9851C138.91 33.1077 138.549 33.169 138.128 33.169ZM138.451 31.9759C138.862 31.9759 139.213 31.8946 139.505 31.7322C139.8 31.5698 140.024 31.3577 140.176 31.0959C140.332 30.8307 140.41 30.5473 140.41 30.2457V29.2614C140.357 29.3144 140.254 29.3641 140.102 29.4105C139.952 29.4536 139.782 29.4917 139.589 29.5249C139.397 29.5547 139.21 29.5829 139.028 29.6094C138.845 29.6326 138.693 29.6525 138.57 29.669C138.282 29.7055 138.018 29.7668 137.78 29.853C137.545 29.9392 137.356 30.0634 137.213 30.2259C137.074 30.3849 137.004 30.5971 137.004 30.8622C137.004 31.2301 137.14 31.5085 137.412 31.6974C137.684 31.883 138.03 31.9759 138.451 31.9759ZM146.735 33.1491C146.118 33.1491 145.568 32.9917 145.084 32.6768C144.604 32.3587 144.226 31.9062 143.951 31.3196C143.679 30.7296 143.543 30.022 143.543 29.1967C143.543 28.3714 143.681 27.6655 143.956 27.0788C144.234 26.4922 144.615 26.0431 145.099 25.7315C145.583 25.42 146.132 25.2642 146.745 25.2642C147.219 25.2642 147.6 25.3438 147.888 25.5028C148.18 25.6586 148.405 25.8409 148.564 26.0497C148.727 26.2585 148.853 26.4425 148.942 26.6016H149.032V22.8182H150.518V33H149.067V31.8118H148.942C148.853 31.9742 148.724 32.1598 148.555 32.3686C148.389 32.5774 148.16 32.7597 147.868 32.9155C147.577 33.0713 147.199 33.1491 146.735 33.1491ZM147.063 31.8814C147.491 31.8814 147.852 31.7687 148.147 31.5433C148.445 31.3146 148.671 30.9981 148.823 30.5938C148.979 30.1894 149.057 29.7187 149.057 29.1818C149.057 28.6515 148.98 28.1875 148.828 27.7898C148.675 27.392 148.452 27.0821 148.157 26.8601C147.862 26.638 147.497 26.527 147.063 26.527C146.616 26.527 146.243 26.643 145.944 26.875C145.646 27.107 145.421 27.4235 145.268 27.8246C145.119 28.2256 145.045 28.678 145.045 29.1818C145.045 29.6922 145.121 30.1513 145.273 30.5589C145.426 30.9666 145.651 31.2898 145.949 31.5284C146.251 31.7637 146.622 31.8814 147.063 31.8814ZM155.931 33.1541C155.179 33.1541 154.531 32.9934 153.987 32.6719C153.447 32.3471 153.029 31.8913 152.734 31.3047C152.443 30.7147 152.297 30.0237 152.297 29.2315C152.297 28.4493 152.443 27.7599 152.734 27.1634C153.029 26.5668 153.44 26.1011 153.967 25.7663C154.498 25.4316 155.117 25.2642 155.827 25.2642C156.258 25.2642 156.675 25.3355 157.08 25.478C157.484 25.6205 157.847 25.8442 158.168 26.1491C158.49 26.4541 158.743 26.8501 158.929 27.3374C159.115 27.8213 159.207 28.4096 159.207 29.1023V29.6293H153.137V28.5156H157.751C157.751 28.1245 157.671 27.7782 157.512 27.4766C157.353 27.1716 157.129 26.9313 156.841 26.7557C156.556 26.58 156.221 26.4922 155.837 26.4922C155.419 26.4922 155.054 26.5949 154.743 26.8004C154.435 27.0026 154.196 27.2678 154.027 27.5959C153.861 27.9207 153.778 28.2737 153.778 28.6548V29.5249C153.778 30.0353 153.868 30.4695 154.047 30.8274C154.229 31.1854 154.483 31.4588 154.808 31.6477C155.132 31.8333 155.512 31.9261 155.946 31.9261C156.228 31.9261 156.485 31.8864 156.717 31.8068C156.949 31.724 157.149 31.6013 157.318 31.4389C157.487 31.2765 157.616 31.076 157.706 30.8374L159.113 31.0909C159 31.5052 158.798 31.8681 158.506 32.1797C158.218 32.4879 157.855 32.7282 157.418 32.9006C156.983 33.0696 156.488 33.1541 155.931 33.1541ZM163.715 33.1491C163.099 33.1491 162.549 32.9917 162.065 32.6768C161.584 32.3587 161.206 31.9062 160.931 31.3196C160.66 30.7296 160.524 30.022 160.524 29.1967C160.524 28.3714 160.661 27.6655 160.936 27.0788C161.215 26.4922 161.596 26.0431 162.08 25.7315C162.564 25.42 163.112 25.2642 163.725 25.2642C164.199 25.2642 164.58 25.3438 164.869 25.5028C165.16 25.6586 165.386 25.8409 165.545 26.0497C165.707 26.2585 165.833 26.4425 165.923 26.6016H166.012V22.8182H167.499V33H166.047V31.8118H165.923C165.833 31.9742 165.704 32.1598 165.535 32.3686C165.369 32.5774 165.141 32.7597 164.849 32.9155C164.557 33.0713 164.179 33.1491 163.715 33.1491ZM164.044 31.8814C164.471 31.8814 164.832 31.7687 165.127 31.5433C165.426 31.3146 165.651 30.9981 165.803 30.5938C165.959 30.1894 166.037 29.7187 166.037 29.1818C166.037 28.6515 165.961 28.1875 165.808 27.7898C165.656 27.392 165.432 27.0821 165.137 26.8601C164.842 26.638 164.478 26.527 164.044 26.527C163.596 26.527 163.223 26.643 162.925 26.875C162.627 27.107 162.401 27.4235 162.249 27.8246C162.1 28.2256 162.025 28.678 162.025 29.1818C162.025 29.6922 162.101 30.1513 162.254 30.5589C162.406 30.9666 162.632 31.2898 162.93 31.5284C163.231 31.7637 163.603 31.8814 164.044 31.8814Z" fill="#202428"/>
</g>
<path opacity="0.4" d="M60.0227 44.3636C60.0227 43.4735 60.1399 42.6544 60.3743 41.9062C60.6087 41.1581 60.9508 40.468 61.4006 39.8359H62.3736C62.1984 40.0703 62.035 40.358 61.8835 40.6989C61.732 41.0398 61.5994 41.4138 61.4858 41.821C61.3722 42.2259 61.2834 42.6461 61.2195 43.0817C61.1555 43.5149 61.1236 43.9422 61.1236 44.3636C61.1236 44.9271 61.1792 45.4976 61.2905 46.0753C61.4018 46.6529 61.5521 47.1892 61.7415 47.6839C61.9309 48.1787 62.1416 48.5824 62.3736 48.8949H61.4006C60.9508 48.2628 60.6087 47.5727 60.3743 46.8246C60.1399 46.0765 60.0227 45.2562 60.0227 44.3636ZM66.2381 40.7273V48H65.1373V41.8281H65.0946L63.3546 42.9645V41.9134L65.1692 40.7273H66.2381ZM70.606 48.0994C70.1609 48.0994 69.7608 48.0142 69.4057 47.8438C69.053 47.6709 68.7712 47.4342 68.5605 47.1335C68.3498 46.8329 68.2374 46.4896 68.2232 46.1037H69.2885C69.3146 46.4162 69.4531 46.6731 69.704 46.8743C69.955 47.0755 70.2556 47.1761 70.606 47.1761C70.8854 47.1761 71.1328 47.1122 71.3482 46.9844C71.566 46.8542 71.7364 46.6754 71.8596 46.4482C71.985 46.2209 72.0478 45.9616 72.0478 45.6705C72.0478 45.3745 71.9838 45.1106 71.856 44.8786C71.7282 44.6465 71.5518 44.4643 71.3269 44.3317C71.1043 44.1991 70.8487 44.1316 70.5598 44.1293C70.3397 44.1293 70.1183 44.1671 69.8958 44.2429C69.6732 44.3187 69.4933 44.4181 69.356 44.5412L68.351 44.392L68.7594 40.7273H72.758V41.6683H69.6721L69.4412 43.7031H69.4838C69.6259 43.5658 69.8141 43.451 70.0485 43.3587C70.2852 43.2663 70.5385 43.2202 70.8084 43.2202C71.2511 43.2202 71.6453 43.3255 71.9909 43.5362C72.339 43.7469 72.6124 44.0346 72.8113 44.3991C73.0125 44.7614 73.1119 45.178 73.1096 45.6491C73.1119 46.1203 73.0054 46.5405 72.79 46.9098C72.5769 47.2791 72.281 47.5703 71.9022 47.7834C71.5257 47.9941 71.0937 48.0994 70.606 48.0994ZM74.8567 48.0675C74.6626 48.0675 74.4957 47.9988 74.356 47.8615C74.2163 47.7218 74.1465 47.5537 74.1465 47.3572C74.1465 47.1631 74.2163 46.9974 74.356 46.8601C74.4957 46.7204 74.6626 46.6506 74.8567 46.6506C75.0508 46.6506 75.2177 46.7204 75.3574 46.8601C75.4971 46.9974 75.5669 47.1631 75.5669 47.3572C75.5669 47.4875 75.5338 47.607 75.4675 47.7159C75.4036 47.8224 75.3184 47.9077 75.2118 47.9716C75.1053 48.0355 74.9869 48.0675 74.8567 48.0675ZM78.8553 40.7273V48H77.7544V41.8281H77.7118L75.9718 42.9645V41.9134L77.7864 40.7273H78.8553ZM83.28 48.0994C82.771 48.0994 82.3212 48.0118 81.9306 47.8366C81.5423 47.6615 81.2381 47.42 81.0179 47.1122C80.7978 46.8045 80.6889 46.4541 80.6912 46.0611C80.6889 45.7533 80.7516 45.4704 80.8794 45.2124C81.0096 44.9519 81.186 44.7353 81.4086 44.5625C81.6311 44.3873 81.8797 44.276 82.1543 44.2287V44.1861C81.7921 44.0985 81.5021 43.9044 81.2843 43.6037C81.0665 43.303 80.9587 42.9574 80.9611 42.5668C80.9587 42.1951 81.057 41.8636 81.2559 41.5724C81.4571 41.2789 81.7329 41.0481 82.0833 40.88C82.4337 40.7119 82.8326 40.6278 83.28 40.6278C83.7227 40.6278 84.1181 40.7131 84.4661 40.8835C84.8165 41.0516 85.0923 41.2824 85.2935 41.576C85.4947 41.8672 85.5965 42.1974 85.5989 42.5668C85.5965 42.9574 85.4853 43.303 85.2651 43.6037C85.0449 43.9044 84.7585 44.0985 84.4057 44.1861V44.2287C84.678 44.276 84.923 44.3873 85.1408 44.5625C85.361 44.7353 85.5362 44.9519 85.6664 45.2124C85.7989 45.4704 85.8664 45.7533 85.8688 46.0611C85.8664 46.4541 85.7551 46.8045 85.535 47.1122C85.3148 47.42 85.0094 47.6615 84.6188 47.8366C84.2305 48.0118 83.7843 48.0994 83.28 48.0994ZM83.28 47.201C83.5807 47.201 83.8411 47.1513 84.0613 47.0518C84.2814 46.95 84.4519 46.8092 84.5726 46.6293C84.6934 46.447 84.7549 46.2339 84.7573 45.9901C84.7549 45.7367 84.6886 45.513 84.5584 45.3189C84.4306 45.1248 84.2566 44.9721 84.0364 44.8608C83.8162 44.7495 83.5641 44.6939 83.28 44.6939C82.9935 44.6939 82.7391 44.7495 82.5165 44.8608C82.294 44.9721 82.1188 45.1248 81.9909 45.3189C81.8631 45.513 81.8004 45.7367 81.8027 45.9901C81.8004 46.2339 81.8584 46.447 81.9767 46.6293C82.0975 46.8092 82.2691 46.95 82.4917 47.0518C82.7142 47.1513 82.977 47.201 83.28 47.201ZM83.28 43.8168C83.5215 43.8168 83.7357 43.7682 83.9228 43.6712C84.1098 43.5741 84.2566 43.4392 84.3631 43.2663C84.472 43.0935 84.5276 42.8911 84.53 42.6591C84.5276 42.4318 84.4732 42.233 84.3667 42.0625C84.2625 41.892 84.1169 41.7607 83.9299 41.6683C83.7428 41.5736 83.5262 41.5263 83.28 41.5263C83.0291 41.5263 82.8089 41.5736 82.6195 41.6683C82.4325 41.7607 82.2869 41.892 82.1827 42.0625C82.0785 42.233 82.0276 42.4318 82.03 42.6591C82.0276 42.8911 82.0797 43.0935 82.1863 43.2663C82.2928 43.4392 82.4396 43.5741 82.6266 43.6712C82.816 43.7682 83.0338 43.8168 83.28 43.8168ZM89.8869 40.7273H91.2186L93.5339 46.3807H93.6191L95.9345 40.7273H97.2662V48H96.2221V42.7372H96.1547L94.0098 47.9893H93.1433L90.9984 42.7337H90.9309V48H89.8869V40.7273ZM98.8615 48V40.7273H101.525C102.041 40.7273 102.468 40.8125 102.807 40.983C103.145 41.151 103.399 41.3795 103.567 41.6683C103.735 41.9548 103.819 42.2779 103.819 42.6378C103.819 42.9408 103.763 43.1965 103.652 43.4048C103.541 43.6108 103.392 43.7765 103.205 43.902C103.02 44.0251 102.816 44.1151 102.594 44.1719V44.2429C102.835 44.2547 103.071 44.3329 103.3 44.4773C103.532 44.6193 103.724 44.8217 103.876 45.0845C104.027 45.3473 104.103 45.6669 104.103 46.0433C104.103 46.415 104.015 46.7488 103.84 47.0447C103.667 47.3383 103.4 47.5715 103.038 47.7443C102.675 47.9148 102.213 48 101.649 48H98.8615ZM99.9588 47.0589H101.543C102.068 47.0589 102.445 46.9571 102.672 46.7536C102.899 46.55 103.013 46.2955 103.013 45.9901C103.013 45.7604 102.955 45.5497 102.839 45.358C102.723 45.1662 102.557 45.0135 102.342 44.8999C102.129 44.7862 101.875 44.7294 101.582 44.7294H99.9588V47.0589ZM99.9588 43.8736H101.429C101.675 43.8736 101.897 43.8262 102.093 43.7315C102.292 43.6368 102.449 43.5043 102.565 43.3338C102.684 43.161 102.743 42.9574 102.743 42.723C102.743 42.4223 102.638 42.1702 102.427 41.9666C102.216 41.763 101.893 41.6612 101.457 41.6612H99.9588V43.8736ZM107.361 44.3636C107.361 45.2562 107.244 46.0765 107.01 46.8246C106.775 47.5727 106.433 48.2628 105.983 48.8949H105.01C105.185 48.6605 105.349 48.3729 105.5 48.032C105.652 47.6911 105.784 47.3182 105.898 46.9134C106.012 46.5062 106.1 46.0848 106.164 45.6491C106.228 45.2135 106.26 44.785 106.26 44.3636C106.26 43.8026 106.205 43.2332 106.093 42.6555C105.982 42.0779 105.832 41.5417 105.642 41.0469C105.453 40.5521 105.242 40.1484 105.01 39.8359H105.983C106.433 40.468 106.775 41.1581 107.01 41.9062C107.244 42.6544 107.361 43.4735 107.361 44.3636Z" fill="#202428"/>
<g opacity="0.4">
<path d="M43.8332 26.75L29.6248 40.9583L23.1665 34.5" stroke="#202428" stroke-width="2" stroke-linecap="round" stroke-linejoin="round"/>
</g>
</svg>
