<svg width="225" height="225" viewBox="0 0 225 225" fill="none" xmlns="http://www.w3.org/2000/svg">
<rect width="225" height="225" fill="url(#paint0_radial_11122_21763)" fill-opacity="0.08"/>
<g filter="url(#filter0_i_11122_21763)">
<path d="M161.684 81.7308C162.637 91.3299 159.953 98.629 153.635 103.628C152.175 104.783 152.508 107.465 154.245 108.133C159.22 110.045 163.114 112.815 165.929 116.442C169.659 121.25 171.106 128.109 170.27 137.019C169.82 141.571 168.775 145.577 167.135 149.038C165.495 152.5 163.421 155.353 160.912 157.596C158.404 159.84 155.285 161.715 151.554 163.221C147.824 164.728 143.917 165.833 139.832 166.538C136.246 167.158 132.201 167.604 127.698 167.877C126.633 167.942 125.795 168.819 125.795 169.886V190.5C125.795 191.605 124.9 192.5 123.795 192.5H112.938C111.833 192.5 110.938 191.605 110.938 190.5V170.365C110.938 169.261 110.042 168.366 108.937 168.364C105.867 168.358 103.293 168.34 101.215 168.308C100.092 168.291 99.1681 169.194 99.1681 170.317V190.5C99.1681 191.605 98.2726 192.5 97.1681 192.5H86.3109C85.2063 192.5 84.3109 191.605 84.3109 190.5V169.981C84.3109 168.876 83.4155 167.98 82.311 167.97C81.4056 167.962 80.3357 167.95 79.1012 167.933C76.7858 167.901 75.0171 167.885 73.7951 167.885H56.8686C55.6301 167.885 54.6894 166.77 54.8969 165.549L57.2078 151.953C57.3712 150.992 58.2042 150.288 59.1795 150.288H68.1995C71.364 150.288 73.2206 148.706 73.7694 145.54C73.7872 145.437 73.7951 145.332 73.7951 145.228V106.848C73.7951 106.783 73.8477 106.731 73.9127 106.731C74.0571 106.731 74.0847 106.636 73.9402 106.635C73.8751 106.635 73.7951 106.582 73.7951 106.517V79.2285C73.7951 79.1021 73.7833 78.9746 73.7575 78.8508C72.8758 74.6169 70.0262 72.5 65.2088 72.5H56.5C55.3954 72.5 54.5 71.6046 54.5 70.5V58.7402C54.5 57.632 55.4012 56.735 56.5094 56.7402L74.9528 56.8269C77.9566 56.8269 80.4295 56.8099 82.3716 56.7757C83.4525 56.7567 84.3109 55.8713 84.3109 54.7903V34.5C84.3109 33.3954 85.2063 32.5 86.3109 32.5H97.1681C98.2726 32.5 99.1681 33.3954 99.1681 34.5V54.2008C99.1681 55.3244 100.094 56.2273 101.218 56.2019C104.336 56.1314 106.91 56.0868 108.939 56.068C110.044 56.0577 110.938 55.1623 110.938 54.0577V34.5C110.938 33.3954 111.833 32.5 112.938 32.5H123.795C124.9 32.5 125.795 33.3954 125.795 34.5V54.8996C125.795 55.936 126.587 56.7986 127.618 56.906C131.96 57.3584 135.854 58.0211 139.302 58.8942C143.225 59.8878 146.859 61.3301 150.203 63.2212C153.548 65.1122 156.201 67.6122 158.163 70.7212C160.124 73.8301 161.298 77.5 161.684 81.7308ZM140.942 134.135C140.942 131.827 140.459 129.776 139.495 127.981C138.53 126.186 137.34 124.712 135.925 123.558C134.51 122.404 132.661 121.426 130.378 120.625C128.095 119.824 125.988 119.231 124.059 118.846C122.129 118.462 119.749 118.173 116.92 117.981C114.09 117.788 111.871 117.692 110.263 117.692C108.655 117.692 106.581 117.724 104.04 117.788C103.014 117.814 102.153 117.835 101.457 117.85C100.353 117.875 99.4575 118.78 99.4575 119.885V148.385C99.4575 149.489 100.353 150.39 101.457 150.407C101.913 150.414 102.436 150.423 103.027 150.433C104.892 150.465 106.436 150.481 107.658 150.481C108.88 150.481 110.584 150.433 112.771 150.337C114.958 150.24 116.839 150.112 118.415 149.952C119.991 149.792 121.824 149.519 123.914 149.135C126.004 148.75 127.789 148.301 129.268 147.788C130.748 147.276 132.275 146.603 133.851 145.769C135.427 144.936 136.697 143.974 137.662 142.885C138.626 141.795 139.414 140.513 140.025 139.038C140.636 137.564 140.942 135.929 140.942 134.135ZM134.092 88.3654C134.092 86.25 133.69 84.375 132.886 82.7404C132.082 81.1058 131.101 79.7596 129.944 78.7019C128.786 77.6442 127.242 76.7468 125.313 76.0096C123.383 75.2724 121.615 74.7436 120.007 74.4231C118.399 74.1026 116.421 73.8462 114.074 73.6538C111.726 73.4615 109.861 73.3814 108.478 73.4135C107.095 73.4455 105.359 73.4776 103.268 73.5096C102.574 73.5203 101.97 73.5291 101.457 73.5363C100.352 73.5515 99.4575 74.4531 99.4575 75.5577V101.077C99.4575 102.181 100.352 103.086 101.457 103.103C101.846 103.109 102.289 103.117 102.786 103.125C104.683 103.157 106.179 103.157 107.272 103.125C108.365 103.093 109.973 103.029 112.096 102.933C114.218 102.837 115.987 102.66 117.402 102.404C118.817 102.147 120.473 101.795 122.37 101.346C124.268 100.897 125.827 100.304 127.049 99.5673C128.271 98.8301 129.461 97.9647 130.619 96.9712C131.777 95.9776 132.645 94.7436 133.224 93.2692C133.803 91.7949 134.092 90.1603 134.092 88.3654Z" fill="url(#paint1_radial_11122_21763)" fill-opacity="0.5"/>
</g>
<path d="M161.684 81.7308C162.637 91.3299 159.953 98.629 153.635 103.628C152.175 104.783 152.508 107.465 154.245 108.133C159.22 110.045 163.114 112.815 165.929 116.442C169.659 121.25 171.106 128.109 170.27 137.019C169.82 141.571 168.775 145.577 167.135 149.038C165.495 152.5 163.421 155.353 160.912 157.596C158.404 159.84 155.285 161.715 151.554 163.221C147.824 164.728 143.917 165.833 139.832 166.538C136.246 167.158 132.201 167.604 127.698 167.877C126.633 167.942 125.795 168.819 125.795 169.886V190.5C125.795 191.605 124.9 192.5 123.795 192.5H112.938C111.833 192.5 110.938 191.605 110.938 190.5V170.365C110.938 169.261 110.042 168.366 108.937 168.364C105.867 168.358 103.293 168.34 101.215 168.308C100.092 168.291 99.1681 169.194 99.1681 170.317V190.5C99.1681 191.605 98.2726 192.5 97.1681 192.5H86.3109C85.2063 192.5 84.3109 191.605 84.3109 190.5V169.981C84.3109 168.876 83.4155 167.98 82.311 167.97C81.4056 167.962 80.3357 167.95 79.1012 167.933C76.7858 167.901 75.0171 167.885 73.7951 167.885H56.8686C55.6301 167.885 54.6894 166.77 54.8969 165.549L57.2078 151.953C57.3712 150.992 58.2042 150.288 59.1795 150.288H68.1995C71.364 150.288 73.2206 148.706 73.7694 145.54C73.7872 145.437 73.7951 145.332 73.7951 145.228V106.848C73.7951 106.783 73.8477 106.731 73.9127 106.731C74.0571 106.731 74.0847 106.636 73.9402 106.635C73.8751 106.635 73.7951 106.582 73.7951 106.517V79.2285C73.7951 79.1021 73.7833 78.9746 73.7575 78.8508C72.8758 74.6169 70.0262 72.5 65.2088 72.5H56.5C55.3954 72.5 54.5 71.6046 54.5 70.5V58.7402C54.5 57.632 55.4012 56.735 56.5094 56.7402L74.9528 56.8269C77.9566 56.8269 80.4295 56.8099 82.3716 56.7757C83.4525 56.7567 84.3109 55.8713 84.3109 54.7903V34.5C84.3109 33.3954 85.2063 32.5 86.3109 32.5H97.1681C98.2726 32.5 99.1681 33.3954 99.1681 34.5V54.2008C99.1681 55.3244 100.094 56.2273 101.218 56.2019C104.336 56.1314 106.91 56.0868 108.939 56.068C110.044 56.0577 110.938 55.1623 110.938 54.0577V34.5C110.938 33.3954 111.833 32.5 112.938 32.5H123.795C124.9 32.5 125.795 33.3954 125.795 34.5V54.8996C125.795 55.936 126.587 56.7986 127.618 56.906C131.96 57.3584 135.854 58.0211 139.302 58.8942C143.225 59.8878 146.859 61.3301 150.203 63.2212C153.548 65.1122 156.201 67.6122 158.163 70.7212C160.124 73.8301 161.298 77.5 161.684 81.7308ZM140.942 134.135C140.942 131.827 140.459 129.776 139.495 127.981C138.53 126.186 137.34 124.712 135.925 123.558C134.51 122.404 132.661 121.426 130.378 120.625C128.095 119.824 125.988 119.231 124.059 118.846C122.129 118.462 119.749 118.173 116.92 117.981C114.09 117.788 111.871 117.692 110.263 117.692C108.655 117.692 106.581 117.724 104.04 117.788C103.014 117.814 102.153 117.835 101.457 117.85C100.353 117.875 99.4575 118.78 99.4575 119.885V148.385C99.4575 149.489 100.353 150.39 101.457 150.407C101.913 150.414 102.436 150.423 103.027 150.433C104.892 150.465 106.436 150.481 107.658 150.481C108.88 150.481 110.584 150.433 112.771 150.337C114.958 150.24 116.839 150.112 118.415 149.952C119.991 149.792 121.824 149.519 123.914 149.135C126.004 148.75 127.789 148.301 129.268 147.788C130.748 147.276 132.275 146.603 133.851 145.769C135.427 144.936 136.697 143.974 137.662 142.885C138.626 141.795 139.414 140.513 140.025 139.038C140.636 137.564 140.942 135.929 140.942 134.135ZM134.092 88.3654C134.092 86.25 133.69 84.375 132.886 82.7404C132.082 81.1058 131.101 79.7596 129.944 78.7019C128.786 77.6442 127.242 76.7468 125.313 76.0096C123.383 75.2724 121.615 74.7436 120.007 74.4231C118.399 74.1026 116.421 73.8462 114.074 73.6538C111.726 73.4615 109.861 73.3814 108.478 73.4135C107.095 73.4455 105.359 73.4776 103.268 73.5096C102.574 73.5203 101.97 73.5291 101.457 73.5363C100.352 73.5515 99.4575 74.4531 99.4575 75.5577V101.077C99.4575 102.181 100.352 103.086 101.457 103.103C101.846 103.109 102.289 103.117 102.786 103.125C104.683 103.157 106.179 103.157 107.272 103.125C108.365 103.093 109.973 103.029 112.096 102.933C114.218 102.837 115.987 102.66 117.402 102.404C118.817 102.147 120.473 101.795 122.37 101.346C124.268 100.897 125.827 100.304 127.049 99.5673C128.271 98.8301 129.461 97.9647 130.619 96.9712C131.777 95.9776 132.645 94.7436 133.224 93.2692C133.803 91.7949 134.092 90.1603 134.092 88.3654Z" stroke="white" stroke-opacity="0.08"/>
<defs>
<filter id="filter0_i_11122_21763" x="54" y="32" width="120" height="163" filterUnits="userSpaceOnUse" color-interpolation-filters="sRGB">
<feFlood flood-opacity="0" result="BackgroundImageFix"/>
<feBlend mode="normal" in="SourceGraphic" in2="BackgroundImageFix" result="shape"/>
<feColorMatrix in="SourceAlpha" type="matrix" values="0 0 0 0 0 0 0 0 0 0 0 0 0 0 0 0 0 0 127 0" result="hardAlpha"/>
<feOffset dx="3" dy="2"/>
<feGaussianBlur stdDeviation="3"/>
<feComposite in2="hardAlpha" operator="arithmetic" k2="-1" k3="1"/>
<feColorMatrix type="matrix" values="0 0 0 0 0 0 0 0 0 0 0 0 0 0 0 0 0 0 0.16 0"/>
<feBlend mode="normal" in2="shape" result="effect1_innerShadow_11122_21763"/>
</filter>
<radialGradient id="paint0_radial_11122_21763" cx="0" cy="0" r="1" gradientUnits="userSpaceOnUse" gradientTransform="rotate(45) scale(318.198)">
<stop stop-color="white"/>
<stop offset="1" stop-color="#B9B9F6"/>
</radialGradient>
<radialGradient id="paint1_radial_11122_21763" cx="0" cy="0" r="1" gradientTransform="matrix(116 160 -116 160 54.5 32.5)" gradientUnits="userSpaceOnUse">
<stop stop-color="white"/>
<stop offset="1" stop-color="#B9B9F6"/>
</radialGradient>
</defs>
</svg>
