<svg width="225" height="225" viewBox="0 0 225 225" fill="none" xmlns="http://www.w3.org/2000/svg">
<rect width="225" height="225" fill="url(#paint0_radial_11122_21692)" fill-opacity="0.08"/>
<g filter="url(#filter0_i_11122_21692)">
<path fill-rule="evenodd" clip-rule="evenodd" d="M72.0782 130.751C74.9113 128.551 78.8578 128.487 81.7599 130.596L105.653 147.955C108.556 150.064 109.715 153.837 108.498 157.212L99.1837 183.03C96.679 189.973 88.2154 192.574 82.2442 188.235L50.6847 165.307C44.7135 160.968 44.5725 152.115 50.4015 147.588L72.0782 130.751ZM90.2413 176.609C88.8909 175.629 87.0009 175.928 86.0196 177.278C85.0388 178.629 85.3376 180.519 86.6876 181.5C88.0381 182.481 89.93 182.182 90.9112 180.832C91.8921 179.482 91.5916 177.591 90.2413 176.609Z" fill="url(#paint1_radial_11122_21692)" fill-opacity="0.5"/>
<path fill-rule="evenodd" clip-rule="evenodd" d="M142.891 130.596C145.793 128.487 149.74 128.55 152.573 130.75L174.25 147.587C180.079 152.114 179.937 160.967 173.966 165.306L142.406 188.235C136.435 192.573 127.972 189.972 125.468 183.029L116.154 157.21C114.937 153.836 116.096 150.064 118.998 147.955L142.891 130.596ZM169.605 154.774C168.623 153.424 166.733 153.125 165.383 154.105C164.032 155.087 163.733 156.977 164.714 158.327C165.695 159.678 167.585 159.977 168.936 158.996C170.286 158.015 170.586 156.125 169.605 154.774Z" fill="url(#paint2_radial_11122_21692)" fill-opacity="0.5"/>
<path fill-rule="evenodd" clip-rule="evenodd" d="M120.284 95.1113C120.483 93.7894 121.611 92.8971 122.802 93.1172C123.993 93.3379 124.797 94.5883 124.599 95.9102L123.472 103.423H130.203C131.411 103.423 132.391 104.511 132.391 105.852C132.39 107.192 131.411 108.279 130.203 108.279H122.742L121.253 118.191H127.541C128.749 118.191 129.729 119.279 129.729 120.619C129.728 121.96 128.749 123.047 127.541 123.047H120.525L119.276 131.357L119.23 131.6C118.938 132.786 117.877 133.558 116.76 133.352C115.643 133.145 114.866 132.032 114.937 130.805L114.963 130.558L116.09 123.047H105.886L104.639 131.357L104.591 131.6C104.299 132.786 103.238 133.558 102.121 133.352C101.005 133.144 100.228 132.032 100.299 130.805L100.324 130.558L101.452 123.047H94.2765L94.0519 123.033C92.9494 122.909 92.0892 121.876 92.089 120.619C92.089 119.362 92.9493 118.329 94.0519 118.204L94.2765 118.191H102.181L103.67 108.279H96.9386L96.714 108.266C95.6115 108.141 94.7514 107.108 94.7511 105.852C94.7511 104.595 95.6113 103.561 96.714 103.437L96.9386 103.423H104.4L105.647 95.1113C105.845 93.7894 106.973 92.8971 108.164 93.1172C109.355 93.338 110.159 94.5884 109.961 95.9102L108.833 103.423H119.037L120.284 95.1113ZM106.615 118.191H116.819L118.308 108.279H108.105L106.615 118.191Z" fill="url(#paint3_radial_11122_21692)" fill-opacity="0.5"/>
<path fill-rule="evenodd" clip-rule="evenodd" d="M163.131 65.6426C169.238 61.4983 177.615 64.3685 179.896 71.3877L191.95 108.488C194.231 115.508 189.142 122.754 181.765 122.99L154.332 123.87C150.747 123.985 147.516 121.715 146.407 118.304L137.281 90.2168C136.173 86.8051 137.452 83.0703 140.42 81.0557L163.131 65.6426ZM172.342 74.2236C171.826 72.6361 170.121 71.7675 168.533 72.2832C166.946 72.7992 166.077 74.5035 166.593 76.0908C167.109 77.6784 168.814 78.5479 170.401 78.0322C171.989 77.5163 172.858 75.8111 172.342 74.2236Z" fill="url(#paint4_radial_11122_21692)" fill-opacity="0.5"/>
<path fill-rule="evenodd" clip-rule="evenodd" d="M45.1046 71.3857C47.3856 64.3665 55.7612 61.4959 61.8683 65.6406L84.5792 81.0537C87.5474 83.0683 88.8264 86.8031 87.7179 90.2148L78.5919 118.302C77.4834 121.713 74.2535 123.983 70.6681 123.868L43.2345 122.988C35.8576 122.752 30.7692 115.506 33.0499 108.486L45.1046 71.3857ZM44.6339 108.692C43.0464 108.177 41.3413 109.045 40.8253 110.633C40.3097 112.22 41.1784 113.925 42.7657 114.441C44.3533 114.957 46.0583 114.088 46.5743 112.501C47.0901 110.913 46.2215 109.208 44.6339 108.692Z" fill="url(#paint5_radial_11122_21692)" fill-opacity="0.5"/>
<path fill-rule="evenodd" clip-rule="evenodd" d="M131.746 34.6445C139.127 34.6449 144.445 41.7237 142.391 48.8125L134.749 75.1748C133.75 78.6202 130.595 80.9911 127.008 80.9912H97.4747C93.8874 80.9912 90.7312 78.6203 89.7325 75.1748L82.0919 48.8125C80.0373 41.7235 85.3556 34.6445 92.7364 34.6445H131.746ZM93.0968 42.7051C91.4276 42.7051 90.0745 44.0584 90.0743 45.7275C90.0743 47.3969 91.4274 48.751 93.0968 48.751C94.766 48.7509 96.1192 47.3968 96.1192 45.7275C96.119 44.0584 94.7659 42.7052 93.0968 42.7051Z" fill="url(#paint6_radial_11122_21692)" fill-opacity="0.5"/>
</g>
<path fill-rule="evenodd" clip-rule="evenodd" d="M72.0782 130.751C74.9113 128.551 78.8578 128.487 81.7599 130.596L105.653 147.955C108.556 150.064 109.715 153.837 108.498 157.212L99.1837 183.03C96.679 189.973 88.2154 192.574 82.2442 188.235L50.6847 165.307C44.7135 160.968 44.5725 152.115 50.4015 147.588L72.0782 130.751ZM90.2413 176.609C88.8909 175.629 87.0009 175.928 86.0196 177.278C85.0388 178.629 85.3376 180.519 86.6876 181.5C88.0381 182.481 89.93 182.182 90.9112 180.832C91.8921 179.482 91.5916 177.591 90.2413 176.609Z" stroke="white" stroke-opacity="0.08" stroke-linecap="round"/>
<path fill-rule="evenodd" clip-rule="evenodd" d="M142.891 130.596C145.793 128.487 149.74 128.55 152.573 130.75L174.25 147.587C180.079 152.114 179.937 160.967 173.966 165.306L142.406 188.235C136.435 192.573 127.972 189.972 125.468 183.029L116.154 157.21C114.937 153.836 116.096 150.064 118.998 147.955L142.891 130.596ZM169.605 154.774C168.623 153.424 166.733 153.125 165.383 154.105C164.032 155.087 163.733 156.977 164.714 158.327C165.695 159.678 167.585 159.977 168.936 158.996C170.286 158.015 170.586 156.125 169.605 154.774Z" stroke="white" stroke-opacity="0.08" stroke-linecap="round"/>
<path fill-rule="evenodd" clip-rule="evenodd" d="M120.284 95.1113C120.483 93.7894 121.611 92.8971 122.802 93.1172C123.993 93.3379 124.797 94.5883 124.599 95.9102L123.472 103.423H130.203C131.411 103.423 132.391 104.511 132.391 105.852C132.39 107.192 131.411 108.279 130.203 108.279H122.742L121.253 118.191H127.541C128.749 118.191 129.729 119.279 129.729 120.619C129.728 121.96 128.749 123.047 127.541 123.047H120.525L119.276 131.357L119.23 131.6C118.938 132.786 117.877 133.558 116.76 133.352C115.643 133.145 114.866 132.032 114.937 130.805L114.963 130.558L116.09 123.047H105.886L104.639 131.357L104.591 131.6C104.299 132.786 103.238 133.558 102.121 133.352C101.005 133.144 100.228 132.032 100.299 130.805L100.324 130.558L101.452 123.047H94.2765L94.0519 123.033C92.9494 122.909 92.0892 121.876 92.089 120.619C92.089 119.362 92.9493 118.329 94.0519 118.204L94.2765 118.191H102.181L103.67 108.279H96.9386L96.714 108.266C95.6115 108.141 94.7514 107.108 94.7511 105.852C94.7511 104.595 95.6113 103.561 96.714 103.437L96.9386 103.423H104.4L105.647 95.1113C105.845 93.7894 106.973 92.8971 108.164 93.1172C109.355 93.338 110.159 94.5884 109.961 95.9102L108.833 103.423H119.037L120.284 95.1113ZM106.615 118.191H116.819L118.308 108.279H108.105L106.615 118.191Z" stroke="white" stroke-opacity="0.08" stroke-linecap="round"/>
<path fill-rule="evenodd" clip-rule="evenodd" d="M163.131 65.6426C169.238 61.4983 177.615 64.3685 179.896 71.3877L191.95 108.488C194.231 115.508 189.142 122.754 181.765 122.99L154.332 123.87C150.747 123.985 147.516 121.715 146.407 118.304L137.281 90.2168C136.173 86.8051 137.452 83.0703 140.42 81.0557L163.131 65.6426ZM172.342 74.2236C171.826 72.6361 170.121 71.7675 168.533 72.2832C166.946 72.7992 166.077 74.5035 166.593 76.0908C167.109 77.6784 168.814 78.5479 170.401 78.0322C171.989 77.5163 172.858 75.8111 172.342 74.2236Z" stroke="white" stroke-opacity="0.08" stroke-linecap="round"/>
<path fill-rule="evenodd" clip-rule="evenodd" d="M45.1046 71.3857C47.3856 64.3665 55.7612 61.4959 61.8683 65.6406L84.5792 81.0537C87.5474 83.0683 88.8264 86.8031 87.7179 90.2148L78.5919 118.302C77.4834 121.713 74.2535 123.983 70.6681 123.868L43.2345 122.988C35.8576 122.752 30.7692 115.506 33.0499 108.486L45.1046 71.3857ZM44.6339 108.692C43.0464 108.177 41.3413 109.045 40.8253 110.633C40.3097 112.22 41.1784 113.925 42.7657 114.441C44.3533 114.957 46.0583 114.088 46.5743 112.501C47.0901 110.913 46.2215 109.208 44.6339 108.692Z" stroke="white" stroke-opacity="0.08" stroke-linecap="round"/>
<path fill-rule="evenodd" clip-rule="evenodd" d="M131.746 34.6445C139.127 34.6449 144.445 41.7237 142.391 48.8125L134.749 75.1748C133.75 78.6202 130.595 80.9911 127.008 80.9912H97.4747C93.8874 80.9912 90.7312 78.6203 89.7325 75.1748L82.0919 48.8125C80.0373 41.7235 85.3556 34.6445 92.7364 34.6445H131.746ZM93.0968 42.7051C91.4276 42.7051 90.0745 44.0584 90.0743 45.7275C90.0743 47.3969 91.4274 48.751 93.0968 48.751C94.766 48.7509 96.1192 47.3968 96.1192 45.7275C96.119 44.0584 94.7659 42.7052 93.0968 42.7051Z" stroke="white" stroke-opacity="0.08" stroke-linecap="round"/>
<defs>
<filter id="filter0_i_11122_21692" x="32" y="34.1445" width="164" height="158.713" filterUnits="userSpaceOnUse" color-interpolation-filters="sRGB">
<feFlood flood-opacity="0" result="BackgroundImageFix"/>
<feBlend mode="normal" in="SourceGraphic" in2="BackgroundImageFix" result="shape"/>
<feColorMatrix in="SourceAlpha" type="matrix" values="0 0 0 0 0 0 0 0 0 0 0 0 0 0 0 0 0 0 127 0" result="hardAlpha"/>
<feOffset dx="3" dy="2"/>
<feGaussianBlur stdDeviation="3"/>
<feComposite in2="hardAlpha" operator="arithmetic" k2="-1" k3="1"/>
<feColorMatrix type="matrix" values="0 0 0 0 0 0 0 0 0 0 0 0 0 0 0 0 0 0 0.16 0"/>
<feBlend mode="normal" in2="shape" result="effect1_innerShadow_11122_21692"/>
</filter>
<radialGradient id="paint0_radial_11122_21692" cx="0" cy="0" r="1" gradientUnits="userSpaceOnUse" gradientTransform="rotate(45) scale(318.198)">
<stop stop-color="white"/>
<stop offset="1" stop-color="#B9B9F6"/>
</radialGradient>
<radialGradient id="paint1_radial_11122_21692" cx="0" cy="0" r="1" gradientTransform="matrix(160 155.712 -160 155.712 32.5 34.6445)" gradientUnits="userSpaceOnUse">
<stop stop-color="white"/>
<stop offset="1" stop-color="#B9B9F6"/>
</radialGradient>
<radialGradient id="paint2_radial_11122_21692" cx="0" cy="0" r="1" gradientTransform="matrix(160 155.712 -160 155.712 32.5 34.6445)" gradientUnits="userSpaceOnUse">
<stop stop-color="white"/>
<stop offset="1" stop-color="#B9B9F6"/>
</radialGradient>
<radialGradient id="paint3_radial_11122_21692" cx="0" cy="0" r="1" gradientTransform="matrix(160 155.712 -160 155.712 32.5 34.6445)" gradientUnits="userSpaceOnUse">
<stop stop-color="white"/>
<stop offset="1" stop-color="#B9B9F6"/>
</radialGradient>
<radialGradient id="paint4_radial_11122_21692" cx="0" cy="0" r="1" gradientTransform="matrix(160 155.712 -160 155.712 32.5 34.6445)" gradientUnits="userSpaceOnUse">
<stop stop-color="white"/>
<stop offset="1" stop-color="#B9B9F6"/>
</radialGradient>
<radialGradient id="paint5_radial_11122_21692" cx="0" cy="0" r="1" gradientTransform="matrix(160 155.712 -160 155.712 32.5 34.6445)" gradientUnits="userSpaceOnUse">
<stop stop-color="white"/>
<stop offset="1" stop-color="#B9B9F6"/>
</radialGradient>
<radialGradient id="paint6_radial_11122_21692" cx="0" cy="0" r="1" gradientTransform="matrix(160 155.712 -160 155.712 32.5 34.6445)" gradientUnits="userSpaceOnUse">
<stop stop-color="white"/>
<stop offset="1" stop-color="#B9B9F6"/>
</radialGradient>
</defs>
</svg>
