<svg width="374" height="114" viewBox="0 0 374 114" fill="none" xmlns="http://www.w3.org/2000/svg">
<rect x="1.5" y="1.5" width="371" height="111" rx="20.5" fill="black"/>
<rect x="1.5" y="1.5" width="371" height="111" rx="20.5" stroke="#A6A6A6" stroke-width="3"/>
<path d="M77.6416 52.435L55.5622 21.8012C54.3576 20.13 51.7044 21.2891 52.1391 23.2966L55.9983 41.1202C56.2543 42.3026 55.3396 43.416 54.1184 43.4084L37.9254 43.3082C36.4309 43.299 35.5049 44.916 36.2802 46.1812L53.0154 73.4917C53.6833 74.5817 53.0932 76.0005 51.8438 76.3086L47.958 77.2671C46.3939 77.6529 45.9856 79.6651 47.2778 80.6192L63.537 92.6234C64.6383 93.4365 66.2203 92.8674 66.5378 91.5441L71.0379 72.7841C71.3988 71.2796 69.8831 70.0052 68.4422 70.6017L64.8829 72.0752C63.7683 72.5366 62.5065 71.8708 62.2719 70.6974L59.7677 58.1753C59.539 57.0315 60.3997 55.9571 61.5766 55.9173L76.1517 55.4245C77.6747 55.373 78.5268 53.6632 77.6416 52.435Z" fill="white"/>
<path d="M118.943 27.0795C118.848 26.7727 118.718 26.4981 118.551 26.2557C118.388 26.0095 118.191 25.7992 117.96 25.625C117.733 25.4508 117.472 25.3201 117.176 25.233C116.881 25.142 116.559 25.0966 116.21 25.0966C115.585 25.0966 115.028 25.2538 114.54 25.5682C114.051 25.8826 113.667 26.3447 113.386 26.9545C113.11 27.5606 112.972 28.2992 112.972 29.1705C112.972 30.0492 113.11 30.7936 113.386 31.4034C113.663 32.0133 114.047 32.4773 114.54 32.7955C115.032 33.1098 115.604 33.267 116.256 33.267C116.847 33.267 117.358 33.1534 117.79 32.9261C118.225 32.6989 118.561 32.3769 118.795 31.9602C119.03 31.5398 119.148 31.0473 119.148 30.483L119.625 30.5568H116.466V28.9091H121.188V30.3068C121.188 31.303 120.975 32.1648 120.551 32.892C120.127 33.6193 119.544 34.1799 118.801 34.5739C118.059 34.964 117.206 35.1591 116.244 35.1591C115.172 35.1591 114.231 34.9186 113.42 34.4375C112.614 33.9527 111.983 33.2652 111.528 32.375C111.078 31.4811 110.852 30.4205 110.852 29.1932C110.852 28.2538 110.985 27.4148 111.25 26.6761C111.519 25.9375 111.894 25.3106 112.375 24.7955C112.856 24.2765 113.42 23.8826 114.068 23.6136C114.716 23.3409 115.42 23.2045 116.182 23.2045C116.826 23.2045 117.426 23.2992 117.983 23.4886C118.54 23.6742 119.034 23.9394 119.466 24.2841C119.902 24.6288 120.259 25.0379 120.54 25.5114C120.82 25.9848 121.004 26.5076 121.091 27.0795H118.943ZM127.066 35V23.3636H134.634V25.1307H129.174V28.2898H134.242V30.0568H129.174V33.233H134.679V35H127.066ZM140.113 25.1307V23.3636H149.397V25.1307H145.801V35H143.71V25.1307H140.113ZM164.944 23.3636V35H162.836V23.3636H164.944ZM170.555 25.1307V23.3636H179.839V25.1307H176.243V35H174.152V25.1307H170.555ZM203.675 29.1818C203.675 30.4356 203.441 31.5095 202.971 32.4034C202.505 33.2936 201.869 33.9754 201.062 34.4489C200.259 34.9223 199.348 35.1591 198.329 35.1591C197.31 35.1591 196.397 34.9223 195.59 34.4489C194.787 33.9716 194.151 33.2879 193.681 32.3977C193.215 31.5038 192.982 30.4318 192.982 29.1818C192.982 27.928 193.215 26.8561 193.681 25.9659C194.151 25.072 194.787 24.3883 195.59 23.9148C196.397 23.4413 197.31 23.2045 198.329 23.2045C199.348 23.2045 200.259 23.4413 201.062 23.9148C201.869 24.3883 202.505 25.072 202.971 25.9659C203.441 26.8561 203.675 27.928 203.675 29.1818ZM201.556 29.1818C201.556 28.2992 201.418 27.5549 201.141 26.9489C200.869 26.339 200.49 25.8788 200.005 25.5682C199.52 25.2538 198.961 25.0966 198.329 25.0966C197.696 25.0966 197.138 25.2538 196.653 25.5682C196.168 25.8788 195.787 26.339 195.511 26.9489C195.238 27.5549 195.102 28.2992 195.102 29.1818C195.102 30.0644 195.238 30.8106 195.511 31.4205C195.787 32.0265 196.168 32.4867 196.653 32.8011C197.138 33.1117 197.696 33.267 198.329 33.267C198.961 33.267 199.52 33.1117 200.005 32.8011C200.49 32.4867 200.869 32.0265 201.141 31.4205C201.418 30.8106 201.556 30.0644 201.556 29.1818ZM219.071 23.3636V35H217.196L211.713 27.0739H211.616V35H209.508V23.3636H211.395L216.872 31.2955H216.974V23.3636H219.071Z" fill="white"/>
<path d="M112.912 85V80.8984L131.555 54.1584H112.805V48.6364H139.723V52.7379L121.097 79.478H139.83V85H112.912ZM153.768 85.5504C152.04 85.5504 150.483 85.2427 149.098 84.6271C147.725 83.9998 146.636 83.0765 145.831 81.8572C145.038 80.638 144.641 79.1347 144.641 77.3473C144.641 75.8085 144.925 74.536 145.494 73.5298C146.062 72.5237 146.837 71.7188 147.82 71.1151C148.802 70.5114 149.909 70.0556 151.14 69.7479C152.383 69.4283 153.667 69.1974 154.993 69.0554C156.591 68.8897 157.887 68.7417 158.881 68.6115C159.876 68.4695 160.598 68.2564 161.048 67.9723C161.509 67.6764 161.74 67.2206 161.74 66.6051V66.4986C161.74 65.161 161.344 64.1252 160.55 63.3913C159.757 62.6574 158.615 62.2905 157.124 62.2905C155.549 62.2905 154.3 62.6338 153.377 63.3203C152.466 64.0069 151.85 64.8177 151.531 65.7528L145.529 64.9006C146.003 63.2434 146.784 61.8584 147.873 60.7457C148.962 59.6212 150.294 58.7808 151.868 58.2244C153.442 57.6562 155.182 57.3722 157.088 57.3722C158.402 57.3722 159.71 57.526 161.012 57.8338C162.314 58.1416 163.504 58.6506 164.581 59.3608C165.658 60.0592 166.522 61.0121 167.173 62.2195C167.836 63.4268 168.168 64.9361 168.168 66.7472V85H161.989V81.2536H161.776C161.385 82.0111 160.835 82.7214 160.124 83.3842C159.426 84.0353 158.544 84.562 157.479 84.9645C156.425 85.3551 155.188 85.5504 153.768 85.5504ZM155.437 80.8274C156.727 80.8274 157.846 80.5729 158.793 80.0639C159.74 79.5431 160.468 78.8565 160.977 78.0043C161.497 77.152 161.758 76.2228 161.758 75.2166V72.0028C161.557 72.1686 161.213 72.3224 160.728 72.4645C160.254 72.6065 159.722 72.7308 159.13 72.8374C158.538 72.9439 157.952 73.0386 157.372 73.1214C156.792 73.2043 156.289 73.2753 155.863 73.3345C154.904 73.4647 154.046 73.6778 153.288 73.9737C152.531 74.2696 151.933 74.6839 151.495 75.2166C151.057 75.7375 150.838 76.4122 150.838 77.2408C150.838 78.4245 151.27 79.3182 152.134 79.9219C152.998 80.5256 154.099 80.8274 155.437 80.8274ZM174.631 95.2273V57.7273H180.952V62.2372H181.325C181.656 61.5743 182.124 60.87 182.727 60.1243C183.331 59.3667 184.148 58.7216 185.178 58.1889C186.207 57.6444 187.521 57.3722 189.119 57.3722C191.226 57.3722 193.126 57.9107 194.819 58.9879C196.523 60.0533 197.873 61.6335 198.867 63.7287C199.873 65.812 200.376 68.3688 200.376 71.3991C200.376 74.3939 199.885 76.9389 198.903 79.0341C197.92 81.1293 196.583 82.7273 194.89 83.8281C193.197 84.929 191.28 85.4794 189.137 85.4794C187.575 85.4794 186.278 85.219 185.249 84.6982C184.219 84.1773 183.39 83.55 182.763 82.8161C182.147 82.0703 181.668 81.366 181.325 80.7031H181.058V95.2273H174.631ZM180.934 71.3636C180.934 73.1274 181.183 74.6721 181.68 75.9979C182.189 77.3236 182.917 78.3594 183.864 79.1051C184.822 79.839 185.982 80.206 187.344 80.206C188.764 80.206 189.954 79.8272 190.913 79.0696C191.871 78.3002 192.594 77.2526 193.079 75.9268C193.576 74.5893 193.825 73.0682 193.825 71.3636C193.825 69.6709 193.582 68.1676 193.097 66.8537C192.611 65.5398 191.889 64.5099 190.93 63.7642C189.972 63.0185 188.776 62.6456 187.344 62.6456C185.971 62.6456 184.805 63.0066 183.846 63.7287C182.887 64.4508 182.159 65.4628 181.662 66.7649C181.177 68.067 180.934 69.5999 180.934 71.3636ZM227.436 64.9361L221.577 65.5753C221.411 64.9834 221.121 64.4271 220.707 63.9062C220.304 63.3854 219.76 62.9652 219.073 62.6456C218.387 62.326 217.546 62.1662 216.552 62.1662C215.214 62.1662 214.09 62.4562 213.178 63.0362C212.279 63.6162 211.835 64.3679 211.847 65.2912C211.835 66.0843 212.125 66.7294 212.717 67.2266C213.32 67.7237 214.315 68.1321 215.7 68.4517L220.352 69.446C222.932 70.0024 224.85 70.8842 226.104 72.0916C227.371 73.299 228.01 74.8793 228.022 76.8324C228.01 78.5488 227.507 80.0639 226.513 81.3778C225.53 82.6799 224.163 83.6979 222.411 84.4318C220.659 85.1657 218.647 85.5327 216.374 85.5327C213.036 85.5327 210.349 84.8343 208.313 83.4375C206.277 82.0289 205.064 80.0698 204.673 77.5604L210.941 76.9567C211.225 78.1877 211.829 79.117 212.752 79.7443C213.675 80.3717 214.877 80.6854 216.357 80.6854C217.884 80.6854 219.109 80.3717 220.032 79.7443C220.967 79.117 221.435 78.3416 221.435 77.4183C221.435 76.6371 221.133 75.992 220.529 75.483C219.937 74.974 219.014 74.5833 217.759 74.3111L213.107 73.3345C210.491 72.79 208.556 71.8726 207.301 70.5824C206.046 69.2803 205.425 67.6349 205.437 65.6463C205.425 63.9654 205.881 62.5095 206.804 61.2784C207.739 60.0355 209.035 59.0767 210.692 58.402C212.362 57.7154 214.285 57.3722 216.463 57.3722C219.659 57.3722 222.174 58.0528 224.009 59.4141C225.856 60.7753 226.998 62.616 227.436 64.9361ZM246.941 57.7273V62.6989H231.262V57.7273H246.941ZM235.133 51.1932H241.561V76.7969C241.561 77.661 241.691 78.3239 241.951 78.7855C242.224 79.2353 242.579 79.5431 243.017 79.7088C243.455 79.8745 243.94 79.9574 244.473 79.9574C244.875 79.9574 245.242 79.9278 245.574 79.8686C245.917 79.8094 246.177 79.7562 246.355 79.7088L247.438 84.7337C247.095 84.852 246.603 84.9822 245.964 85.1243C245.337 85.2663 244.567 85.3492 243.656 85.3729C242.046 85.4202 240.596 85.1776 239.306 84.6449C238.016 84.1004 236.992 83.2599 236.234 82.1236C235.488 80.9872 235.121 79.5668 235.133 77.8622V51.1932ZM263.92 85.5327C261.256 85.5327 258.948 84.9467 256.995 83.7749C255.042 82.603 253.527 80.9635 252.449 78.8565C251.384 76.7495 250.851 74.2874 250.851 71.4702C250.851 68.6529 251.384 66.1849 252.449 64.0661C253.527 61.9472 255.042 60.3018 256.995 59.13C258.948 57.9581 261.256 57.3722 263.92 57.3722C266.583 57.3722 268.891 57.9581 270.844 59.13C272.797 60.3018 274.307 61.9472 275.372 64.0661C276.449 66.1849 276.988 68.6529 276.988 71.4702C276.988 74.2874 276.449 76.7495 275.372 78.8565C274.307 80.9635 272.797 82.603 270.844 83.7749C268.891 84.9467 266.583 85.5327 263.92 85.5327ZM263.955 80.3835C265.399 80.3835 266.607 79.987 267.577 79.1939C268.548 78.389 269.27 77.3118 269.743 75.9624C270.229 74.6129 270.471 73.1096 270.471 71.4524C270.471 69.7834 270.229 68.2741 269.743 66.9247C269.27 65.5634 268.548 64.4804 267.577 63.6754C266.607 62.8705 265.399 62.468 263.955 62.468C262.475 62.468 261.244 62.8705 260.262 63.6754C259.291 64.4804 258.563 65.5634 258.078 66.9247C257.604 68.2741 257.368 69.7834 257.368 71.4524C257.368 73.1096 257.604 74.6129 258.078 75.9624C258.563 77.3118 259.291 78.389 260.262 79.1939C261.244 79.987 262.475 80.3835 263.955 80.3835ZM282.443 85V57.7273H288.675V62.2727H288.96C289.457 60.6984 290.309 59.4851 291.516 58.6328C292.736 57.7687 294.126 57.3366 295.689 57.3366C296.044 57.3366 296.441 57.3544 296.879 57.3899C297.328 57.4136 297.701 57.455 297.997 57.5142V63.4268C297.725 63.3321 297.293 63.2493 296.701 63.1783C296.121 63.0954 295.559 63.054 295.014 63.054C293.842 63.054 292.789 63.3085 291.854 63.8175C290.93 64.3146 290.202 65.0071 289.67 65.8949C289.137 66.7827 288.871 67.8066 288.871 68.9666V85H282.443ZM313.218 85.5327C310.484 85.5327 308.122 84.9645 306.134 83.8281C304.157 82.6799 302.636 81.0582 301.57 78.9631C300.505 76.8561 299.972 74.3762 299.972 71.5234C299.972 68.718 300.505 66.2559 301.57 64.1371C302.648 62.0064 304.151 60.3492 306.08 59.1655C308.01 57.9699 310.277 57.3722 312.881 57.3722C314.562 57.3722 316.148 57.6444 317.639 58.1889C319.143 58.7216 320.468 59.5502 321.617 60.6747C322.777 61.7992 323.688 63.2315 324.351 64.9716C325.014 66.6998 325.345 68.7595 325.345 71.1506V73.1214H302.991V68.7891H319.184C319.172 67.558 318.906 66.4631 318.385 65.5043C317.864 64.5336 317.136 63.7701 316.201 63.2138C315.278 62.6574 314.201 62.3793 312.97 62.3793C311.656 62.3793 310.502 62.6989 309.507 63.3381C308.513 63.9654 307.738 64.794 307.181 65.8239C306.637 66.8419 306.359 67.9605 306.347 69.1797V72.9616C306.347 74.5478 306.637 75.9091 307.217 77.0455C307.797 78.17 308.608 79.0341 309.649 79.6378C310.691 80.2296 311.91 80.5256 313.307 80.5256C314.242 80.5256 315.088 80.3954 315.846 80.1349C316.604 79.8627 317.261 79.4661 317.817 78.9453C318.373 78.4245 318.794 77.7794 319.078 77.0099L325.079 77.6847C324.7 79.2708 323.978 80.6558 322.913 81.8395C321.859 83.0114 320.51 83.9228 318.865 84.5739C317.219 85.2131 315.337 85.5327 313.218 85.5327Z" fill="white"/>
</svg>
