<svg width="225" height="225" viewBox="0 0 225 225" fill="none" xmlns="http://www.w3.org/2000/svg">
<rect width="225" height="225" fill="url(#paint0_radial_11122_21751)" fill-opacity="0.08"/>
<g filter="url(#filter0_i_11122_21751)">
<path d="M166.595 138.311V86.6889C175.09 83.5711 181.143 75.3422 181.143 65.7844C181.143 53.5178 171.173 43.5 158.965 43.5C146.758 43.5 136.789 53.4666 136.789 65.7844C136.789 75.3933 142.841 83.5711 151.336 86.6889V138.311C150.777 138.515 150.216 138.771 149.657 139.026L86.0757 75.1378C87.3982 72.2756 88.1103 69.1067 88.1103 65.7844C88.1103 53.4666 78.1916 43.5 65.9839 43.5C53.7763 43.5 43.8066 53.4666 43.8066 65.7844C43.8066 75.3933 49.8596 83.5711 58.3541 86.6889V138.311C49.8596 141.429 43.8066 149.658 43.8066 159.215C43.8066 171.482 53.7253 181.5 65.9839 181.5C78.2424 181.5 88.1612 171.482 88.1612 159.215C88.1612 149.607 82.1082 141.429 73.6136 138.311V86.6889C74.1732 86.4844 74.7327 86.2289 75.2923 85.9734L138.873 149.862C137.552 152.725 136.839 155.893 136.839 159.215C136.839 171.482 146.758 181.5 159.017 181.5C171.275 181.5 181.193 171.482 181.193 159.215C181.193 149.607 175.141 141.429 166.646 138.311H166.595Z" fill="url(#paint1_radial_11122_21751)" fill-opacity="0.5"/>
</g>
<path d="M166.595 138.311V86.6889C175.09 83.5711 181.143 75.3422 181.143 65.7844C181.143 53.5178 171.173 43.5 158.965 43.5C146.758 43.5 136.789 53.4666 136.789 65.7844C136.789 75.3933 142.841 83.5711 151.336 86.6889V138.311C150.777 138.515 150.216 138.771 149.657 139.026L86.0757 75.1378C87.3982 72.2756 88.1103 69.1067 88.1103 65.7844C88.1103 53.4666 78.1916 43.5 65.9839 43.5C53.7763 43.5 43.8066 53.4666 43.8066 65.7844C43.8066 75.3933 49.8596 83.5711 58.3541 86.6889V138.311C49.8596 141.429 43.8066 149.658 43.8066 159.215C43.8066 171.482 53.7253 181.5 65.9839 181.5C78.2424 181.5 88.1612 171.482 88.1612 159.215C88.1612 149.607 82.1082 141.429 73.6136 138.311V86.6889C74.1732 86.4844 74.7327 86.2289 75.2923 85.9734L138.873 149.862C137.552 152.725 136.839 155.893 136.839 159.215C136.839 171.482 146.758 181.5 159.017 181.5C171.275 181.5 181.193 171.482 181.193 159.215C181.193 149.607 175.141 141.429 166.646 138.311H166.595Z" stroke="white" stroke-opacity="0.08"/>
<defs>
<filter id="filter0_i_11122_21751" x="43.3066" y="43" width="141.387" height="141" filterUnits="userSpaceOnUse" color-interpolation-filters="sRGB">
<feFlood flood-opacity="0" result="BackgroundImageFix"/>
<feBlend mode="normal" in="SourceGraphic" in2="BackgroundImageFix" result="shape"/>
<feColorMatrix in="SourceAlpha" type="matrix" values="0 0 0 0 0 0 0 0 0 0 0 0 0 0 0 0 0 0 127 0" result="hardAlpha"/>
<feOffset dx="3" dy="2"/>
<feGaussianBlur stdDeviation="3"/>
<feComposite in2="hardAlpha" operator="arithmetic" k2="-1" k3="1"/>
<feColorMatrix type="matrix" values="0 0 0 0 0 0 0 0 0 0 0 0 0 0 0 0 0 0 0.16 0"/>
<feBlend mode="normal" in2="shape" result="effect1_innerShadow_11122_21751"/>
</filter>
<radialGradient id="paint0_radial_11122_21751" cx="0" cy="0" r="1" gradientUnits="userSpaceOnUse" gradientTransform="rotate(45) scale(318.198)">
<stop stop-color="white"/>
<stop offset="1" stop-color="#B9B9F6"/>
</radialGradient>
<radialGradient id="paint1_radial_11122_21751" cx="0" cy="0" r="1" gradientTransform="matrix(137.387 138 -137.387 138 43.8066 43.5)" gradientUnits="userSpaceOnUse">
<stop stop-color="white"/>
<stop offset="1" stop-color="#B9B9F6"/>
</radialGradient>
</defs>
</svg>
