<svg width="185" height="185" viewBox="0 0 185 185" fill="none" xmlns="http://www.w3.org/2000/svg">
<g clip-path="url(#clip0_1686_2940)">
<g filter="url(#filter0_ii_1686_2940)">
<path d="M72.2143 2.15411C78.6655 -0.436889 87.4422 0.345143 92.5255 7.56039L143.363 79.7205C146.367 83.9844 146.262 89.0291 144.046 93.0311C141.851 96.9936 137.638 99.9096 132.442 100.489L102.811 103.793L102.71 103.805L102.609 103.811C102.225 103.835 101.991 103.999 101.894 104.11C101.886 104.12 101.88 104.129 101.875 104.137L108.231 131.289C108.25 131.31 108.297 131.349 108.397 131.392C108.628 131.494 108.965 131.522 109.302 131.387L118.04 127.886C121.117 126.654 124.388 127.174 126.748 128.858C129.142 130.567 130.737 133.64 129.838 137.105L119.085 178.582C118.317 181.545 116.023 183.51 113.596 184.364C111.166 185.219 108.213 185.115 105.7 183.548L65.4553 158.459C62.4178 156.565 61.183 153.281 61.8543 150.207C62.5125 147.193 64.9054 144.723 68.2394 143.887L77.79 141.491C78.0485 141.426 78.182 141.317 78.2487 141.245L39.2406 92.6002C36.6405 89.3577 36.5399 85.3338 38.1871 82.1262C39.8108 78.9644 43.0677 76.6486 47.0819 76.1962L77.2659 72.7948L77.4413 72.7905C77.8401 72.7804 78.0915 72.6134 78.198 72.4937C78.2053 72.4855 78.2095 72.4763 78.2149 72.4695L62.6847 20.0671C60.1253 11.4313 65.7466 4.75169 72.2143 2.15411ZM85.9558 12.0853C83.5365 8.65166 79.1453 7.89106 75.2088 9.47203C71.289 11.0465 69.3032 14.2538 70.362 17.8269L85.9604 70.4593L85.9827 70.5354L86.002 70.6109C87.3912 76.1018 82.7421 80.4092 77.8797 80.675L47.9665 84.0459C46.563 84.2041 45.6908 84.9584 45.3179 85.6845C44.9686 86.3649 45.0043 87.0467 45.5158 87.6845L84.7376 136.595L84.8095 136.684L84.875 136.777C88.4864 141.855 84.9307 147.845 79.7388 149.148L70.1882 151.544C69.9117 151.613 69.784 151.716 69.7346 151.765C69.7335 151.767 69.7322 151.768 69.7311 151.769C69.7337 151.77 69.7359 151.773 69.7386 151.775L109.983 176.864C110.195 176.996 110.548 177.058 110.931 176.923C111.108 176.86 111.223 176.777 111.282 176.717C111.332 176.667 111.336 176.644 111.337 176.642L122.061 135.274C122.057 135.272 122.055 135.268 122.051 135.266C121.864 135.132 121.489 135.022 121.029 135.206L112.291 138.707C107.753 140.525 101.708 138.511 100.447 133.125L94.0622 105.857C92.8177 100.542 97.2121 96.3405 101.935 95.9426L131.566 92.6384C134.232 92.3411 136.121 90.8981 137.031 89.255C137.919 87.6515 137.92 85.8439 136.794 84.2454L85.9558 12.0853Z" fill="#D4D4DE"/>
</g>
<g filter="url(#filter1_f_1686_2940)">
<path d="M141.955 80.7774L91.118 8.61745C83.6155 -2.03188 64.7817 5.53225 68.4002 17.7415L83.9987 70.3737C84.6497 72.947 82.4169 75.4577 79.4097 75.5337L49.4012 78.9154C43.9833 79.5259 41.1432 85.0566 44.2549 88.9371L83.477 137.848C85.1406 140.187 83.7125 143.343 80.6416 144.113L71.0904 146.509C67.2459 147.474 66.2756 151.917 69.4741 153.911L109.718 179.001C112.444 180.7 116.329 179.332 117.088 176.406L127.841 134.93C128.703 131.603 124.949 128.924 121.411 130.341L112.673 133.842C109.937 134.938 106.818 133.574 106.22 131.019L99.8357 103.751C99.2525 101.26 101.353 98.839 104.25 98.6625L133.881 95.3584C141.743 94.4817 146.085 86.6399 141.955 80.7774Z" stroke="#3A3B56" stroke-width="2"/>
</g>
<g filter="url(#filter2_f_1686_2940)">
<path d="M138.974 81.1133L88.1371 8.95339C80.6345 -1.69594 61.8008 5.86819 65.4192 18.0775L81.0178 70.7097C81.6688 73.2829 79.4359 75.7936 76.4288 75.8696L46.4203 79.2513C41.0023 79.8619 38.1622 85.3926 41.274 89.273L80.4961 138.184C82.1597 140.523 80.7315 143.679 77.6606 144.449L68.1095 146.845C64.2649 147.81 63.2946 152.253 66.4931 154.247L106.737 179.337C109.463 181.036 113.348 179.668 114.107 176.742L124.86 135.266C125.722 131.939 121.968 129.26 118.431 130.677L109.692 134.178C106.956 135.274 103.837 133.91 103.239 131.355L96.8548 104.087C96.2716 101.596 98.3721 99.175 101.269 98.9985L130.9 95.6943C138.762 94.8176 143.104 86.9759 138.974 81.1133Z" stroke="white" stroke-width="2"/>
</g>
<ellipse cx="19.6682" cy="17.2692" rx="19.6682" ry="17.2692" transform="matrix(0.99987 0.0119161 0.00193139 1.00005 56.688 29.0381)" fill="url(#paint0_radial_1686_2940)"/>
<ellipse cx="10.7541" cy="9.58321" rx="10.7541" ry="9.58321" transform="matrix(0.99987 0.0119161 0.00193138 1.00005 65.7983 36.0557)" fill="url(#paint1_radial_1686_2940)"/>
<g filter="url(#filter3_f_1686_2940)">
<ellipse cx="4.67572" cy="4.03504" rx="4.67572" ry="4.03504" transform="matrix(0.99987 0.0119161 0.00193138 1.00005 69.5444 39.126)" fill="#69696F"/>
</g>
<ellipse cx="19.6682" cy="17.2692" rx="19.6682" ry="17.2692" transform="matrix(0.99987 0.0119161 0.00193139 1.00005 99.3887 28.8477)" fill="url(#paint2_radial_1686_2940)"/>
<ellipse cx="10.7691" cy="9.59649" rx="10.7691" ry="9.59649" transform="matrix(0.99987 0.0119161 0.00193138 1.00005 108.924 36.3242)" fill="url(#paint3_radial_1686_2940)"/>
<g filter="url(#filter4_f_1686_2940)">
<ellipse cx="4.6822" cy="4.04063" rx="4.6822" ry="4.04063" transform="matrix(0.99987 0.0119161 0.00193138 1.00005 112.675 39.3994)" fill="#69696F"/>
</g>
<g filter="url(#filter5_diii_1686_2940)">
<path d="M71.6899 16.3377C61.9643 17.7658 56.7498 25.2787 54.5603 30.8744C54.1996 31.7962 55.2052 32.4157 55.8741 31.7238C66.4455 20.7896 74.4361 23.2231 79.649 22.9952C85.2439 22.7507 86.6578 14.1399 71.6899 16.3377Z" fill="black"/>
</g>
<g filter="url(#filter6_diii_1686_2940)">
<path d="M116.996 15.0496C126.806 14.6364 133.17 21.0572 136.242 26.1565C136.748 26.9965 135.859 27.7944 135.087 27.2384C122.888 18.4514 115.418 22.3416 110.248 23.0923C104.699 23.898 101.897 15.6855 116.996 15.0496Z" fill="black"/>
</g>
</g>
<defs>
<filter id="filter0_ii_1686_2940" x="35.0913" y="-3.19922" width="111.577" height="189.097" filterUnits="userSpaceOnUse" color-interpolation-filters="sRGB">
<feFlood flood-opacity="0" result="BackgroundImageFix"/>
<feBlend mode="normal" in="SourceGraphic" in2="BackgroundImageFix" result="shape"/>
<feColorMatrix in="SourceAlpha" type="matrix" values="0 0 0 0 0 0 0 0 0 0 0 0 0 0 0 0 0 0 127 0" result="hardAlpha"/>
<feOffset dx="-2" dy="-4"/>
<feGaussianBlur stdDeviation="3"/>
<feComposite in2="hardAlpha" operator="arithmetic" k2="-1" k3="1"/>
<feColorMatrix type="matrix" values="0 0 0 0 0.403952 0 0 0 0 0.413125 0 0 0 0 0.617269 0 0 0 1 0"/>
<feBlend mode="normal" in2="shape" result="effect1_innerShadow_1686_2940"/>
<feColorMatrix in="SourceAlpha" type="matrix" values="0 0 0 0 0 0 0 0 0 0 0 0 0 0 0 0 0 0 127 0" result="hardAlpha"/>
<feOffset dx="1" dy="1"/>
<feGaussianBlur stdDeviation="1.5"/>
<feComposite in2="hardAlpha" operator="arithmetic" k2="-1" k3="1"/>
<feColorMatrix type="matrix" values="0 0 0 0 0.67418 0 0 0 0 0.677981 0 0 0 0 0.762569 0 0 0 1 0"/>
<feBlend mode="normal" in2="effect1_innerShadow_1686_2940" result="effect2_innerShadow_1686_2940"/>
</filter>
<filter id="filter1_f_1686_2940" x="38.9668" y="-0.460938" width="108.579" height="184.204" filterUnits="userSpaceOnUse" color-interpolation-filters="sRGB">
<feFlood flood-opacity="0" result="BackgroundImageFix"/>
<feBlend mode="normal" in="SourceGraphic" in2="BackgroundImageFix" result="shape"/>
<feGaussianBlur stdDeviation="1.5" result="effect1_foregroundBlur_1686_2940"/>
</filter>
<filter id="filter2_f_1686_2940" x="35.9858" y="-0.125" width="108.579" height="184.204" filterUnits="userSpaceOnUse" color-interpolation-filters="sRGB">
<feFlood flood-opacity="0" result="BackgroundImageFix"/>
<feBlend mode="normal" in="SourceGraphic" in2="BackgroundImageFix" result="shape"/>
<feGaussianBlur stdDeviation="1.5" result="effect1_foregroundBlur_1686_2940"/>
</filter>
<filter id="filter3_f_1686_2940" x="65.5522" y="35.1812" width="17.3501" height="16.0713" filterUnits="userSpaceOnUse" color-interpolation-filters="sRGB">
<feFlood flood-opacity="0" result="BackgroundImageFix"/>
<feBlend mode="normal" in="SourceGraphic" in2="BackgroundImageFix" result="shape"/>
<feGaussianBlur stdDeviation="2" result="effect1_foregroundBlur_1686_2940"/>
</filter>
<filter id="filter4_f_1686_2940" x="108.683" y="35.4546" width="17.3633" height="16.0825" filterUnits="userSpaceOnUse" color-interpolation-filters="sRGB">
<feFlood flood-opacity="0" result="BackgroundImageFix"/>
<feBlend mode="normal" in="SourceGraphic" in2="BackgroundImageFix" result="shape"/>
<feGaussianBlur stdDeviation="2" result="effect1_foregroundBlur_1686_2940"/>
</filter>
<filter id="filter5_diii_1686_2940" x="52.4844" y="14.979" width="33.0981" height="21.0405" filterUnits="userSpaceOnUse" color-interpolation-filters="sRGB">
<feFlood flood-opacity="0" result="BackgroundImageFix"/>
<feColorMatrix in="SourceAlpha" type="matrix" values="0 0 0 0 0 0 0 0 0 0 0 0 0 0 0 0 0 0 127 0" result="hardAlpha"/>
<feOffset dy="2"/>
<feGaussianBlur stdDeviation="1"/>
<feComposite in2="hardAlpha" operator="out"/>
<feColorMatrix type="matrix" values="0 0 0 0 0 0 0 0 0 0 0 0 0 0 0 0 0 0 0.5 0"/>
<feBlend mode="normal" in2="BackgroundImageFix" result="effect1_dropShadow_1686_2940"/>
<feBlend mode="normal" in="SourceGraphic" in2="effect1_dropShadow_1686_2940" result="shape"/>
<feColorMatrix in="SourceAlpha" type="matrix" values="0 0 0 0 0 0 0 0 0 0 0 0 0 0 0 0 0 0 127 0" result="hardAlpha"/>
<feOffset dy="2"/>
<feGaussianBlur stdDeviation="1"/>
<feComposite in2="hardAlpha" operator="arithmetic" k2="-1" k3="1"/>
<feColorMatrix type="matrix" values="0 0 0 0 0.304443 0 0 0 0 0.304443 0 0 0 0 0.304443 0 0 0 1 0"/>
<feBlend mode="normal" in2="shape" result="effect2_innerShadow_1686_2940"/>
<feColorMatrix in="SourceAlpha" type="matrix" values="0 0 0 0 0 0 0 0 0 0 0 0 0 0 0 0 0 0 127 0" result="hardAlpha"/>
<feOffset dy="2"/>
<feGaussianBlur stdDeviation="1"/>
<feComposite in2="hardAlpha" operator="arithmetic" k2="-1" k3="1"/>
<feColorMatrix type="matrix" values="0 0 0 0 0.304443 0 0 0 0 0.304443 0 0 0 0 0.304443 0 0 0 1 0"/>
<feBlend mode="normal" in2="effect2_innerShadow_1686_2940" result="effect3_innerShadow_1686_2940"/>
<feColorMatrix in="SourceAlpha" type="matrix" values="0 0 0 0 0 0 0 0 0 0 0 0 0 0 0 0 0 0 127 0" result="hardAlpha"/>
<feOffset dy="-2"/>
<feGaussianBlur stdDeviation="0.5"/>
<feComposite in2="hardAlpha" operator="arithmetic" k2="-1" k3="1"/>
<feColorMatrix type="matrix" values="0 0 0 0 0.247721 0 0 0 0 0.250429 0 0 0 0 0.310685 0 0 0 0.33 0"/>
<feBlend mode="normal" in2="effect3_innerShadow_1686_2940" result="effect4_innerShadow_1686_2940"/>
</filter>
<filter id="filter6_diii_1686_2940" x="103.806" y="14.0308" width="34.584" height="17.3926" filterUnits="userSpaceOnUse" color-interpolation-filters="sRGB">
<feFlood flood-opacity="0" result="BackgroundImageFix"/>
<feColorMatrix in="SourceAlpha" type="matrix" values="0 0 0 0 0 0 0 0 0 0 0 0 0 0 0 0 0 0 127 0" result="hardAlpha"/>
<feOffset dy="2"/>
<feGaussianBlur stdDeviation="1"/>
<feComposite in2="hardAlpha" operator="out"/>
<feColorMatrix type="matrix" values="0 0 0 0 0 0 0 0 0 0 0 0 0 0 0 0 0 0 0.5 0"/>
<feBlend mode="normal" in2="BackgroundImageFix" result="effect1_dropShadow_1686_2940"/>
<feBlend mode="normal" in="SourceGraphic" in2="effect1_dropShadow_1686_2940" result="shape"/>
<feColorMatrix in="SourceAlpha" type="matrix" values="0 0 0 0 0 0 0 0 0 0 0 0 0 0 0 0 0 0 127 0" result="hardAlpha"/>
<feOffset dy="2"/>
<feGaussianBlur stdDeviation="1"/>
<feComposite in2="hardAlpha" operator="arithmetic" k2="-1" k3="1"/>
<feColorMatrix type="matrix" values="0 0 0 0 0.304443 0 0 0 0 0.304443 0 0 0 0 0.304443 0 0 0 1 0"/>
<feBlend mode="normal" in2="shape" result="effect2_innerShadow_1686_2940"/>
<feColorMatrix in="SourceAlpha" type="matrix" values="0 0 0 0 0 0 0 0 0 0 0 0 0 0 0 0 0 0 127 0" result="hardAlpha"/>
<feOffset dy="2"/>
<feGaussianBlur stdDeviation="1"/>
<feComposite in2="hardAlpha" operator="arithmetic" k2="-1" k3="1"/>
<feColorMatrix type="matrix" values="0 0 0 0 0.304443 0 0 0 0 0.304443 0 0 0 0 0.304443 0 0 0 1 0"/>
<feBlend mode="normal" in2="effect2_innerShadow_1686_2940" result="effect3_innerShadow_1686_2940"/>
<feColorMatrix in="SourceAlpha" type="matrix" values="0 0 0 0 0 0 0 0 0 0 0 0 0 0 0 0 0 0 127 0" result="hardAlpha"/>
<feOffset dy="-2"/>
<feGaussianBlur stdDeviation="0.5"/>
<feComposite in2="hardAlpha" operator="arithmetic" k2="-1" k3="1"/>
<feColorMatrix type="matrix" values="0 0 0 0 0.247721 0 0 0 0 0.250429 0 0 0 0 0.310685 0 0 0 0.33 0"/>
<feBlend mode="normal" in2="effect3_innerShadow_1686_2940" result="effect4_innerShadow_1686_2940"/>
</filter>
<radialGradient id="paint0_radial_1686_2940" cx="0" cy="0" r="1" gradientTransform="matrix(4.57399 21.2165 -24.1637 6.06184 17.8386 15.789)" gradientUnits="userSpaceOnUse">
<stop stop-color="white"/>
<stop offset="0.600962" stop-color="#F3F4F6"/>
<stop offset="1" stop-color="#777B9B"/>
</radialGradient>
<radialGradient id="paint1_radial_1686_2940" cx="0" cy="0" r="1" gradientTransform="matrix(14.0271 11.6007 -9.40692 13.2358 6.546 3.02628)" gradientUnits="userSpaceOnUse">
<stop/>
<stop offset="0.780399" stop-color="#1B2026"/>
<stop offset="1"/>
</radialGradient>
<radialGradient id="paint2_radial_1686_2940" cx="0" cy="0" r="1" gradientTransform="matrix(4.57399 21.2165 -24.1637 6.06184 17.8386 15.789)" gradientUnits="userSpaceOnUse">
<stop stop-color="white"/>
<stop offset="0.600962" stop-color="#F3F4F6"/>
<stop offset="1" stop-color="#777B9B"/>
</radialGradient>
<radialGradient id="paint3_radial_1686_2940" cx="0" cy="0" r="1" gradientTransform="matrix(14.0466 11.6168 -9.41996 13.2541 6.55508 3.03047)" gradientUnits="userSpaceOnUse">
<stop/>
<stop offset="0.780399" stop-color="#1B2026"/>
<stop offset="1"/>
</radialGradient>
<clipPath id="clip0_1686_2940">
<rect width="185" height="185" fill="white"/>
</clipPath>
</defs>
</svg>
