<svg width="20" height="20" viewBox="0 0 20 20" fill="none" xmlns="http://www.w3.org/2000/svg">
<path d="M0.00274776 10.0883C0.00414239 10.416 0.108257 10.7351 0.300483 11.0007C0.492708 11.2663 0.763393 11.4651 1.07454 11.5692L3.83476 12.4783C4.70135 12.7677 5.48837 13.255 6.13322 13.9016C6.77807 14.5481 7.26296 15.336 7.54932 16.2026L8.50365 18.9445C8.61325 19.2504 8.81283 19.5162 9.07624 19.7069C9.27588 19.8505 9.50676 19.9448 9.74994 19.982C9.99312 20.0193 10.2417 19.9984 10.4752 19.9211C10.7088 19.8439 10.9206 19.7124 11.0934 19.5375C11.2663 19.3627 11.3951 19.1494 11.4694 18.9152L12.3944 16.1586C12.6927 15.2894 13.1963 14.5048 13.8626 13.8712C14.5069 13.2108 15.296 12.7089 16.1677 12.405L18.9279 11.4812C19.2405 11.383 19.5135 11.1878 19.7075 10.9241C19.8978 10.6563 20 10.336 20 10.0077C20 9.67929 19.8978 9.35905 19.7075 9.09125C19.5124 8.81976 19.2341 8.61904 18.9147 8.51941L16.1691 7.59567C15.2855 7.29889 14.4853 6.79629 13.8347 6.12942C13.174 5.47986 12.6704 4.68662 12.3665 3.81273L11.4562 1.10016C11.3701 0.790241 11.1844 0.517182 10.9277 0.323045C10.6693 0.116068 10.3485 0.00238745 10.0174 0.000468996C9.68936 -0.0074308 9.36672 0.0846295 9.0924 0.264395C8.81345 0.439185 8.60143 0.702556 8.49043 1.01219L7.56546 3.81273C7.26154 4.68662 6.75795 5.47986 6.09726 6.12942C5.45086 6.79433 4.65589 7.29681 3.7775 7.59567L1.03196 8.5634C0.72291 8.65996 0.454494 8.85585 0.268495 9.12058C0.0776287 9.40503 -0.0178071 9.74373 0.00274776 10.0883Z" fill="white" fill-opacity="0.66"/>
</svg>
