<svg width="21" height="21" viewBox="0 0 21 21" fill="none" xmlns="http://www.w3.org/2000/svg">
<path d="M18.5 10H18C17.4477 10 17 9.55228 17 9V6C17 4.9 16.1 4 15 4H12C11.4477 4 11 3.55228 11 3V2.5C11 1.83696 10.7366 1.20107 10.2678 0.732233C9.79893 0.263392 9.16304 0 8.5 0C7.83696 0 7.20107 0.263392 6.73223 0.732233C6.26339 1.20107 6 1.83696 6 2.5V3C6 3.55228 5.55228 4 5 4H2C0.9 4 0.00999999 4.9 0.00999999 6V8.8C0.00999999 9.35229 0.457715 9.8 1.01 9.8H1.5C2.99 9.8 4.2 11.01 4.2 12.5C4.2 13.99 2.99 15.2 1.5 15.2H1C0.447715 15.2 0 15.6477 0 16.2V19C0 20.1 0.9 21 2 21H4.8C5.35229 21 5.8 20.5523 5.8 20V19.5C5.8 18.01 7.01 16.8 8.5 16.8C9.99 16.8 11.2 18.01 11.2 19.5V20C11.2 20.5523 11.6477 21 12.2 21H15C16.1 21 17 20.1 17 19V16C17 15.4477 17.4477 15 18 15H18.5C19.163 15 19.7989 14.7366 20.2678 14.2678C20.7366 13.7989 21 13.163 21 12.5C21 11.837 20.7366 11.2011 20.2678 10.7322C19.7989 10.2634 19.163 10 18.5 10Z" fill="white" fill-opacity="0.66"/>
</svg>
