<svg width="23" height="18" viewBox="0 0 23 18" fill="none" xmlns="http://www.w3.org/2000/svg">
<path d="M16.8535 0.699219C17.6865 0.699219 18.4343 1.21001 18.7363 1.98633L21.7402 9.71191L21.7441 9.72168L21.7217 9.71875L21.7412 9.72168L20.9863 15.0049C20.844 15.9997 19.9923 16.7382 18.9873 16.7383H3.45605C2.45107 16.7382 1.59941 15.9997 1.45703 15.0049L0.702148 9.72168L0.700195 9.70898L0.704102 9.70996L4.17578 1.89844C4.5 1.16897 5.22321 0.699219 6.02148 0.699219H16.8535ZM1.49609 14.999C1.63554 15.9743 2.47088 16.6991 3.45605 16.6992H18.9873C19.9725 16.6991 20.8078 15.9743 20.9473 14.999L21.6992 9.73828H16.2217C15.6813 9.73828 15.2519 10.1845 15.1172 10.7139C14.6743 12.4527 13.0984 13.7383 11.2217 13.7383C9.34497 13.7383 7.76902 12.4527 7.32617 10.7139C7.19141 10.1845 6.76206 9.73828 6.22168 9.73828H0.744141L1.49609 14.999ZM6.02148 0.738281C5.23901 0.738281 4.52971 1.20001 4.21191 1.91504L0.751953 9.69922H6.22168C6.78587 9.69922 7.22651 10.163 7.36426 10.7041C7.80268 12.4256 9.36368 13.6992 11.2217 13.6992C13.0797 13.6992 14.6407 12.4256 15.0791 10.7041C15.2168 10.163 15.6575 9.69922 16.2217 9.69922H21.6934L18.6992 2.00098C18.4033 1.23993 17.6701 0.738281 16.8535 0.738281H6.02148Z" stroke="white" stroke-opacity="0.66" stroke-width="1.4" stroke-linecap="round" stroke-linejoin="round"/>
</svg>
