<svg width="17" height="16" viewBox="0 0 17 16" fill="none" xmlns="http://www.w3.org/2000/svg">
<path fill-rule="evenodd" clip-rule="evenodd" d="M0.700195 0.730609C0.700195 0.713273 0.715053 0.699219 0.733381 0.699219H15.667C15.6853 0.699219 15.7002 0.713273 15.7002 0.730609C15.7002 0.747945 15.6853 0.761999 15.667 0.761999H0.733381C0.715053 0.761999 0.700195 0.747945 0.700195 0.730609Z" stroke="white" stroke-opacity="0.66" stroke-width="1.4" stroke-linecap="round"/>
<path fill-rule="evenodd" clip-rule="evenodd" d="M0.700195 7.69922C0.700195 7.68188 0.715053 7.66783 0.733381 7.66783H15.667C15.6853 7.66783 15.7002 7.68188 15.7002 7.69922C15.7002 7.71656 15.6853 7.73061 15.667 7.73061H0.733381C0.715053 7.73061 0.700195 7.71656 0.700195 7.69922Z" stroke="white" stroke-opacity="0.66" stroke-width="1.4" stroke-linecap="round"/>
<path fill-rule="evenodd" clip-rule="evenodd" d="M0.700195 14.6678C0.700195 14.6505 0.715053 14.6364 0.733381 14.6364H10.6891C10.7075 14.6364 10.7223 14.6505 10.7223 14.6678C10.7223 14.6852 10.7075 14.6992 10.6891 14.6992H0.733381C0.715053 14.6992 0.700195 14.6852 0.700195 14.6678Z" stroke="white" stroke-opacity="0.66" stroke-width="1.4" stroke-linecap="round"/>
</svg>
