<svg width="20" height="25" viewBox="0 0 20 25" fill="none" xmlns="http://www.w3.org/2000/svg">
<path d="M10.1788 0.0129834C10.0602 -0.00432781 9.93978 -0.00432781 9.82121 0.0129834C9.68754 0.0325017 9.55749 0.0816022 9.29763 0.180066L2.5954 2.71987L2.59377 2.72049C1.65946 3.0745 1.19191 3.25166 0.847356 3.55833C0.542764 3.82956 0.308155 4.17208 0.163762 4.55548C0.000315562 4.98948 0 5.49426 0 6.50401V12.5442C0 18.7436 6.69279 23.2531 9.12785 24.6885L9.12842 24.6888C9.4045 24.8516 9.54279 24.9331 9.73783 24.9754C9.88938 25.0082 10.1106 25.0082 10.2622 24.9754C10.4572 24.9331 10.5955 24.8516 10.8716 24.6888L10.8721 24.6885C13.3072 23.2531 20 18.7436 20 12.5442V6.50401C20 5.49426 19.9997 4.98948 19.8362 4.55548C19.6918 4.17208 19.4572 3.82956 19.1526 3.55833C18.8081 3.25166 18.3405 3.0745 17.4062 2.72049L17.4046 2.71987L10.7024 0.180066C10.4425 0.0816028 10.3125 0.0325019 10.1788 0.0129834Z" fill="white" fill-opacity="0.66"/>
</svg>
